**ABCDEFGHIJKLMNOPQRSTUVWXYZabcdefghijklmnopqrstuvwxyz**************************
**PARASOLID !"#$%&'()*+,-./:;<=>?@[\]^_`{|}~0123456789**************************
**PART1;
MC=AMD64;
MC_MODEL=Intel64 Family 6 Model 58 Stepping 9, GenuineIntel;
MC_ID=unknown;
OS=Windows_NT;
OS_RELEASE=unknown;
FRU=Parasolid Version 27.0, build 199, 11-19-2014;
APPL=SOLIDWORKS 2015-2015063;
SITE=;
USER=unknown;
FORMAT=text;
GUISE=transmit;
KEY=Batteries4;
FILE=Batteries4.x_t;
DATE=Fri Sep 25 02:08:44 2015;
**PART2;
SCH=SCH_2700199_26105;
USFLD_SIZE=0;
**PART3;
**END_OF_HEADER*****************************************************************
T51 : TRANSMIT FILE created by modeller version 270019923 SCH_2700199_26105_1300
6196 0 12 30 CCCCCCCCCCCCCDI5 owner1040 0 CCCCCCCCCA13 boundary_mesh1006 0 A16 i
ndex_map_offset0 0 1 dA9 index_map82 0 A17 node_id_index_map82 0 A20 schema_embe
dding_map82 0 A5 child12 0 A14 lowest_node_id0 0 1 dZ1 1190 0 2 0 0 0 0 1e3 1e-8
 0 3 0 1 0 1 1 4 5 6 7 8 9 10 0 0 0 0 0 0 0 70 11 CI9 list_type0 0 1 uI10 notran
smit0 0 1 lCCCDCCDI12 finger_index0 0 1 dI12 finger_block1012 0 CZ2 0 4 T1 0 0 2
 20 1 11 11 13 255 4 94 0 1 0 12 0 0 13 0 50 255 5 93 0 14 15 0 0 +0 .002 0 1 0
 0 0 0 -1 31 255 6 934 0 9 16 0 0 +.055 0 -.08 0 -1 0 0 0 -1 .0015875 29 255 7 9
28 0 10 17 0 .0565875 0 -.08 19 8 CCCCCCCA5 owner12 0 Z8 28 0 1 13 0 18 V0 16 25
5 9 932 0 ?19 0 20 6 0 0 1 18 255 10 926 0 21 0 22 7 ?1 17 255 21 0 23 19 24 10
 25 26 0 27 -18 22 801 0 28 10 29 17 ?1 17 28 0 30 31 32 22 33 34 0 35 -18 29 71
2 0 36 22 37 38 ?1 29 17 803 0 22 38 7 .0534125 0 0 29 38 714 0 29 39 17 .021587
5 0 -.08 29 39 579 0 37 40 38 .0184125 0 0 18 37 577 0 41 29 42 39 ?1 29 40 269
 0 42 43 39 .008 .002 -.043 18 42 267 0 44 37 45 40 ?1 29 43 265 0 45 46 40 .07
 .002 -.043 18 45 263 0 47 42 48 43 ?1 29 46 258 0 48 49 43 .07 .002 -.077 18 48
 256 0 50 45 51 46 ?1 29 49 145 0 51 52 46 .008 .002 -.002 18 51 143 0 53 48 54
 49 ?1 29 52 141 0 54 55 49 .07 .002 -.002 18 54 139 0 56 51 57 52 ?1 29 55 134
 0 57 58 52 .07 .002 -.036 18 57 132 0 59 54 60 55 ?1 29 58 70 0 61 62 55 0 0 -.
08 18 61 61 0 63 64 65 58 ?1 29 62 71 0 65 66 58 .08 0 -.08 18 65 62 0 67 61 68
 62 ?1 29 66 72 0 68 69 62 .08 0 0 18 68 63 0 70 65 71 66 ?1 29 69 73 0 71 72 66
 0 0 0 18 71 64 0 73 68 74 69 ?1 29 72 27 0 60 75 69 0 .002 -.08 18 60 25 0 76 5
7 77 72 ?1 29 75 24 0 77 78 72 .08 .002 -.08 18 77 22 0 79 60 80 75 ?1 29 78 21
 0 80 81 75 .08 .002 0 18 80 19 0 82 77 64 78 ?1 29 81 18 0 64 83 78 0 .002 0 18
 64 16 0 84 80 61 81 ?1 29 83 231 0 85 86 81 .008 .002 -.036 18 85 184 0 87 88 8
9 83 ?1 29 86 235 0 74 90 83 .008 .012 -.036 18 74 187 0 91 71 92 86 ?1 29 90 23
6 0 92 93 86 .07 .012 -.036 18 92 186 0 94 74 95 90 ?1 29 93 237 0 95 96 90 .07
 .012 -.002 18 95 185 0 97 92 88 93 ?1 29 96 238 0 88 98 93 .008 .012 -.002 18 8
8 182 0 99 95 85 96 ?1 29 98 355 0 100 101 96 .008 .002 -.077 18 100 308 0 102 1
03 104 98 ?1 29 101 359 0 89 105 98 .008 .012 -.077 18 89 311 0 106 85 107 101 ?
1 29 105 360 0 107 108 101 .07 .012 -.077 18 107 310 0 109 89 110 105 ?1 29 108
 361 0 110 111 105 .07 .012 -.043 18 110 309 0 112 107 103 108 ?1 29 111 362 0 1
03 113 108 .008 .012 -.043 18 103 306 0 114 110 100 111 ?1 29 113 659 0 104 115
 111 .0184125 .002 0 18 104 627 0 116 100 117 113 ?1 29 115 660 0 117 118 113 .0
215875 .002 0 18 117 625 0 119 104 120 115 ?1 29 118 662 0 120 121 115 .0215875
 0 0 18 120 626 0 122 117 123 118 ?1 29 121 794 0 123 124 118 .0184125 .002 -.08
 18 123 760 0 125 120 126 121 ?1 29 124 795 0 126 127 121 .0215875 .002 -.08 18
 126 762 0 128 123 129 124 ?1 29 127 796 0 129 130 124 .0184125 0 -.08 18 129 76
1 0 131 126 132 127 ?1 29 130 883 0 132 133 127 .0534125 .002 0 18 132 851 0 32
 129 134 130 ?1 29 133 884 0 134 135 130 .0565875 .002 0 18 134 849 0 136 132 13
7 133 ?1 29 135 886 0 137 138 133 .0565875 0 0 18 137 850 0 31 134 139 135 ?1 29
 138 1008 0 139 140 135 .0534125 .002 -.08 18 139 974 0 141 137 142 138 ?1 29 14
0 1009 0 142 143 138 .0565875 .002 -.08 18 142 976 0 24 139 144 140 ?1 29 143 10
10 0 144 0 140 .0534125 0 -.08 18 144 975 0 19 142 0 143 ?1 17 19 0 23 141 21 14
4 27 9 0 145 +15 255 23 986 0 19 146 0 17 141 0 23 24 19 139 145 147 0 148 -17 2
7 0 149 150 151 10 19 9 0 152 -17 145 0 153 36 154 144 141 147 0 151 +15 153 730
 0 154 155 0 17 36 0 153 156 145 29 151 157 0 158 +17 154 0 153 145 156 139 128
 159 0 0 -16 147 965 0 ?145 26 160 161 0 0 1 17 151 0 149 27 162 144 36 157 0 0
 -15 149 933 0 27 163 164 17 162 0 149 151 165 29 131 20 0 0 -16 157 930 0 ?36 1
66 167 168 167 166 1 16 166 45 0 ?152 169 157 168 157 167 1 16 167 716 0 ?63 157
 170 168 166 157 1 30 255 168 66 0 166 171 172 0 +0 0 -.08 -1 0 0 30 171 67 0 17
0 173 168 0 +.08 0 0 0 0 -1 30 172 86 0 174 168 175 0 +0 .002 -.08 0 -1 0 16 174
 74 0 ?176 177 178 172 0 0 1 30 175 87 0 177 172 179 0 +.08 .002 -.08 0 -1 0 16
 177 75 0 ?180 181 174 175 0 0 1 30 179 88 0 181 175 182 0 +.08 .002 0 0 -1 0 16
 181 76 0 ?183 184 177 179 0 0 1 30 182 89 0 184 179 16 0 +0 .002 0 0 -1 0 16 18
4 77 0 ?185 20 181 182 0 0 1 31 16 720 0 20 182 6 0 +.02 0 -.08 0 -1 0 0 0 -1 .0
015875 16 20 718 0 ?131 9 184 16 0 0 1 17 131 0 186 125 158 129 162 20 0 187 +15
 186 772 0 131 188 0 17 125 0 186 189 131 123 187 190 0 191 -17 158 0 186 131 18
9 29 156 192 0 162 -17 187 0 193 63 194 129 125 190 0 165 +15 193 78 0 194 195 0
 17 63 0 193 196 187 61 165 167 0 176 +17 194 0 193 187 196 123 76 197 0 0 -16 1
90 751 0 ?187 192 198 199 0 0 1 17 165 0 149 162 200 129 63 167 0 0 -17 200 0 14
9 165 73 61 201 202 0 0 -17 73 0 149 200 203 71 204 205 0 185 -17 201 0 206 207
 176 71 200 202 0 0 +16 202 57 0 ?201 208 209 210 0 0 1 16 208 805 0 ?70 211 202
 173 211 205 1 16 209 160 0 ?212 202 213 214 0 0 1 30 210 69 0 202 215 173 0 +0
 0 0 0 0 1 30 215 14 0 178 216 210 0 +0 .002 -.08 -1 0 0 30 173 68 0 205 210 171
 0 +0 0 0 1 0 0 16 205 53 0 ?204 170 211 173 208 211 1 17 204 0 217 218 185 37 7
3 205 0 0 +16 170 49 0 ?67 167 205 171 0 0 1 16 211 581 0 ?219 205 208 173 205 2
08 1 17 219 0 220 33 221 22 222 211 0 0 +15 220 819 0 219 223 0 17 33 0 220 224
 219 132 28 34 0 225 +17 221 0 220 219 224 120 119 226 0 222 +17 222 0 149 203 3
5 120 219 211 0 0 -17 203 0 149 73 222 37 122 227 0 204 +17 35 0 149 222 228 22
 31 229 0 219 +17 228 0 149 35 230 137 70 208 0 0 -17 31 0 30 136 28 137 35 229
 0 231 -16 229 836 0 ?35 232 233 234 0 0 1 16 232 840 0 ?231 34 229 235 0 0 1 16
 233 832 0 ?32 229 236 237 0 0 1 31 234 882 0 229 238 237 0 +.055 0 0 0 1 0 0 0
 1 .0015875 31 238 923 0 239 240 234 0 +.055 .002 -.04 0 1 0 0 0 1 .0015875 31 2
37 881 0 233 234 235 0 +.055 .002 0 0 1 0 0 0 1 .0015875 30 235 880 0 232 237 24
1 0 -.0565875 0 0 0 1 0 30 241 879 0 34 235 242 0 +.0534125 0 0 0 1 0 16 34 839
 0 ?33 198 232 241 0 0 1 31 242 792 0 198 241 199 0 +.02 .002 -.08 0 1 0 0 0 1 .
0015875 16 198 743 0 ?189 190 34 242 0 0 1 30 199 791 0 190 242 243 0 -.0184125
 0 -.08 0 1 0 30 243 790 0 192 199 244 0 +.0215875 0 -.08 0 1 0 16 192 750 0 ?15
6 245 190 243 0 0 1 31 244 710 0 246 243 247 0 +.02 0 -.04 0 1 0 0 0 1 .0015875
 16 246 687 0 ?248 249 245 244 0 0 1 31 247 709 0 245 244 250 0 +.02 .002 -.04 0
 1 0 0 0 1 .0015875 16 245 690 0 ?251 246 192 247 0 0 1 31 250 658 0 227 247 252
 0 +.02 0 0 0 1 0 0 0 1 .0015875 16 227 612 0 ?203 226 249 250 0 0 1 31 252 657
 0 249 250 253 0 +.02 .002 0 0 1 0 0 0 1 .0015875 16 249 608 0 ?116 227 246 252
 0 0 1 30 253 656 0 226 252 254 0 -.0215875 0 0 0 1 0 16 226 616 0 ?221 255 227
 253 0 0 1 30 254 655 0 255 253 256 0 +.0184125 0 0 0 1 0 16 255 615 0 ?218 257
 226 254 0 0 1 31 256 542 0 258 254 259 0 +.005 0 -.005 0 1 0 0 0 1 .0018 16 258
 519 0 ?260 261 257 256 0 0 1 31 259 541 0 257 256 262 0 +.005 .002 -.005 0 1 0
 0 0 1 .0018 16 257 522 0 ?263 258 255 259 0 0 1 31 262 504 0 264 259 265 0 +.07
5 0 -.005 0 1 0 0 0 1 .0018 16 264 481 0 ?266 267 261 262 0 0 1 31 265 503 0 261
 262 268 0 +.075 .002 -.005 0 1 0 0 0 1 .0018 16 261 484 0 ?269 264 258 265 0 0
 1 31 268 466 0 270 265 271 0 +.075 0 -.075 0 1 0 0 0 1 .0018 16 270 443 0 ?272
 273 267 268 0 0 1 31 271 465 0 267 268 274 0 +.075 .002 -.075 0 1 0 0 0 1 .0018
 16 267 446 0 ?275 270 264 271 0 0 1 31 274 428 0 276 271 277 0 +.005 0 -.075 0
 1 0 0 0 1 .0018 16 276 405 0 ?278 279 273 274 0 0 1 31 277 427 0 273 274 280 0
 +.005 .002 -.075 0 1 0 0 0 1 .0018 16 273 408 0 ?281 276 270 277 0 0 1 30 280 3
54 0 282 277 283 0 +.008 .012 -.077 510212787052002e-31 0 1 16 282 293 0 ?284 28
5 286 280 0 0 1 30 283 353 0 285 280 287 0 +.008 .012 -.043 1 0 -279794109028517
e-31 16 285 296 0 ?112 288 282 283 0 0 1 30 287 352 0 288 283 289 0 +.07 .012 -.
077 -4081702296416015e-31 0 -1 16 288 299 0 ?109 290 285 287 0 0 1 30 289 351 0
 290 287 291 0 +.008 .012 -.077 -1 0 0 16 290 302 0 ?106 292 288 289 0 0 1 30 29
1 350 0 279 289 293 0 +.008 .002 -.077 510212787052002e-31 0 1 16 279 277 0 ?294
 295 276 291 0 0 1 30 293 349 0 295 291 296 0 +.008 .002 -.043 1 0 -279794109028
517e-31 16 295 281 0 ?297 298 279 293 0 0 1 30 296 348 0 298 293 299 0 +.07 .002
 -.077 -4081702296416015e-31 0 -1 16 298 285 0 ?300 286 295 296 0 0 1 30 299 347
 0 286 296 301 0 +.008 .002 -.077 -1 0 0 16 286 289 0 ?302 282 298 299 0 0 1 30
 301 346 0 292 299 303 0 +.008 .012 -.077 0 -1 0 16 292 280 0 ?304 305 290 301 0
 0 1 30 303 345 0 305 301 306 0 +.07 .012 -.077 0 -1 0 16 305 292 0 ?307 308 292
 303 0 0 1 30 306 344 0 308 303 309 0 +.07 .012 -.043 0 -1 0 16 308 288 0 ?310 3
11 305 306 0 0 1 30 309 343 0 311 306 312 0 +.008 .012 -.043 0 -1 0 16 311 284 0
 ?313 314 308 309 0 0 1 30 312 230 0 315 309 316 0 +.008 .012 -.036 510212787052
002e-31 0 1 16 315 169 0 ?317 318 319 312 0 0 1 30 316 229 0 318 312 320 0 +.008
 .012 -.002 1 0 -279794109028517e-31 16 318 172 0 ?97 321 315 316 0 0 1 30 320 2
28 0 321 316 322 0 +.07 .012 -.036 -4081702296416015e-31 0 -1 16 321 175 0 ?94 3
23 318 320 0 0 1 30 322 227 0 323 320 324 0 +.008 .012 -.036 -1 0 0 16 323 178 0
 ?91 325 321 322 0 0 1 30 324 226 0 314 322 326 0 +.008 .002 -.036 5102127870520
02e-31 0 1 16 314 153 0 ?327 328 311 324 0 0 1 30 326 225 0 328 324 329 0 +.008
 .002 -.002 1 0 -279794109028517e-31 16 328 157 0 ?330 331 314 326 0 0 1 30 329
 224 0 331 326 332 0 +.07 .002 -.036 -4081702296416015e-31 0 -1 16 331 161 0 ?33
3 319 328 329 0 0 1 30 332 223 0 319 329 334 0 +.008 .002 -.036 -1 0 0 16 319 16
5 0 ?335 315 331 332 0 0 1 30 334 222 0 325 332 336 0 +.008 .012 -.036 0 -1 0 16
 325 156 0 ?337 338 323 334 0 0 1 30 336 221 0 338 334 339 0 +.07 .012 -.036 0 -
1 0 16 338 168 0 ?340 213 325 336 0 0 1 30 339 220 0 213 336 214 0 +.07 .012 -.0
02 0 -1 0 16 213 164 0 ?341 209 338 339 0 0 1 30 214 219 0 209 339 342 0 +.008 .
012 -.002 0 -1 0 30 342 5 0 169 214 343 0 +0 .002 0 0 0 1 16 169 4 0 ?344 345 16
6 342 0 0 1 30 343 8 0 346 342 216 0 +0 .002 0 1 0 0 16 346 7 0 ?347 348 349 343
 345 349 1 30 216 11 0 348 343 215 0 +.08 .002 0 0 0 -1 16 348 10 0 ?79 197 346
 216 0 0 1 17 79 0 350 351 82 77 352 348 0 353 +16 197 727 0 ?76 159 348 215 178
 159 1 17 76 0 350 344 191 60 194 197 0 196 +16 159 941 0 ?128 178 197 215 197 1
78 1 16 178 13 0 ?351 174 159 215 159 197 1 17 351 0 350 148 79 142 354 178 0 0
 +15 350 3 0 351 355 356 17 148 0 350 128 351 139 24 160 0 154 -17 354 0 357 180
 25 77 351 178 0 0 -15 357 949 0 152 12 0 17 180 0 357 152 354 65 353 177 0 150
 +17 25 0 357 354 152 142 21 26 0 351 +17 152 0 357 25 180 10 150 166 0 0 +16 26
 964 0 ?25 239 147 358 0 0 1 16 239 904 0 ?359 236 26 238 0 0 1 30 358 1004 0 26
 161 240 0 +.0565875 0 -.08 0 1 0 30 161 1005 0 147 360 358 0 -.0534125 0 -.08 0
 1 0 31 240 924 0 236 358 238 0 +.055 0 -.04 0 1 0 0 0 1 .0015875 16 236 901 0 ?
361 233 239 240 0 0 1 17 361 0 164 361 361 0 362 236 0 0 +15 164 890 0 361 163 3
63 17 362 0 364 362 362 0 361 236 0 0 -15 364 910 0 362 365 366 14 255 365 907 3
67 ?146 368 364 4 369 -0 0 146 368 18 15 366 911 0 359 365 0 17 359 0 366 359 35
9 0 370 239 0 0 +17 370 0 371 370 370 0 359 239 0 0 -15 371 895 0 370 355 372 14
 355 274 373 ?14 374 371 4 375 -0 0 14 374 18 15 372 681 0 376 355 377 17 376 0
 372 376 376 0 251 245 0 0 -15 377 513 0 378 355 379 17 378 0 377 378 378 0 263
 257 0 0 -15 379 475 0 380 355 381 17 380 0 379 380 380 0 269 261 0 0 -15 381 43
7 0 382 355 383 17 382 0 381 382 382 0 275 267 0 0 -15 383 399 0 384 355 385 17
 384 0 383 384 384 0 281 273 0 0 -15 385 148 0 87 355 350 17 87 0 385 59 53 85 3
27 314 0 335 -17 59 0 385 56 87 57 335 319 0 333 -17 53 0 385 87 56 51 330 328 0
 212 -17 327 0 386 387 337 51 87 314 0 0 +17 335 0 388 389 340 85 59 319 0 337 +
15 388 204 0 335 390 0 17 389 0 388 391 335 74 337 325 0 392 -17 340 0 388 335 3
91 57 393 338 0 0 +17 337 0 386 327 392 85 389 325 0 0 +15 386 192 0 327 394 0 1
7 392 0 386 337 387 74 317 315 0 0 -17 387 0 386 392 327 88 212 209 0 0 -17 317
 0 395 97 91 88 392 315 0 387 +15 395 207 0 317 396 0 17 97 0 395 94 317 95 99 3
18 0 397 +17 91 0 395 317 94 74 391 323 0 389 +17 94 0 395 91 97 92 398 321 0 39
3 +17 391 0 388 340 389 92 91 323 0 0 -17 398 0 399 341 393 95 94 321 0 0 -17 39
3 0 399 398 333 92 340 338 0 391 -15 399 200 0 333 400 0 17 333 0 399 393 341 57
 56 331 0 340 +17 341 0 399 333 398 54 397 213 0 0 +17 56 0 385 53 59 54 333 331
 0 330 -17 330 0 401 397 212 54 53 328 0 341 +15 401 196 0 330 402 0 17 397 0 40
1 99 330 95 341 213 0 398 -17 212 0 401 330 99 51 387 209 0 327 +17 99 0 401 212
 397 88 97 318 0 317 -14 402 193 403 ?400 394 401 4 404 -0 0 400 394 18 81 255 1
 403 1163 405 402 406 0 373 407 408 14 400 197 407 ?390 402 399 4 409 -0 0 390 4
02 18 14 394 189 410 ?402 163 386 4 411 -0 0 402 163 18 50 404 214 0 402 409 411
 0 +.008 .012 -.002 -279794109028517e-31 0 -1 -1 0 279794109028517e-31 13 18 29
 0 0 0 0 0 0 8 12 14 12 950 412 ?223 0 357 4 413 -155 195 223 0 18 81 1 412 1166
 405 12 414 0 410 415 416 14 223 820 415 ?155 12 220 4 15 -374 417 155 12 18 50
 413 90 0 195 418 419 0 +0 .002 -.08 0 0 1 1 0 0 14 155 731 420 ?374 223 153 4 4
13 -195 12 374 223 18 14 195 79 421 ?163 422 193 4 413 -12 155 163 422 18 81 1 4
21 1169 405 195 423 0 420 424 425 14 163 43 424 ?394 195 149 4 418 +0 0 394 195
 18 14 422 81 426 ?195 417 427 4 419 -0 0 195 417 18 81 1 426 1171 405 422 428 0
 424 429 430 14 417 83 429 ?422 14 431 4 15 -223 374 422 14 18 15 427 80 0 67 42
2 0 50 419 91 0 422 413 15 0 +.08 .002 0 -1 0 0 0 0 1 50 15 92 0 417 419 5 0 +0
 .002 0 0 0 -1 -1 0 0 17 67 0 427 353 183 65 230 170 0 180 +17 353 0 427 352 67
 77 180 177 0 354 -17 183 0 427 67 352 68 432 181 0 230 +17 230 0 149 228 150 68
 67 170 0 0 -17 150 0 149 230 27 65 152 166 0 0 -17 352 0 427 183 353 80 79 348
 0 0 -17 432 0 431 433 70 80 183 181 0 352 -15 431 82 0 433 417 0 17 433 0 431 2
31 432 134 82 345 0 0 -17 70 0 431 432 231 68 228 208 0 183 +17 231 0 431 70 433
 137 136 232 0 228 +17 136 0 30 32 31 134 231 232 0 434 -15 30 861 0 31 368 0 17
 32 0 30 28 136 132 434 233 0 33 +17 434 0 350 82 225 134 32 233 0 433 -17 82 0
 350 79 434 80 433 345 0 432 +17 225 0 350 434 435 132 224 349 0 0 +17 435 0 350
 225 347 117 116 249 0 224 -17 224 0 220 221 33 117 225 349 0 0 -16 349 592 0 ?2
25 346 345 343 346 345 1 16 345 816 0 ?82 349 169 343 349 346 1 17 347 0 350 435
 344 104 84 346 0 0 +17 116 0 436 41 119 104 435 249 0 218 +15 436 637 0 122 437
 0 17 41 0 436 122 116 37 218 255 0 203 -17 119 0 436 116 122 117 221 226 0 435
 -17 218 0 217 84 204 104 41 255 0 347 +15 217 595 0 204 374 0 17 84 0 217 185 2
18 64 347 346 0 344 -17 185 0 217 204 84 71 207 184 0 201 +17 344 0 350 347 76 6
4 438 169 0 207 +17 438 0 206 176 207 60 344 169 0 0 -17 207 0 206 438 201 64 18
5 184 0 0 -15 206 84 0 201 14 0 14 14 85 439 ?417 355 206 4 5 -0 0 417 355 18 81
 1 439 1173 405 14 440 0 429 441 442 80 255 1 405 443 444 9000 1 1 1 1 1 1 1 1 0
 FFFFTFTFFFFFFF1 81 1 440 1074 445 14 0 439 446 447 448 81 1 429 1172 405 417 44
7 0 426 439 449 81 1 441 1174 405 450 451 0 439 452 453 82 255 1 442 126025832 1
4 450 693 441 ?188 437 454 4 455 -0 0 188 437 18 81 1 451 1094 445 450 0 441 456
 457 458 81 1 452 1175 405 188 457 0 441 459 460 82 1 453 2108293370 14 188 769
 452 ?368 450 186 4 461 -0 0 368 450 18 81 1 457 1095 445 188 0 452 451 462 463
 81 1 459 1176 405 368 462 0 452 464 465 82 1 460 2143944954 14 368 858 459 ?365
 188 30 4 466 -0 0 365 188 18 81 1 462 1096 445 368 0 459 457 467 468 81 1 464 1
177 405 146 469 0 459 470 471 82 1 465 -2144927494 14 146 983 464 ?0 365 23 4 47
2 -0 0 0 365 18 81 1 469 1098 445 146 0 464 467 0 473 81 1 470 1178 405 437 456
 0 464 474 475 82 1 471 -2137718534 14 437 634 470 ?450 476 436 4 477 -0 0 450 4
76 18 81 1 456 1093 445 437 0 470 478 451 479 81 1 474 1179 405 476 478 0 470 48
0 481 82 1 475 2097414393 14 476 525 474 ?437 482 483 4 484 -0 0 437 482 18 81 1
 478 1092 445 476 0 474 485 456 486 81 1 480 1180 405 482 485 0 474 487 488 82 1
 481 2067136759 14 482 487 480 ?476 489 490 4 491 -0 0 476 489 18 81 1 485 1091
 445 482 0 480 492 478 493 81 1 487 1181 405 489 492 0 480 494 495 82 1 488 2063
204599 14 489 449 487 ?482 496 497 4 498 -0 0 482 496 18 81 1 492 1090 445 489 0
 487 499 485 500 81 1 494 1182 405 496 499 0 487 501 502 82 1 495 2059272439 14
 496 411 494 ?489 503 504 4 505 -0 0 489 503 18 81 1 499 1089 445 496 0 494 506
 492 507 81 1 501 1183 405 503 506 0 494 508 509 82 1 502 2055274743 14 503 329
 501 ?496 510 511 4 512 +0 0 496 510 18 81 1 506 1088 445 503 0 501 513 499 514
 81 1 508 1184 405 510 513 0 501 515 516 82 1 509 808452332 14 510 325 508 ?503
 517 518 4 519 -0 0 503 517 18 81 1 513 1087 445 510 0 508 520 506 521 81 1 515
 1185 405 517 520 0 508 522 523 82 1 516 815005932 14 517 321 515 ?510 524 525 4
 526 -0 0 510 524 18 81 1 520 1086 445 517 0 515 527 513 528 81 1 522 1186 405 5
24 527 0 515 529 530 82 1 523 815268076 14 524 317 522 ?517 531 532 4 533 -0 0 5
17 531 18 81 1 527 1085 445 524 0 522 534 520 535 81 1 529 1187 405 531 534 0 52
2 536 537 82 1 530 815530220 14 531 313 529 ?524 396 538 4 539 -0 0 524 396 18 8
1 1 534 1084 445 531 0 529 540 527 541 81 1 536 1188 405 396 540 0 529 542 543 8
2 1 537 815792364 14 396 205 536 ?531 390 395 4 544 +0 0 531 390 18 81 1 540 108
3 445 396 0 536 545 534 546 81 1 542 1189 405 390 545 0 536 547 548 82 1 543 580
649187 14 390 201 542 ?396 400 388 4 549 -0 0 396 400 18 81 1 545 1082 445 390 0
 542 550 540 551 81 1 547 1190 405 374 552 0 542 0 553 82 1 548 587202787 14 374
 596 547 ?355 155 217 4 15 -417 223 355 155 18 81 1 552 1072 445 374 0 547 554 4
46 555 82 1 553 2098528505 80 1 445 0 556 8001 0 0 0 0 3 5 0 0 0 FFFFTFTFFFFFFF2
 81 1 554 1071 445 155 0 420 557 552 558 81 1 446 1073 445 355 0 373 552 440 559
 83 255 3 555 .792156862745098 .819607843137255 .933333333333333 81 1 373 1162 4
05 355 446 0 367 403 560 83 3 559 .792156862745098 .819607843137255 .93333333333
3333 81 1 367 1161 405 365 467 0 0 373 561 82 1 560 701563130 81 1 467 1097 445
 365 0 367 462 469 562 82 1 561 2130575610 83 3 562 .792156862745098 .8196078431
37255 .933333333333333 81 1 420 1168 405 155 554 0 415 421 563 81 1 557 1070 445
 223 0 415 414 554 564 83 3 558 .792156862745098 .819607843137255 .9333333333333
33 81 1 415 1167 405 223 557 0 412 420 565 81 1 414 1069 445 12 0 412 0 557 566
 83 3 564 .792156862745098 .819607843137255 .933333333333333 83 3 566 .792156862
745098 .819607843137255 .933333333333333 82 1 565 -2143813382 82 1 563 214505906
6 79 255 15 556 SDL/TYSA_COLOUR81 1 550 1081 445 400 0 407 406 545 567 83 3 551
 .792156862745098 .819607843137255 .933333333333333 81 1 407 1164 405 400 550 0
 403 410 568 81 1 406 1080 445 402 0 403 569 550 570 83 3 567 .792156862745098 .
819607843137255 .933333333333333 81 1 569 1079 445 394 0 410 571 406 572 83 3 57
0 .792156862745098 .819607843137255 .933333333333333 81 1 410 1165 405 394 569 0
 407 412 573 81 1 571 1078 445 163 0 424 423 569 574 83 3 572 .792156862745098 .
819607843137255 .933333333333333 81 1 424 1170 405 163 571 0 421 426 575 81 1 42
3 1077 445 195 0 421 428 571 576 83 3 574 .792156862745098 .819607843137255 .933
333333333333 81 1 428 1076 445 422 0 426 447 423 577 83 3 576 .792156862745098 .
819607843137255 .933333333333333 81 1 447 1075 445 417 0 429 440 428 578 83 3 57
7 .792156862745098 .819607843137255 .933333333333333 83 3 578 .792156862745098 .
819607843137255 .933333333333333 82 1 575 705102074 82 1 573 587989219 82 1 568
 587464931 50 549 216 0 390 544 409 0 +.008 .012 -.036 0 0 1 1 0 0 50 544 218 0
 396 539 549 0 +0 .012 0 0 1 0 0 0 1 50 409 215 0 400 549 404 0 +.07 .012 -.036
 -1 0 4081702296416015e-31 4081702296416015e-31 0 1 50 539 337 0 531 533 544 0 +
.008 .012 -.077 1 0 -510212787052002e-31 -510212787052002e-31 0 -1 50 533 338 0
 524 526 539 0 +.008 .012 -.043 -279794109028517e-31 0 -1 -1 0 279794109028517e-
31 50 526 339 0 517 519 533 0 +.07 .012 -.077 -1 0 4081702296416015e-31 40817022
96416015e-31 0 1 50 519 340 0 510 512 526 0 +.008 .012 -.077 0 0 1 1 0 0 50 512
 342 0 503 505 519 0 +0 .012 -.041 0 1 0 0 0 1 51 255 505 424 0 496 498 512 0 +.
005 0 -.075 0 1 0 .0018 0 0 1 51 498 462 0 489 491 505 0 +.075 0 -.075 0 1 0 .00
18 0 0 1 51 491 500 0 482 484 498 0 +.075 0 -.005 0 1 0 .0018 0 0 1 51 484 538 0
 476 477 491 0 +.005 0 -.005 0 1 0 .0018 0 0 1 51 477 650 0 437 455 484 0 +.02 0
 0 0 1 0 .0015875 0 0 1 51 455 706 0 450 461 477 0 +.02 0 -.04 0 1 0 .0015875 0
 0 1 51 461 785 0 188 466 455 0 +.02 0 -.08 0 1 0 .0015875 0 0 1 51 466 874 0 36
8 369 461 0 +.055 0 0 0 1 0 .0015875 0 0 1 51 369 920 0 365 472 466 0 +.055 0 -.
04 0 1 0 .0015875 0 0 1 51 472 999 0 146 0 369 0 +.055 0 -.08 0 1 0 .0015875 0 0
 1 83 3 546 .792156862745098 .819607843137255 .933333333333333 83 3 541 .7921568
62745098 .819607843137255 .933333333333333 15 538 316 0 294 531 0 17 294 0 538 5
79 304 42 102 279 0 0 +17 579 0 538 580 294 103 313 311 0 0 -17 304 0 538 294 58
0 100 581 292 0 0 +17 102 0 356 50 44 100 294 279 0 302 -15 356 272 0 102 355 0
 17 50 0 356 47 102 48 302 286 0 300 -17 44 0 356 102 47 42 297 295 0 313 -17 30
2 0 518 581 307 100 50 286 0 304 +15 518 328 0 302 510 0 17 581 0 518 582 302 89
 304 292 0 580 -17 307 0 518 302 582 48 583 305 0 0 +17 582 0 518 307 581 107 10
6 290 0 0 -17 583 0 525 584 300 107 307 305 0 582 -15 525 324 0 300 517 0 17 584
 0 525 310 583 110 109 288 0 0 -17 300 0 525 583 310 48 47 298 0 307 +17 310 0 5
25 300 584 45 585 308 0 0 +17 47 0 356 44 50 45 300 298 0 297 -17 297 0 532 585
 313 45 44 295 0 310 +15 532 320 0 297 524 0 17 585 0 532 114 297 110 310 308 0
 584 -17 313 0 532 297 114 42 579 311 0 294 +17 114 0 532 313 585 103 112 285 0
 284 -17 112 0 511 109 284 110 114 285 0 585 +17 284 0 511 112 106 103 580 282 0
 579 +15 511 331 0 284 503 0 17 106 0 511 284 109 89 582 290 0 581 +17 580 0 538
 304 579 89 284 282 0 0 -17 109 0 511 106 112 107 584 288 0 583 +83 3 535 .79215
6862745098 .819607843137255 .933333333333333 83 3 528 .792156862745098 .81960784
3137255 .933333333333333 83 3 521 .792156862745098 .819607843137255 .93333333333
3333 83 3 514 .792156862745098 .819607843137255 .933333333333333 83 3 507 .79215
6862745098 .819607843137255 .933333333333333 15 504 414 0 586 496 587 17 586 0 5
04 586 586 0 278 276 0 0 -15 587 415 0 281 496 0 17 281 0 587 281 281 0 384 273
 0 0 +17 278 0 588 278 278 0 586 276 0 0 +15 588 394 0 278 163 0 83 3 500 .79215
6862745098 .819607843137255 .933333333333333 15 497 452 0 589 489 590 17 589 0 4
97 589 589 0 272 270 0 0 -15 590 453 0 275 489 0 17 275 0 590 275 275 0 382 267
 0 0 +17 272 0 591 272 272 0 589 270 0 0 +15 591 432 0 272 163 588 83 3 493 .792
156862745098 .819607843137255 .933333333333333 15 490 490 0 592 482 593 17 592 0
 490 592 592 0 266 264 0 0 -15 593 491 0 269 482 0 17 269 0 593 269 269 0 380 26
1 0 0 +17 266 0 594 266 266 0 592 264 0 0 +15 594 470 0 266 163 591 83 3 486 .79
2156862745098 .819607843137255 .933333333333333 15 483 528 0 595 476 596 17 595
 0 483 595 595 0 260 258 0 0 -15 596 529 0 263 476 0 17 263 0 596 263 263 0 378
 257 0 0 +17 260 0 597 260 260 0 595 258 0 0 +15 597 508 0 260 163 594 83 3 479
 .792156862745098 .819607843137255 .933333333333333 83 3 473 .792156862745098 .8
19607843137255 .933333333333333 83 3 468 .792156862745098 .819607843137255 .9333
33333333333 83 3 463 .792156862745098 .819607843137255 .933333333333333 83 3 458
 .792156862745098 .819607843137255 .933333333333333 15 454 696 0 598 450 599 17
 598 0 454 598 598 0 248 246 0 0 -15 599 697 0 251 450 0 17 251 0 599 251 251 0
 376 245 0 0 +17 248 0 363 248 248 0 598 246 0 0 +15 363 676 0 248 163 597 82 1
 449 705298682 83 3 448 .792156862745098 .819607843137255 .933333333333333 79 14
 444 SWEntUnchanged17 176 0 206 201 438 61 196 174 0 200 +17 196 0 193 194 63 60
 176 174 0 438 -17 122 0 436 119 41 120 203 227 0 221 -82 1 430 125501544 50 418
 65 0 163 375 413 0 +0 0 0 0 -1 0 0 0 -1 50 375 2 0 355 411 418 0 +0 .002 0 0 -1
 0 0 0 -1 50 411 213 0 394 404 375 0 +.008 .012 -.036 1 0 -510212787052002e-31 -
510212787052002e-31 0 -1 82 1 425 704971002 82 1 416 -2136145670 82 1 408 587727
075 31 360 1006 0 160 0 161 0 +.055 .002 -.08 0 1 0 0 0 1 .0015875 16 160 957 0
 ?24 147 0 360 0 0 1 17 24 0 23 21 141 142 148 160 0 25 +17 128 0 350 191 148 12
6 154 159 0 189 +17 191 0 350 76 128 123 189 198 0 194 -17 189 0 186 158 125 126
 191 198 0 156 +17 156 0 153 154 36 126 158 192 0 0 +19 13 95 0 1 0 8 4 S0 74 4
 CI16 index_map_offset0 0 1 dCCZ20 11 2 0 0 547 469 0 0 0 0 0 0 0 0 0 0 0 0 0 0
 0 0 0 0 1 0 
