**ABCDEFGHIJKLMNOPQRSTUVWXYZabcdefghijklmnopqrstuvwxyz**************************
**PARASOLID !"#$%&'()*+,-./:;<=>?@[\]^_`{|}~0123456789**************************
**PART1;
MC=AMD64;
MC_MODEL=Intel64 Family 6 Model 58 Stepping 9, GenuineIntel;
MC_ID=unknown;
OS=Windows_NT;
OS_RELEASE=unknown;
FRU=Parasolid Version 27.0, build 199, 11-19-2014;
APPL=SOLIDWORKS 2015-2015063;
SITE=;
USER=unknown;
FORMAT=text;
GUISE=transmit;
KEY=Board;
FILE=Board.x_t;
DATE=Fri Sep 25 02:08:32 2015;
**PART2;
SCH=SCH_2700199_26105;
USFLD_SIZE=0;
**PART3;
**END_OF_HEADER*****************************************************************
T51 : TRANSMIT FILE created by modeller version 270019923 SCH_2700199_26105_1300
6196 0 12 30 CCCCCCCCCCCCCDI5 owner1040 0 CCCCCCCCCA13 boundary_mesh1006 0 A16 i
ndex_map_offset0 0 1 dA9 index_map82 0 A17 node_id_index_map82 0 A20 schema_embe
dding_map82 0 A5 child12 0 A14 lowest_node_id0 0 1 dZ1 326 0 2 0 0 0 0 1e3 1e-8
 0 3 0 1 0 1 1 4 5 6 7 8 9 10 0 0 0 0 0 0 0 70 11 CI9 list_type0 0 1 uI10 notran
smit0 0 1 lCCCDCCDI12 finger_index0 0 1 dI12 finger_block1012 0 CZ2 0 4 T1 0 0 2
 20 1 11 11 13 255 4 94 0 1 0 12 0 0 13 0 51 255 5 239 0 14 15 0 0 +.075 0 -.005
 0 1 0 .0018 0 0 1 31 255 6 247 0 9 16 0 0 +.075 .002 -.005 0 1 0 0 0 1 .0018 29
 255 7 70 0 17 18 0 0 0 -.08 19 8 CCCCCCCA5 owner12 0 Z8 28 0 1 13 0 19 V0 16 25
5 9 246 0 ?20 0 21 6 0 0 1 18 255 10 25 0 22 0 23 24 ?1 17 255 22 0 25 26 27 10
 28 29 0 30 +18 23 22 0 27 10 31 32 ?1 29 24 27 0 10 32 33 0 .002 -.08 29 32 24
 0 23 34 24 .08 .002 -.08 29 33 73 0 35 24 36 0 0 0 18 35 64 0 37 38 0 33 ?1 29
 36 72 0 38 33 18 .08 0 0 18 38 63 0 39 40 35 36 ?1 29 18 71 0 40 36 7 .08 0 -.0
8 18 40 62 0 41 17 38 18 ?1 17 41 0 42 43 44 40 45 46 0 47 +18 17 61 0 48 49 40
 7 ?1 17 48 0 50 30 47 17 51 52 0 53 +18 49 16 0 54 31 17 55 ?1 17 54 0 56 57 58
 49 59 60 0 26 -18 31 19 0 59 23 49 34 ?1 29 55 18 0 49 0 34 0 .002 0 29 34 21 0
 31 55 32 .08 .002 0 17 59 0 25 27 26 31 54 60 0 58 +15 255 25 3 0 26 61 62 17 2
7 0 25 22 59 23 63 64 0 43 +17 26 0 25 59 22 49 65 66 0 67 +16 60 7 0 ?59 64 66
 68 0 0 1 17 58 0 56 54 39 31 44 69 0 63 -15 56 82 0 39 70 0 17 39 0 56 58 57 38
 37 71 0 44 +17 44 0 42 41 63 38 58 69 0 45 +16 69 76 0 ?44 72 73 74 0 0 1 17 63
 0 42 44 43 31 27 64 0 0 -15 42 80 0 41 75 0 17 43 0 42 63 41 23 47 73 0 28 -16
 64 10 0 ?27 29 60 76 0 0 1 16 29 13 0 ?22 77 64 78 0 0 1 30 255 76 11 0 64 68 7
8 0 +.08 .002 0 0 0 -1 30 68 8 0 60 79 76 0 +0 .002 0 1 0 0 30 78 14 0 29 76 80
 0 +0 .002 -.08 -1 0 0 30 80 69 0 81 78 82 0 +0 0 0 0 0 1 16 81 57 0 ?83 71 84 8
0 0 0 1 30 82 68 0 71 80 85 0 +0 0 0 1 0 0 16 71 53 0 ?39 46 81 82 0 0 1 30 85 6
7 0 46 82 86 0 +.08 0 0 0 0 -1 16 46 49 0 ?41 52 71 85 0 0 1 30 86 66 0 52 85 87
 0 +0 0 -.08 -1 0 0 16 52 45 0 ?48 66 46 86 0 0 1 30 87 86 0 77 86 88 0 +0 .002
 -.08 0 -1 0 16 77 74 0 ?53 73 29 87 0 0 1 30 88 87 0 73 87 74 0 +.08 .002 -.08
 0 -1 0 16 73 75 0 ?47 69 77 88 0 0 1 30 74 88 0 69 88 89 0 +.08 .002 0 0 -1 0 3
0 89 89 0 72 74 90 0 +0 .002 0 0 -1 0 16 72 77 0 ?57 91 69 89 0 0 1 31 90 226 0
 91 89 92 0 +.005 0 -.005 0 1 0 0 0 1 .0018 16 91 225 0 ?93 94 72 90 0 0 1 31 92
 229 0 94 90 16 0 +.005 .002 -.005 0 1 0 0 0 1 .0018 16 94 228 0 ?95 21 91 92 0
 0 1 31 16 244 0 21 92 6 0 +.075 0 -.005 0 1 0 0 0 1 .0018 16 21 243 0 ?96 9 94
 16 0 0 1 17 96 0 97 96 96 0 98 21 0 0 +15 97 235 0 96 99 0 17 98 0 100 98 98 0
 96 21 0 0 -15 100 241 0 98 14 101 14 255 14 238 102 ?0 103 100 4 5 -0 0 0 103 1
9 15 101 242 0 20 14 0 17 20 0 101 20 20 0 104 9 0 0 +17 104 0 105 104 104 0 20
 9 0 0 -15 105 237 0 104 61 0 14 61 1 106 ?99 107 108 4 109 -0 0 99 107 19 81 25
5 1 106 318 110 61 111 0 102 112 113 14 99 43 112 ?114 61 115 4 116 +0 0 114 61
 19 14 107 79 117 ?61 75 50 4 118 -0 0 61 75 19 15 108 191 0 119 61 120 50 255 1
09 2 0 61 121 116 0 +0 .002 0 0 -1 0 0 0 -1 13 19 29 0 0 0 0 0 0 8 12 14 12 85 1
22 ?70 0 123 4 124 -0 0 70 0 19 81 1 122 321 110 12 125 0 117 126 127 14 70 83 1
26 ?75 12 56 4 128 -0 0 75 12 19 15 123 84 0 83 12 0 50 124 93 0 12 128 15 0 +0
 .002 0 1 0 0 0 0 -1 50 128 92 0 70 129 124 0 +0 .002 0 0 0 -1 -1 0 0 51 15 221
 0 103 124 5 0 +.005 0 -.005 0 1 0 .0018 0 0 1 14 103 220 130 ?14 131 132 4 15 -
0 0 14 131 19 81 1 130 323 110 103 133 0 126 134 135 14 131 205 134 ?103 114 136
 4 137 -0 0 103 114 19 15 132 223 0 138 103 139 17 138 0 132 138 138 0 93 91 0 0
 -15 139 224 0 95 103 0 17 95 0 139 95 95 0 140 94 0 0 +17 140 0 62 140 140 0 95
 94 0 0 -15 62 219 0 140 61 105 17 93 0 141 93 93 0 138 91 0 0 +15 141 217 0 93
 99 97 81 1 134 324 110 131 142 0 130 143 144 14 114 155 143 ?131 99 145 4 121 -
0 0 131 99 19 15 136 207 0 146 131 147 51 137 213 0 131 0 121 0 +.075 0 -.075 0
 1 0 .0018 0 0 1 51 121 168 0 114 137 109 0 +.005 0 -.075 0 1 0 .0018 0 0 1 17 1
46 0 136 146 146 0 148 149 0 0 -15 147 208 0 150 131 0 17 150 0 147 150 150 0 11
9 151 0 0 +17 119 0 108 119 119 0 150 151 0 0 -16 151 197 0 ?150 152 149 153 0 0
 1 16 152 152 0 ?154 84 151 155 0 0 1 16 149 199 0 ?148 151 0 156 0 0 1 31 153 2
14 0 151 156 157 0 +.075 .002 -.075 0 1 0 0 0 1 .0018 31 156 215 0 149 0 153 0 +
.075 0 -.075 0 1 0 0 0 1 .0018 31 157 172 0 84 153 155 0 +.005 0 -.075 0 1 0 0 0
 1 .0018 16 84 149 0 ?158 81 152 157 0 0 1 31 155 171 0 152 157 79 0 +.005 .002
 -.075 0 1 0 0 0 1 .0018 30 79 5 0 66 155 68 0 +0 .002 0 0 0 1 16 66 4 0 ?26 60
 52 79 0 0 1 17 158 0 159 158 158 0 160 84 0 0 +15 159 138 0 158 99 161 17 160 0
 145 160 160 0 158 84 0 0 -15 145 158 0 160 114 162 15 162 159 0 154 114 0 17 15
4 0 162 154 154 0 163 152 0 0 +17 163 0 120 163 163 0 154 152 0 0 -15 120 143 0
 163 61 25 15 161 44 0 164 99 141 17 164 0 161 51 37 17 83 81 0 0 -17 51 0 161 4
5 164 40 48 52 0 0 -17 37 0 161 164 45 35 39 71 0 57 -17 83 0 123 67 53 35 164 8
1 0 0 +17 67 0 123 65 83 49 57 72 0 0 -17 53 0 123 83 65 17 30 77 0 164 +17 65 0
 123 53 67 10 26 66 0 0 -17 30 0 50 28 48 10 53 77 0 65 -15 50 78 0 48 107 0 17
 28 0 50 47 30 23 22 29 0 0 -17 47 0 50 48 28 40 43 73 0 51 +17 57 0 56 39 54 35
 67 72 0 83 +17 45 0 161 37 51 38 41 46 0 0 -17 148 0 115 148 148 0 146 149 0 0
 +15 115 186 0 148 99 159 81 1 143 325 110 114 165 0 134 166 167 80 255 1 110 16
8 169 9000 1 1 1 1 1 1 1 1 0 FFFFTFTFFFFFFF1 81 1 165 291 170 114 0 143 171 142
 172 81 1 166 326 110 75 173 0 143 0 174 82 255 1 167 597753975 14 75 81 166 ?10
7 70 42 4 129 -0 0 107 70 19 81 1 173 287 170 75 0 166 175 176 177 82 1 174 -526
319512 80 1 170 0 178 8001 0 0 0 0 3 5 0 0 0 FFFFTFTFFFFFFF2 81 1 175 286 170 70
 0 126 125 173 179 81 1 176 288 170 107 0 117 173 111 180 83 255 3 177 .79215686
2745098 .819607843137255 .933333333333333 81 1 117 320 110 107 176 0 112 122 181
 81 1 111 289 170 61 0 106 176 171 182 83 3 180 .792156862745098 .81960784313725
5 .933333333333333 81 1 171 290 170 99 0 112 111 165 183 83 3 182 .7921568627450
98 .819607843137255 .933333333333333 81 1 112 319 110 99 171 0 106 117 184 83 3
 183 .792156862745098 .819607843137255 .933333333333333 82 1 184 24772728 82 1 1
81 -526581656 81 1 126 322 110 70 175 0 122 130 185 81 1 125 285 170 12 0 122 0
 175 186 83 3 179 .792156862745098 .819607843137255 .933333333333333 83 3 186 .7
92156862745098 .819607843137255 .933333333333333 82 1 185 -526057368 79 255 15 1
78 SDL/TYSA_COLOUR50 129 91 0 75 118 128 0 +.08 .002 0 -1 0 0 0 0 1 50 118 90 0
 107 116 129 0 +0 .002 -.08 0 0 1 1 0 0 50 116 65 0 99 109 118 0 +0 0 0 0 -1 0 0
 0 -1 81 1 142 292 170 131 0 134 165 133 187 83 3 172 .792156862745098 .81960784
3137255 .933333333333333 81 1 133 293 170 103 0 130 142 188 189 83 3 187 .792156
862745098 .819607843137255 .933333333333333 81 1 188 294 170 14 0 102 133 0 190
 83 3 189 .792156862745098 .819607843137255 .933333333333333 81 1 102 317 110 14
 188 0 0 106 191 83 3 190 .792156862745098 .819607843137255 .933333333333333 82
 1 191 610861176 79 14 169 SWEntUnchanged82 1 144 607125624 82 1 135 609419384 8
2 1 127 -525795224 82 1 113 24641656 19 13 95 0 1 0 8 4 S0 74 4 CI16 index_map_o
ffset0 0 1 dCCZ20 11 2 0 0 166 188 0 0 0 0 0 0 0 0 0 0 0 0 0 0 0 0 0 0 1 0 
