**ABCDEFGHIJKLMNOPQRSTUVWXYZabcdefghijklmnopqrstuvwxyz**************************
**PARASOLID !"#$%&'()*+,-./:;<=>?@[\]^_`{|}~0123456789**************************
**PART1;
MC=AMD64;
MC_MODEL=Intel64 Family 6 Model 58 Stepping 9, GenuineIntel;
MC_ID=unknown;
OS=Windows_NT;
OS_RELEASE=unknown;
FRU=Parasolid Version 27.0, build 199, 11-19-2014;
APPL=SOLIDWORKS 2015-2015063;
SITE=;
USER=unknown;
FORMAT=text;
GUISE=transmit;
KEY=BottomBoard;
FILE=BottomBoard.x_t;
DATE=Fri Sep 25 02:08:23 2015;
**PART2;
SCH=SCH_2700199_26105;
USFLD_SIZE=0;
**PART3;
**END_OF_HEADER*****************************************************************
T51 : TRANSMIT FILE created by modeller version 270019923 SCH_2700199_26105_1300
6196 0 12 30 CCCCCCCCCCCCCDI5 owner1040 0 CCCCCCCCCA13 boundary_mesh1006 0 A16 i
ndex_map_offset0 0 1 dA9 index_map82 0 A17 node_id_index_map82 0 A20 schema_embe
dding_map82 0 A5 child12 0 A14 lowest_node_id0 0 1 dZ1 1065 0 2 0 0 0 0 1e3 1e-8
 0 3 0 1 0 1 1 4 5 6 7 8 9 10 0 0 0 0 0 0 0 70 11 CI9 list_type0 0 1 uI10 notran
smit0 0 1 lCCCDCCDI12 finger_index0 0 1 dI12 finger_block1012 0 CZ2 0 4 T1 0 0 2
 20 1 11 11 13 255 4 94 0 1 0 12 0 0 13 0 51 255 5 239 0 14 15 0 0 +.075 0 -.005
 0 1 0 .0018 0 0 1 31 255 6 873 0 9 16 0 0 +.0685 -.0058 -.053 1 0 -462592926927
148e-30 -462592926927148e-30 0 -1 .00395 29 255 7 754 0 10 17 0 .0466 .002 -.008
 19 8 CCCCCCCA5 owner12 0 Z8 28 0 1 13 0 18 V0 16 255 9 870 0 ?19 0 20 6 0 0 1 1
8 255 10 752 0 21 0 22 7 ?1 17 255 21 0 23 24 25 10 26 27 0 28 -18 22 748 0 25 1
0 29 17 ?1 17 25 0 23 21 30 22 31 32 0 26 -18 29 741 0 30 22 33 34 ?1 29 17 750
 0 22 34 7 .072 .002 -.008 29 34 743 0 29 35 17 .072 .002 -.03985 29 35 572 0 33
 36 34 .008 .002 -.008 18 33 570 0 37 29 38 35 ?1 29 36 568 0 38 39 35 .042 .002
 -.008 18 38 566 0 40 33 41 36 ?1 29 39 561 0 41 42 36 .042 .002 -.032 18 41 559
 0 43 38 44 39 ?1 29 42 411 0 44 45 39 .00486369108776555 0 -.0767948314351062 1
8 44 410 0 46 41 47 42 ?1 29 45 295 0 47 48 42 .0115 0 -.075 18 47 293 0 49 44 5
0 45 ?1 29 48 291 0 50 51 45 .0685 0 -.075 18 50 289 0 52 47 53 48 ?1 29 51 284
 0 53 54 48 .0685 0 -.045 18 53 282 0 55 50 56 51 ?1 29 54 70 0 57 58 51 0 0 -.0
8 18 57 61 0 59 60 61 54 ?1 29 58 71 0 61 62 54 .08 0 -.08 18 61 62 0 63 57 64 5
8 ?1 29 62 72 0 64 65 58 .08 0 0 18 64 63 0 66 61 67 62 ?1 29 65 73 0 67 68 62 0
 0 0 18 67 64 0 69 64 70 65 ?1 29 68 27 0 56 71 65 0 .002 -.08 18 56 25 0 72 53
 73 68 ?1 29 71 24 0 73 74 68 .08 .002 -.08 18 73 22 0 75 56 76 71 ?1 29 74 21 0
 76 77 71 .08 .002 0 18 76 19 0 78 73 60 74 ?1 29 77 18 0 60 79 74 0 .002 0 18 6
0 16 0 80 76 57 77 ?1 29 79 385 0 81 82 77 .0115 0 -.045 18 81 333 0 83 84 85 79
 ?1 29 82 386 0 70 86 79 .0115 -.0128 -.075 18 70 332 0 87 67 88 82 ?1 29 86 387
 0 88 89 82 .0685 -.0128 -.075 18 88 334 0 90 70 91 86 ?1 29 89 388 0 91 92 86 .
0685 -.0128 -.045 18 91 336 0 93 88 84 89 ?1 29 92 389 0 84 94 89 .0115 -.0128 -
.045 18 84 338 0 95 91 81 92 ?1 29 94 484 0 85 96 92 .003860891670855155 0 -.076
3937116683421 18 85 454 0 97 81 98 94 ?1 29 96 486 0 98 99 94 .00386089167085515
5 .002 -.0763937116683421 18 98 453 0 100 85 101 96 ?1 29 99 487 0 101 102 96 .0
0486369108776555 .002 -.0767948314351062 18 101 456 0 103 98 104 99 ?1 29 102 65
9 0 105 106 99 .008 .002 -.032 18 105 612 0 107 108 109 102 ?1 29 106 663 0 104
 110 102 .008 .007 -.032 18 104 615 0 111 101 112 106 ?1 29 110 664 0 112 113 10
6 .042 .007 -.032 18 112 614 0 114 104 115 110 ?1 29 113 665 0 115 116 110 .042
 .007 -.008 18 115 613 0 117 112 108 113 ?1 29 116 666 0 108 118 113 .008 .007 -
.008 18 108 610 0 119 115 105 116 ?1 29 118 841 0 120 121 116 .0466 .002 -.03985
 18 120 794 0 24 122 0 118 ?1 29 121 845 0 109 123 118 .0466 .00575 -.03985 18 1
09 797 0 124 105 125 121 ?1 29 123 846 0 125 126 121 .072 .00575 -.03985 18 125
 796 0 127 109 128 123 ?1 29 126 847 0 128 129 123 .072 .00575 -.008 18 128 795
 0 130 125 122 126 ?1 29 129 848 0 122 0 126 .0466 .00575 -.008 18 122 792 0 131
 128 120 129 ?1 17 131 0 132 28 133 122 130 134 0 135 -15 255 132 806 0 26 136 0
 17 28 0 132 26 131 10 137 138 0 139 +17 133 0 132 131 26 128 140 141 0 142 -17
 130 0 143 127 135 128 131 134 0 133 +16 134 782 0 ?130 144 145 146 0 0 1 17 135
 0 143 130 124 122 147 145 0 137 +15 143 817 0 135 148 0 17 124 0 143 135 127 10
9 149 150 0 151 +17 147 0 152 153 137 109 135 145 0 0 -16 145 779 0 ?135 134 154
 155 0 0 1 17 137 0 152 147 139 122 28 138 0 0 -15 152 802 0 139 156 0 17 139 0
 152 137 153 10 24 157 0 0 +16 138 770 0 ?28 158 141 159 0 0 1 16 158 694 0 ?160
 161 138 162 0 0 1 16 141 774 0 ?140 138 163 164 0 0 1 30 255 159 829 0 138 164
 165 0 +.0466 .00575 -.008 0 -1 0 30 164 830 0 141 166 159 0 +.072 .00575 -.008
 0 -1 0 31 165 717 0 161 159 162 0 +.018 .015 -.02 0 1 0 0 0 1 .005 16 161 697 0
 ?167 168 158 165 0 0 1 31 162 716 0 158 165 169 0 +.018 .007 -.02 0 1 0 0 0 1 .
005 30 169 658 0 170 162 171 0 +.008 .007 -.032 578241158658936e-30 0 1 16 170 5
97 0 ?172 173 174 169 0 0 1 30 171 657 0 173 169 175 0 +.008 .007 -.008 1 0 0 16
 173 600 0 ?117 176 170 171 0 0 1 30 175 656 0 176 171 177 0 +.042 .007 -.032 -2
89120579329468e-30 0 -1 16 176 603 0 ?114 178 173 175 0 0 1 30 177 655 0 178 175
 179 0 +.008 .007 -.032 -1 0 0 16 178 606 0 ?111 180 176 177 0 0 1 30 179 654 0
 168 177 181 0 +.008 .002 -.032 578241158658936e-30 0 1 16 168 581 0 ?182 183 16
1 179 0 0 1 30 181 653 0 183 179 184 0 +.008 .002 -.008 1 0 0 16 183 585 0 ?185
 186 168 181 0 0 1 30 184 652 0 186 181 187 0 +.042 .002 -.032 -289120579329468e
-30 0 -1 16 186 589 0 ?188 174 183 184 0 0 1 30 187 651 0 174 184 189 0 +.008 .0
02 -.032 -1 0 0 16 174 593 0 ?190 170 186 187 0 0 1 30 189 650 0 180 187 191 0 +
.008 .007 -.032 0 -1 0 16 180 584 0 ?192 193 178 189 0 0 1 30 191 649 0 193 189
 194 0 +.042 .007 -.032 0 -1 0 16 193 596 0 ?195 196 180 191 0 0 1 30 194 648 0
 196 191 197 0 +.042 .007 -.008 0 -1 0 16 196 592 0 ?198 199 193 194 0 0 1 30 19
7 647 0 199 194 200 0 +.008 .007 -.008 0 -1 0 16 199 588 0 ?201 202 196 197 0 0
 1 31 200 542 0 202 197 203 0 +.004 .002 -.0525 0 -1 0 0 0 -1 .001115 16 202 514
 0 ?204 205 199 200 0 0 1 31 203 483 0 206 200 207 0 +.004 .002 -.0775 0 -1 0 0
 0 -1 .001115 16 206 441 0 ?208 209 205 203 0 0 1 31 207 480 0 209 203 210 0 +.0
04 0 -.0775 0 -1 0 0 0 -1 .001115 16 209 445 0 ?46 211 206 207 0 0 1 30 210 381
 0 212 207 213 0 +.0115 -.0128 -.075 1156482317317872e-31 0 1 16 212 304 0 ?214
 215 216 210 0 0 1 30 213 380 0 215 210 217 0 +.0115 -.0128 -.045 1 0 0 16 215 3
16 0 ?218 219 212 213 0 0 1 30 217 379 0 219 213 220 0 +.0685 -.0128 -.075 -4625
92926927148e-30 0 -1 16 219 312 0 ?221 222 215 217 0 0 1 30 220 378 0 222 217 22
3 0 +.0115 -.0128 -.075 -1 0 2434699615406045e-31 16 222 308 0 ?224 225 219 220
 0 0 1 30 223 377 0 211 220 226 0 +.0115 0 -.075 1156482317317872e-31 0 1 16 211
 320 0 ?83 227 209 223 0 0 1 30 226 376 0 227 223 228 0 +.0115 0 -.045 1 0 0 16
 227 323 0 ?55 229 211 226 0 0 1 30 228 375 0 229 226 230 0 +.0685 0 -.075 -4625
92926927148e-30 0 -1 16 229 326 0 ?52 216 227 228 0 0 1 30 230 374 0 216 228 231
 0 +.0115 0 -.075 -1 0 2434699615406045e-31 16 216 329 0 ?49 212 229 230 0 0 1 3
0 231 373 0 232 230 233 0 +.0115 -.0128 -.075 0 1 0 16 232 311 0 ?234 235 236 23
1 0 0 1 30 233 372 0 236 231 237 0 +.0685 -.0128 -.075 0 1 0 16 236 315 0 ?238 2
32 239 233 0 0 1 30 237 371 0 239 233 240 0 +.0685 -.0128 -.045 0 1 0 16 239 319
 0 ?241 236 225 237 0 0 1 30 240 370 0 225 237 242 0 +.0115 -.0128 -.045 0 1 0 1
6 225 307 0 ?243 239 222 240 0 0 1 31 242 215 0 235 240 244 0 +.075 0 -.075 0 1
 0 0 0 1 .0018 16 235 199 0 ?245 246 232 242 0 0 1 31 244 214 0 246 242 247 0 +.
075 .002 -.075 0 1 0 0 0 1 .0018 16 246 197 0 ?248 249 235 244 0 0 1 31 247 172
 0 250 244 251 0 +.005 0 -.075 0 1 0 0 0 1 .0018 16 250 413 0 ?252 253 249 247 0
 0 1 31 251 171 0 249 247 254 0 +.005 .002 -.075 0 1 0 0 0 1 .0018 16 249 418 0
 ?255 250 246 251 0 0 1 30 254 5 0 256 251 257 0 +0 .002 0 0 0 1 16 256 4 0 ?258
 259 260 254 0 0 1 30 257 8 0 259 254 261 0 +0 .002 0 1 0 0 16 259 7 0 ?78 262 2
56 257 0 0 1 30 261 11 0 262 257 263 0 +.08 .002 0 0 0 -1 16 262 10 0 ?75 264 25
9 261 0 0 1 30 263 14 0 264 261 265 0 +0 .002 -.08 -1 0 0 16 264 13 0 ?72 266 26
2 263 0 0 1 30 265 69 0 253 263 267 0 +0 0 0 0 0 1 16 253 57 0 ?268 269 250 265
 0 0 1 30 267 68 0 269 265 270 0 +0 0 0 1 0 0 16 269 53 0 ?66 271 253 267 0 0 1
 30 270 67 0 271 267 272 0 +.08 0 0 0 0 -1 16 271 49 0 ?63 260 269 270 0 0 1 30
 272 66 0 260 270 273 0 +0 0 -.08 -1 0 0 16 260 45 0 ?59 256 271 272 0 0 1 30 27
3 86 0 266 272 274 0 +0 .002 -.08 0 -1 0 16 266 74 0 ?275 276 264 273 0 0 1 30 2
74 87 0 276 273 277 0 +.08 .002 -.08 0 -1 0 16 276 75 0 ?278 279 266 274 0 0 1 3
0 277 88 0 279 274 280 0 +.08 .002 0 0 -1 0 16 279 76 0 ?281 282 276 277 0 0 1 3
0 280 89 0 282 277 283 0 +0 .002 0 0 -1 0 16 282 77 0 ?284 285 279 280 0 0 1 31
 283 226 0 285 280 286 0 +.005 0 -.005 0 1 0 0 0 1 .0018 16 285 225 0 ?287 288 2
82 283 0 0 1 31 286 229 0 288 283 289 0 +.005 .002 -.005 0 1 0 0 0 1 .0018 16 28
8 228 0 ?290 291 285 286 0 0 1 31 289 244 0 291 286 292 0 +.075 0 -.005 0 1 0 0
 0 1 .0018 16 291 243 0 ?293 294 288 289 0 0 1 31 292 247 0 294 289 295 0 +.075
 .002 -.005 0 1 0 0 0 1 .0018 16 294 246 0 ?296 297 291 292 0 0 1 30 295 421 0 2
97 292 298 0 +.00486369108776555 -.0054 -.0767948314351062 0 -1 0 16 297 420 0 ?
299 20 294 295 0 0 1 30 298 424 0 20 295 16 0 -.003860891670855155 -.0054 -.0763
937116683421 0 -1 0 16 20 422 0 ?300 9 297 298 0 0 1 31 16 501 0 205 298 6 0 +.0
04 0 -.0525 0 -1 0 0 0 -1 .001115 16 205 513 0 ?301 206 202 16 0 0 1 17 301 0 30
2 301 301 0 303 205 0 0 +15 302 528 0 301 304 305 17 303 0 306 303 303 0 301 205
 0 0 -15 306 500 0 303 307 308 14 255 307 43 309 ?310 311 306 4 312 +0 0 310 311
 18 15 308 429 0 313 307 314 17 313 0 308 252 252 85 46 209 0 315 -15 314 298 0
 83 307 316 17 83 0 314 55 49 81 317 211 0 243 +15 316 186 0 245 307 318 17 245
 0 316 245 245 0 319 235 0 0 +15 318 44 0 320 307 321 17 320 0 318 322 69 57 268
 253 0 0 -15 321 217 0 287 307 323 17 287 0 321 287 287 0 324 285 0 0 +15 323 23
5 0 293 307 0 17 293 0 323 293 293 0 325 291 0 0 +17 325 0 326 325 325 0 293 291
 0 0 -15 326 241 0 325 14 327 14 14 238 328 ?329 330 326 4 5 -0 0 329 330 18 15
 327 242 0 296 14 0 17 296 0 327 296 296 0 331 294 0 0 +17 331 0 332 331 331 0 2
96 294 0 0 -15 332 237 0 331 12 23 14 12 759 333 ?334 0 335 4 336 -0 0 334 0 18
 15 23 757 0 24 12 0 17 24 0 23 30 21 120 139 157 0 337 -17 30 0 23 25 24 29 337
 154 0 31 -16 157 763 0 ?139 27 338 339 0 0 1 17 337 0 340 151 341 120 30 154 0
 153 +15 340 814 0 337 342 0 17 151 0 340 149 337 109 153 343 0 147 -17 341 0 34
0 337 149 29 344 163 0 0 +16 154 775 0 ?337 145 32 345 0 0 1 17 153 0 152 139 14
7 120 151 343 0 0 +16 343 766 0 ?153 163 150 346 0 0 1 16 163 778 0 ?341 141 343
 166 0 0 1 16 150 788 0 ?124 343 144 347 0 0 1 30 346 832 0 343 345 166 0 +.0466
 .00575 -.03985 0 -1 0 30 345 833 0 154 348 346 0 +.0466 .002 -.03985 -1 0 27318
4799366426e-30 30 166 831 0 163 346 164 0 +.072 .00575 -.03985 0 -1 0 30 348 834
 0 32 349 345 0 +.072 .002 -.03985 435723322066388e-30 0 -1 16 32 771 0 ?31 154
 27 348 0 0 1 30 349 835 0 27 339 348 0 +.0466 .002 -.008 1 0 0 16 27 767 0 ?26
 32 157 349 0 0 1 30 339 836 0 157 347 349 0 +.0466 .002 -.03985 0 0 1 30 347 83
7 0 150 350 339 0 +.0466 .00575 -.03985 -1 0 273184799366426e-30 30 350 838 0 14
4 146 347 0 +.072 .00575 -.03985 435723322066388e-30 0 -1 16 144 785 0 ?127 150
 134 350 0 0 1 30 146 839 0 134 155 350 0 +.0466 .00575 -.008 1 0 0 30 155 840 0
 145 351 146 0 +.0466 .00575 -.03985 0 0 1 31 351 900 0 338 0 155 0 +.3685 -.005
8 -.053 -1 0 462592926927148e-30 462592926927148e-30 0 1 .00395 16 338 877 0 ?35
2 157 0 351 0 0 1 17 352 0 353 352 352 0 354 338 0 0 +15 353 886 0 352 355 356 1
7 354 0 357 354 354 0 352 338 0 0 -15 357 890 0 354 358 0 14 358 888 359 ?0 355
 357 4 360 -0 0 0 355 18 81 255 1 359 1038 361 358 362 0 333 363 364 14 355 883
 363 ?358 148 353 4 365 +0 0 358 148 18 50 255 360 898 0 358 0 365 0 +.3685 -.00
58 -.053 -1 0 462592926927148e-30 462592926927148e-30 0 1 13 18 29 0 0 0 0 0 0 8
 12 51 365 896 0 355 360 366 0 +.3685 -.0058 -.053 -1 0 462592926927148e-30 .003
95 462592926927148e-30 0 1 50 366 828 0 148 365 367 0 +0 .00575 0 0 1 0 0 0 1 14
 148 815 368 ?355 342 143 4 366 +0 0 355 342 18 50 367 826 0 342 366 369 0 +.046
6 .00575 -.03985 273184799366426e-30 0 1 1 0 -273184799366426e-30 14 342 811 370
 ?148 371 340 4 367 -0 0 148 371 18 50 369 825 0 371 367 372 0 +.072 .00575 -.03
985 -1 0 -435723322066388e-30 -435723322066388e-30 0 1 14 371 807 373 ?342 136 3
74 4 369 -0 0 342 136 18 50 372 824 0 136 369 375 0 +.0466 .00575 -.008 0 0 -1 -
1 0 0 14 136 803 376 ?371 156 132 4 372 -0 0 371 156 18 50 375 823 0 156 372 377
 0 +.0466 .00575 -.03985 1 0 0 0 0 -1 14 156 799 378 ?136 379 152 4 375 -0 0 136
 379 18 50 377 715 0 379 375 380 0 +.018 .015 -.02 0 1 0 0 0 1 14 379 705 381 ?1
56 382 383 4 377 +0 0 156 382 18 51 380 713 0 382 377 384 0 -.018 .015 -.02 0 -1
 0 .005 0 0 -1 14 382 700 385 ?379 386 387 4 380 -0 0 379 386 18 50 384 646 0 38
6 380 388 0 +0 .007 0 0 1 0 0 0 1 14 386 633 389 ?382 390 391 4 384 +0 0 382 390
 18 50 388 644 0 390 384 392 0 +.008 .007 -.032 0 0 1 1 0 0 14 390 629 393 ?386
 394 395 4 388 -0 0 386 394 18 50 392 643 0 394 388 396 0 +.042 .007 -.032 -1 0
 289120579329468e-30 289120579329468e-30 0 1 14 394 625 397 ?390 398 399 4 392 -
0 0 390 398 18 50 396 642 0 398 392 400 0 +.008 .007 -.008 0 0 -1 -1 0 0 14 398
 621 401 ?394 402 403 4 396 -0 0 394 402 18 50 400 641 0 402 396 404 0 +.008 .00
7 -.032 1 0 -578241158658936e-30 -578241158658936e-30 0 -1 14 402 617 405 ?398 3
04 406 4 400 -0 0 398 304 18 51 404 538 0 304 400 407 0 +.004 .002 -.0525 0 -1 0
 .001115 0 0 -1 14 304 525 408 ?402 409 302 4 404 -0 0 402 409 18 51 407 477 0 4
09 404 410 0 +.004 .002 -.0775 0 -1 0 .001115 0 0 -1 14 409 457 411 ?304 412 413
 4 407 -0 0 304 412 18 50 410 369 0 412 407 414 0 +0 -.0128 0 0 1 0 0 0 1 14 412
 356 415 ?409 416 417 4 410 -0 0 409 416 18 50 414 367 0 418 410 419 0 +.0115 -.
0128 -.075 -2434699615406045e-31 0 -1 -1 0 2434699615406045e-31 14 418 344 420 ?
421 329 422 4 414 +0 0 421 329 18 50 419 366 0 421 414 423 0 +.0685 -.0128 -.075
 1 0 -462592926927148e-30 -462592926927148e-30 0 -1 14 421 348 424 ?416 418 425
 4 419 +0 0 416 418 18 50 423 365 0 416 419 426 0 +.0115 -.0128 -.045 0 0 1 1 0
 0 14 416 352 427 ?412 421 428 4 423 +0 0 412 421 18 50 426 364 0 329 423 429 0
 +.0115 -.0128 -.075 -1 0 1156482317317872e-31 1156482317317872e-31 0 1 14 329 3
40 430 ?418 14 431 4 426 +0 0 418 14 18 51 429 213 0 432 426 433 0 +.075 0 -.075
 0 1 0 .0018 0 0 1 14 432 205 434 ?330 310 435 4 429 -0 0 330 310 18 51 433 168
 0 310 429 336 0 +.005 0 -.075 0 1 0 .0018 0 0 1 14 310 155 436 ?432 307 437 4 4
33 -0 0 432 307 18 50 336 2 0 12 433 312 0 +0 .002 0 0 -1 0 0 0 -1 50 312 65 0 3
07 336 438 0 +0 0 0 0 -1 0 0 0 -1 50 438 90 0 311 312 439 0 +0 .002 -.08 0 0 1 1
 0 0 14 311 79 440 ?307 441 442 4 438 -0 0 307 441 18 50 439 91 0 441 438 443 0
 +.08 .002 0 -1 0 0 0 0 1 14 441 81 444 ?311 445 446 4 439 -0 0 311 445 18 50 44
3 92 0 445 439 447 0 +0 .002 0 0 0 -1 -1 0 0 14 445 83 448 ?441 334 449 4 443 -0
 0 441 334 18 50 447 93 0 334 443 15 0 +0 .002 0 1 0 0 0 0 -1 14 334 85 450 ?445
 12 451 4 447 -0 0 445 12 18 51 15 221 0 330 447 5 0 +.005 0 -.005 0 1 0 .0018 0
 0 1 14 330 220 452 ?14 432 453 4 15 -0 0 14 432 18 81 1 452 1065 361 330 454 0
 450 0 455 15 453 223 0 324 330 456 17 324 0 453 324 324 0 287 285 0 0 -15 456 2
24 0 290 330 0 17 290 0 456 290 290 0 457 288 0 0 +17 457 0 458 457 457 0 290 28
8 0 0 -15 458 219 0 457 12 332 80 255 1 361 459 460 9000 1 1 1 1 1 1 1 1 0 FFFFT
FTFFFFFFF1 81 1 454 948 461 330 0 452 462 463 464 81 1 450 1064 361 334 465 0 44
8 452 466 82 255 1 455 609419384 81 1 465 941 461 334 0 450 467 468 469 81 1 448
 1063 361 445 468 0 444 450 470 82 1 466 -525795224 81 1 468 942 461 445 0 448 4
65 471 472 81 1 444 1062 361 441 471 0 440 448 473 82 1 470 -526057368 81 1 471
 943 461 441 0 444 468 474 475 81 1 440 1061 361 311 474 0 436 444 476 82 1 473
 -526319512 81 1 474 944 461 311 0 440 471 477 478 81 1 436 1060 361 310 479 0 4
34 440 480 82 1 476 -526581656 81 1 479 946 461 310 0 436 477 462 481 81 1 434 1
059 361 432 462 0 430 436 482 82 1 480 241500398 81 1 462 947 461 432 0 434 479
 454 483 81 1 430 1058 361 329 484 0 427 434 485 82 1 482 607125624 81 1 484 950
 461 329 0 430 463 486 487 81 1 427 1057 361 416 488 0 424 430 489 82 1 485 -777
387797 81 1 488 953 461 416 0 427 490 491 492 81 1 424 1056 361 421 490 0 420 42
7 493 82 1 489 -777518869 81 1 490 952 461 421 0 424 486 488 494 81 1 420 1055 3
61 418 486 0 415 424 495 82 1 493 -777649917 81 1 486 951 461 418 0 420 484 490
 496 81 1 415 1054 361 412 491 0 411 420 497 82 1 495 -777781013 81 1 491 954 46
1 412 0 415 488 498 499 81 1 411 1053 361 409 498 0 408 415 500 82 1 497 -784334
613 81 1 498 955 461 409 0 411 491 501 502 81 1 408 1052 361 304 501 0 405 411 5
03 82 1 500 -755695378 81 1 501 956 461 304 0 408 498 504 505 81 1 405 1051 361
 402 504 0 401 408 506 82 1 503 -747372305 81 1 504 957 461 402 0 405 501 507 50
8 81 1 401 1050 361 398 507 0 397 405 509 82 1 506 -717094671 81 1 507 958 461 3
98 0 401 504 510 511 81 1 397 1049 361 394 510 0 393 401 512 82 1 509 -717356815
 81 1 510 959 461 394 0 397 507 513 514 81 1 393 1048 361 390 513 0 389 397 515
 82 1 512 -717618959 81 1 513 960 461 390 0 393 510 516 517 81 1 389 1047 361 38
6 516 0 385 393 518 82 1 515 -717881103 81 1 516 961 461 386 0 389 513 519 520 8
1 1 385 1046 361 382 519 0 381 389 521 82 1 518 -724434701 81 1 519 962 461 382
 0 385 516 522 523 81 1 381 1045 361 379 522 0 378 385 524 82 1 521 -700972813 8
1 1 522 963 461 379 0 381 519 525 526 81 1 378 1044 361 156 525 0 376 381 527 82
 1 524 -702938893 81 1 525 964 461 156 0 378 522 528 529 81 1 376 1043 361 136 5
28 0 373 378 530 82 1 527 -668401419 81 1 528 965 461 136 0 376 525 531 532 81 1
 373 1042 361 371 531 0 370 376 533 82 1 530 -668663563 81 1 531 966 461 371 0 3
73 528 534 535 81 1 370 1041 361 342 534 0 368 373 536 82 1 533 -668925707 81 1
 534 967 461 342 0 370 531 537 538 81 1 368 1040 361 148 537 0 363 370 539 82 1
 536 -669187851 81 1 537 968 461 148 0 368 534 540 541 81 1 363 1039 361 355 540
 0 359 368 542 82 1 539 -675741451 81 1 540 969 461 355 0 363 537 362 543 82 1 5
42 308150531 80 1 461 0 544 8001 0 0 0 0 3 5 0 0 0 FFFFTFTFFFFFFF2 81 1 362 970
 461 358 0 359 540 0 545 83 255 3 543 .792156862745098 .819607843137255 .9333333
33333333 83 3 545 .792156862745098 .819607843137255 .933333333333333 79 255 15 5
44 SDL/TYSA_COLOUR83 3 541 .792156862745098 .819607843137255 .933333333333333 83
 3 538 .792156862745098 .819607843137255 .933333333333333 83 3 535 .792156862745
098 .819607843137255 .933333333333333 83 3 532 .792156862745098 .819607843137255
 .933333333333333 83 3 529 .792156862745098 .819607843137255 .933333333333333 83
 3 526 .792156862745098 .819607843137255 .933333333333333 83 3 523 .792156862745
098 .819607843137255 .933333333333333 83 3 520 .792156862745098 .819607843137255
 .933333333333333 83 3 517 .792156862745098 .819607843137255 .933333333333333 83
 3 514 .792156862745098 .819607843137255 .933333333333333 83 3 511 .792156862745
098 .819607843137255 .933333333333333 83 3 508 .792156862745098 .819607843137255
 .933333333333333 83 3 505 .792156862745098 .819607843137255 .933333333333333 83
 3 502 .792156862745098 .819607843137255 .933333333333333 83 3 499 .792156862745
098 .819607843137255 .933333333333333 83 3 496 .792156862745098 .819607843137255
 .933333333333333 83 3 494 .792156862745098 .819607843137255 .933333333333333 83
 3 492 .792156862745098 .819607843137255 .933333333333333 81 1 463 949 461 14 0
 328 454 484 546 83 3 487 .792156862745098 .819607843137255 .933333333333333 81
 1 328 1036 361 14 463 0 309 333 547 83 3 546 .792156862745098 .819607843137255
 .933333333333333 81 1 309 1035 361 307 477 0 0 328 548 81 1 333 1037 361 12 467
 0 328 359 549 82 1 547 610861176 81 1 467 940 461 12 0 333 0 465 550 82 1 549 -
663617291 83 3 550 .792156862745098 .819607843137255 .933333333333333 81 1 477 9
45 461 307 0 309 474 479 551 82 1 548 241697007 83 3 551 .792156862745098 .81960
7843137255 .933333333333333 83 3 483 .792156862745098 .819607843137255 .93333333
3333333 83 3 481 .792156862745098 .819607843137255 .933333333333333 83 3 478 .79
2156862745098 .819607843137255 .933333333333333 83 3 475 .792156862745098 .81960
7843137255 .933333333333333 83 3 472 .792156862745098 .819607843137255 .93333333
3333333 83 3 469 .792156862745098 .819607843137255 .933333333333333 83 3 464 .79
2156862745098 .819607843137255 .933333333333333 79 14 460 SWEntUnchanged15 451 8
4 0 268 334 0 17 268 0 451 552 275 67 320 253 0 0 +17 552 0 451 553 268 60 284 2
82 0 0 -17 275 0 451 268 553 57 554 266 0 320 +17 553 0 451 275 552 56 258 256 0
 0 -17 554 0 442 555 59 56 275 266 0 553 -15 442 78 0 59 311 0 17 555 0 442 278
 554 73 72 264 0 0 -17 59 0 442 554 278 57 322 260 0 275 +17 278 0 442 59 555 61
 556 276 0 322 +17 322 0 318 557 320 61 59 260 0 0 -17 557 0 318 69 322 64 63 27
1 0 0 -17 69 0 318 320 557 67 66 269 0 284 -17 63 0 446 556 281 61 557 271 0 278
 +15 446 80 0 63 441 0 17 556 0 446 558 63 73 278 276 0 555 -17 281 0 446 63 558
 64 559 279 0 557 +17 558 0 446 281 556 76 75 262 0 0 -17 559 0 449 80 66 76 281
 279 0 558 -15 449 82 0 66 445 0 17 80 0 449 284 559 60 78 259 0 258 -17 66 0 44
9 559 284 64 69 269 0 281 +17 284 0 449 66 80 67 552 282 0 268 +17 78 0 560 75 2
58 76 80 259 0 559 +17 258 0 560 78 72 60 553 256 0 552 +15 560 3 0 258 12 458 1
7 72 0 560 258 75 56 555 264 0 554 +17 75 0 560 72 78 73 558 262 0 556 +15 437 1
59 0 315 310 0 17 315 0 437 300 299 85 252 250 0 0 -17 300 0 437 255 315 98 97 2
0 0 561 +17 299 0 437 315 255 44 103 297 0 252 +17 252 0 308 313 313 44 315 250
 0 0 +17 255 0 437 299 300 101 561 249 0 0 +17 103 0 413 100 46 101 299 297 0 20
8 -15 413 460 0 46 409 0 17 100 0 413 97 103 98 208 206 0 300 -17 46 0 413 103 9
7 44 313 209 0 299 +17 208 0 562 561 561 101 100 206 0 255 +15 562 143 0 561 12
 560 17 561 0 562 208 208 98 255 249 0 0 -17 97 0 413 46 100 85 300 20 0 313 -15
 435 207 0 319 432 563 17 319 0 435 319 319 0 245 235 0 0 -15 563 208 0 248 432
 0 17 248 0 563 248 248 0 564 246 0 0 +17 564 0 565 564 564 0 248 246 0 0 -15 56
5 191 0 564 12 562 15 431 343 0 317 329 0 17 317 0 431 87 243 47 83 211 0 0 -17
 87 0 431 214 317 70 234 232 0 566 -17 243 0 431 317 214 81 95 225 0 567 +17 214
 0 431 243 87 84 566 212 0 0 +17 95 0 428 218 567 84 243 225 0 568 -17 567 0 428
 95 241 81 55 227 0 0 -15 428 355 0 567 416 0 17 241 0 428 567 218 53 93 239 0 5
69 +17 55 0 314 52 83 53 567 227 0 241 +17 52 0 314 49 55 50 569 229 0 238 +17 4
9 0 314 83 52 47 570 216 0 234 +17 569 0 571 93 238 53 52 229 0 0 -17 238 0 571
 569 221 50 90 236 0 570 +15 571 351 0 569 421 0 17 221 0 571 238 93 88 572 219
 0 573 +17 90 0 422 224 570 88 238 236 0 221 -17 570 0 422 90 234 50 49 216 0 0
 -15 422 347 0 570 418 0 17 234 0 422 570 224 47 87 232 0 317 +17 224 0 422 234
 90 70 573 222 0 0 +17 573 0 417 572 566 88 224 222 0 0 -15 417 358 0 566 412 0
 17 572 0 417 568 573 91 221 219 0 218 -17 566 0 417 573 568 70 214 212 0 224 -1
7 568 0 417 566 572 84 218 215 0 214 -17 218 0 428 241 95 91 568 215 0 0 +17 93
 0 571 221 569 91 241 239 0 572 -15 425 872 0 574 421 571 17 574 0 425 574 574 0
 19 9 0 0 -17 19 0 356 19 19 0 574 9 0 0 +15 356 887 0 19 355 0 15 406 620 0 182
 402 0 17 182 0 406 575 192 33 107 168 0 0 +17 575 0 406 576 182 108 201 199 0 0
 -17 192 0 406 182 576 105 577 180 0 0 +17 107 0 335 43 37 105 182 168 0 190 -15
 335 575 0 107 12 578 17 43 0 335 40 107 41 190 174 0 188 -17 37 0 335 107 40 33
 185 183 0 201 -17 190 0 395 577 195 105 43 174 0 192 +15 395 632 0 190 390 0 17
 577 0 395 579 190 104 192 180 0 576 -17 195 0 395 190 579 41 580 193 0 0 +17 57
9 0 395 195 577 112 111 178 0 0 -17 580 0 399 581 188 112 195 193 0 579 -15 399
 628 0 188 394 0 17 581 0 399 198 580 115 114 176 0 0 -17 188 0 399 580 198 41 4
0 186 0 195 +17 198 0 399 188 581 38 582 196 0 0 +17 40 0 335 37 43 38 188 186 0
 185 -17 185 0 403 582 201 38 37 183 0 198 +15 403 624 0 185 398 0 17 582 0 403
 119 185 115 198 196 0 581 -17 201 0 403 185 119 33 575 199 0 182 +17 119 0 403
 201 582 108 117 173 0 172 -17 117 0 583 114 172 115 119 173 0 582 +17 172 0 583
 117 111 108 576 170 0 575 +15 583 635 0 172 386 0 17 111 0 583 172 114 104 579
 178 0 577 +17 576 0 406 192 575 104 172 170 0 0 -17 114 0 583 111 117 112 581 1
76 0 580 +15 578 506 0 204 12 565 17 204 0 578 204 204 0 584 202 0 0 +17 584 0 3
05 584 584 0 204 202 0 0 -15 305 529 0 584 304 0 15 391 688 0 585 386 583 17 585
 0 391 585 585 0 160 158 0 0 -17 160 0 586 160 160 0 585 158 0 0 +15 586 704 0 1
60 382 0 15 387 703 0 587 382 586 17 587 0 387 587 587 0 167 161 0 0 -17 167 0 3
83 167 167 0 587 161 0 0 +15 383 707 0 167 379 0 15 374 810 0 31 371 0 17 31 0 3
74 344 140 29 25 32 0 341 +17 344 0 374 142 31 125 341 163 0 149 -17 140 0 374 3
1 142 22 133 141 0 0 +17 142 0 374 140 344 128 127 144 0 0 -17 127 0 143 124 130
 125 142 144 0 344 +17 149 0 340 341 151 125 124 150 0 0 -82 1 364 306184451 17
 26 0 132 133 28 22 21 27 0 140 +19 13 95 0 1 0 8 4 S0 74 4 CI16 index_map_offse
t0 0 1 dCCZ20 11 2 0 0 452 362 0 0 0 0 0 0 0 0 0 0 0 0 0 0 0 0 0 0 1 0 
