**ABCDEFGHIJKLMNOPQRSTUVWXYZabcdefghijklmnopqrstuvwxyz**************************
**PARASOLID !"#$%&'()*+,-./:;<=>?@[\]^_`{|}~0123456789**************************
**PART1;
MC=AMD64;
MC_MODEL=Intel64 Family 6 Model 58 Stepping 9, GenuineIntel;
MC_ID=unknown;
OS=Windows_NT;
OS_RELEASE=unknown;
FRU=Parasolid Version 27.0, build 199, 11-19-2014;
APPL=SOLIDWORKS 2015-2015063;
SITE=;
USER=unknown;
FORMAT=text;
GUISE=transmit;
KEY=Box;
FILE=Box.x_t;
DATE=Fri Sep 25 02:08:12 2015;
**PART2;
SCH=SCH_2700199_26105;
USFLD_SIZE=0;
**PART3;
**END_OF_HEADER*****************************************************************
T51 : TRANSMIT FILE created by modeller version 270019923 SCH_2700199_26105_1300
6196 0 12 30 CCCCCCCCCCCCCDI5 owner1040 0 CCCCCCCCCA13 boundary_mesh1006 0 A16 i
ndex_map_offset0 0 1 dA9 index_map82 0 A17 node_id_index_map82 0 A20 schema_embe
dding_map82 0 A5 child12 0 A14 lowest_node_id0 0 1 dZ1 1181 0 2 0 0 0 0 1e3 1e-8
 0 3 0 1 0 1 1 4 5 6 7 8 9 10 0 0 0 0 0 0 0 70 11 CI9 list_type0 0 1 uI10 notran
smit0 0 1 lCCCDCCDI12 finger_index0 0 1 dI12 finger_block1012 0 CZ2 0 4 T1 0 0 2
 20 1 11 11 13 255 4 94 0 1 0 12 0 0 13 0 51 255 5 974 0 14 15 0 0 -.085 .098 -.
015 0 -1 0 .001575 0 0 -1 31 255 6 1031 0 16 17 0 0 +.07 0 -.072 0 -1 0 0 0 -1 .
0075 29 255 7 510 0 10 18 0 .0915 .002 -.0915 19 8 CCCCCCCA5 owner12 0 Z8 28 0 1
 13 0 19 V0 16 255 9 981 0 ?20 0 21 17 0 0 1 18 255 10 508 0 22 0 23 7 ?1 17 255
 22 0 24 25 26 10 27 28 0 29 -18 23 505 0 26 10 30 18 ?1 17 26 0 24 22 31 23 32
 33 0 27 +18 30 401 0 34 23 35 36 ?1 29 18 507 0 23 36 7 .1 .002 -.0915 29 36 40
3 0 30 37 18 .0085 .002 -.0915 29 37 400 0 35 38 36 0 .002 -.0915 18 35 397 0 39
 30 40 37 ?1 29 38 396 0 40 41 37 .0085 .002 -.1 18 40 394 0 42 35 43 38 ?1 29 4
1 295 0 43 44 38 .0915 .002 -.0085 18 43 293 0 45 40 46 41 ?1 29 44 292 0 46 47
 41 .0915 .002 0 18 46 289 0 48 43 49 44 ?1 29 47 143 0 49 50 44 .0085 .002 0 18
 49 141 0 51 46 52 47 1e-8 1 29 50 138 0 52 53 47 0 .002 -.0085 18 52 136 0 54 4
9 55 50 1e-8 1 29 53 70 0 55 56 50 0 0 -.1 18 55 61 0 57 52 58 53 ?1 29 56 71 0
 58 59 53 .1 0 -.1 18 58 62 0 60 55 61 56 ?1 29 59 72 0 61 62 56 .1 0 0 18 61 63
 0 63 58 64 59 ?1 29 62 73 0 64 65 59 0 0 0 18 64 64 0 66 61 67 62 ?1 29 65 235
 0 68 69 62 .0085 .002 -.0085 18 68 186 0 70 71 72 65 ?1 29 69 238 0 67 73 65 0
 .098 -.0085 18 67 190 0 74 64 71 69 ?1 29 73 239 0 71 75 69 .0085 .098 -.0085 1
8 71 189 0 76 67 68 73 ?1 29 75 382 0 77 78 73 .1 .002 -.0085 18 77 333 0 32 79
 80 75 ?1 29 78 385 0 72 81 75 .0915 .098 -.0085 18 72 337 0 82 68 79 78 ?1 29 8
1 388 0 79 83 78 .0915 .098 0 18 79 332 0 84 72 77 81 ?1 29 83 494 0 80 85 81 .0
085 .098 -.1 18 80 444 0 86 77 87 83 ?1 29 85 495 0 87 88 83 .0085 .098 -.0915 1
8 87 443 0 89 80 90 85 ?1 29 88 496 0 90 91 85 0 .098 -.0915 18 90 440 0 92 87 9
3 88 ?1 29 91 596 0 94 95 88 .0915 .002 -.1 18 94 549 0 96 97 98 91 ?1 29 95 602
 0 93 99 91 .1 .098 -.0915 18 93 550 0 100 90 97 95 ?1 29 99 603 0 97 101 95 .09
15 .098 -.0915 18 97 547 0 102 93 94 99 ?1 29 101 786 0 98 103 99 .0085 .098 0 1
8 98 706 0 104 94 105 101 ?1 29 103 790 0 105 106 101 .1 .098 -.0085 18 105 708
 0 107 98 108 103 ?1 29 106 792 0 108 109 103 .0915 .098 -.1 18 108 718 0 110 10
5 111 106 ?1 29 109 797 0 111 112 106 0 .1 -.1 18 111 717 0 113 108 114 109 ?1 2
9 112 798 0 114 115 109 .1 .1 -.1 18 114 716 0 116 111 117 112 ?1 29 115 799 0 1
17 118 112 .1 .1 0 18 117 715 0 119 114 120 115 ?1 29 118 800 0 120 0 115 0 .1 0
 18 120 712 0 121 117 0 118 ?1 17 121 0 122 123 124 120 125 126 0 127 -15 255 12
2 831 0 121 128 129 17 123 0 122 130 121 111 131 132 0 0 -17 124 0 122 121 130 6
4 133 134 0 0 +17 125 0 135 63 127 64 121 126 0 124 +16 126 77 0 ?125 136 137 13
8 0 0 1 17 127 0 135 125 119 120 139 140 0 131 -15 135 82 0 63 141 0 17 119 0 13
5 127 63 117 142 137 0 139 -17 139 0 143 144 131 117 127 140 0 145 +16 140 688 0
 ?139 146 132 147 0 0 1 17 131 0 143 139 148 120 123 132 0 0 +15 143 749 0 131 1
49 0 17 148 0 143 131 144 111 150 151 0 123 +16 132 685 0 ?131 140 152 153 0 0 1
 16 152 678 0 ?154 132 155 156 0 0 1 30 255 153 780 0 132 157 147 0 +0 .1 0 0 0
 1 31 157 904 0 158 159 153 0 +.015 .098 -.085 0 1 0 0 0 1 .001575 30 147 779 0
 140 153 160 0 +0 .1 0 1 0 0 30 160 778 0 146 147 161 0 +.1 .1 0 0 0 -1 16 146 6
91 0 ?144 151 140 160 0 0 1 30 161 777 0 151 160 162 0 +0 .1 -.1 -1 0 0 16 151 6
94 0 ?148 163 146 161 0 0 1 30 162 776 0 164 161 165 0 +0 .098 0 0 0 1 16 164 64
8 0 ?166 167 158 162 0 0 1 30 165 775 0 167 162 168 0 +0 .098 0 1 0 0 16 167 658
 0 ?169 155 164 165 0 0 1 30 168 774 0 155 165 156 0 +.1 .098 0 0 0 -1 16 155 66
8 0 ?170 152 167 168 0 0 1 30 156 773 0 152 168 171 0 +0 .098 -.1 -1 0 0 30 171
 595 0 172 156 173 0 +.0915 .098 -.0915 0 0 1 16 172 534 0 ?174 175 28 171 0 0 1
 30 173 594 0 175 171 176 0 +.0915 .098 -.0915 1 0 0 16 175 537 0 ?177 178 172 1
73 0 0 1 30 176 591 0 163 173 179 0 +.0915 .002 -.0915 0 0 1 16 163 518 0 ?180 2
8 151 176 0 0 1 30 179 590 0 28 176 181 0 +.0915 .002 -.0915 1 0 0 16 28 522 0 ?
27 172 163 179 0 0 1 30 181 587 0 178 179 182 0 +.0915 .098 -.1 0 -1 0 16 178 52
1 0 ?183 184 175 181 0 0 1 30 182 585 0 184 181 185 0 +.1 .098 -.0915 0 -1 0 16
 184 529 0 ?186 187 178 182 0 0 1 30 185 584 0 187 182 188 0 +.0915 .098 -.0915
 0 -1 0 16 187 525 0 ?29 189 184 185 0 0 1 30 188 487 0 190 185 191 0 +0 .098 -.
0915 1 0 0 16 190 430 0 ?192 193 194 188 0 0 1 30 191 486 0 193 188 195 0 +.0085
 .098 -.0915 0 0 -1 16 193 433 0 ?196 197 190 191 0 0 1 30 195 483 0 189 191 198
 0 +0 .002 -.0915 1 0 0 16 189 415 0 ?199 194 187 195 0 0 1 30 198 482 0 194 195
 200 0 +.0085 .002 -.0915 0 0 -1 16 194 419 0 ?201 190 189 198 0 0 1 30 200 479
 0 197 198 202 0 +.0085 .098 -.1 0 -1 0 16 197 426 0 ?203 204 193 200 0 0 1 30 2
02 478 0 204 200 205 0 +.0085 .098 -.0915 0 -1 0 16 204 422 0 ?206 207 197 202 0
 0 1 30 205 477 0 207 202 208 0 +0 .098 -.0915 0 -1 0 16 207 418 0 ?209 210 204
 205 0 0 1 30 208 380 0 211 205 212 0 +.0915 .098 0 0 0 1 16 211 319 0 ?213 214
 215 208 0 0 1 30 212 377 0 214 208 216 0 +.0915 .098 -.0085 -1 0 0 16 214 328 0
 ?217 218 211 212 0 0 1 30 216 376 0 210 212 219 0 +.0915 .002 0 0 0 1 16 210 30
3 0 ?220 215 207 216 0 0 1 30 219 373 0 215 216 221 0 +.0915 .002 -.0085 -1 0 0
 16 215 315 0 ?222 211 210 219 0 0 1 30 221 372 0 218 219 223 0 +.0915 .098 -.00
85 0 -1 0 16 218 306 0 ?224 225 214 221 0 0 1 30 223 371 0 225 221 226 0 +.1 .09
8 -.0085 0 -1 0 16 225 318 0 ?227 228 218 223 0 0 1 30 226 369 0 228 223 229 0 +
.0915 .098 0 0 -1 0 16 228 310 0 ?230 231 225 226 0 0 1 30 229 231 0 232 226 233
 0 +.0085 .098 0 0 0 -1 16 232 178 0 ?234 235 236 229 0 0 1 30 233 230 0 235 229
 237 0 +0 .098 -.0085 -1 0 0 16 235 181 0 ?238 239 232 233 0 0 1 30 237 226 0 1
 233 240 241 +0 .002 -.0085 -1 0 0 30 240 224 0 242 237 243 0 +.0085 .098 -.0085
 0 -1 0 141 255 241 244 241 241 237 133 255 244 253 0 236 245 246 0 +237 .0085 .
002 -.0085 0 .002 -.0085 -.0085 0 16 236 168 0 ?247 232 231 244 0 0 1 30 245 248
 0 1 248 244 249 +.0085 .098 0 0 -1 0 133 246 254 0 239 244 250 0 +250 0 .098 -.
0085 0 .002 -.0085 0 .096 16 239 159 0 ?251 242 235 246 0 0 1 30 250 255 0 1 246
 252 253 +0 .098 -.0085 0 -1 0 133 252 399 0 254 250 255 0 +243 0 .002 -.0915 0
 .002 -.0085 -.0915 -.0085 141 253 246 253 253 250 16 254 398 0 ?54 256 257 252
 0 0 1 31 255 877 0 136 252 258 0 -.015 .002 -.085 0 -1 0 0 0 -1 .001575 30 243
 5 0 1 240 259 260 +0 .002 0 0 0 1 30 259 8 0 1 243 261 262 +0 .002 0 1 0 0 141
 260 252 260 260 243 30 261 11 0 33 259 263 0 +.1 .002 0 0 0 -1 141 262 264 262
 262 259 133 264 144 0 256 138 265 0 +259 .0085 .002 0 .0915 .002 0 .0085 .0915
 16 256 142 0 ?48 33 254 264 0 0 1 30 138 89 0 126 266 264 0 +0 .002 0 0 -1 0 13
3 265 243 0 231 264 267 0 +267 .0085 .002 0 .0085 .002 -.0085 0 .0085 16 231 164
 0 ?268 236 228 265 0 0 1 30 267 244 0 1 265 248 269 +.0085 .002 0 0 0 -1 133 24
8 247 0 270 267 245 0 +245 .0085 .098 0 .0085 .002 0 0 .096 141 269 265 269 269
 267 16 270 167 0 ?271 134 242 248 0 0 1 17 271 0 272 268 104 49 273 270 0 0 +16
 134 57 0 ?124 274 270 275 0 0 1 16 242 171 0 ?276 270 239 240 0 0 1 17 276 0 27
7 247 278 68 76 242 0 0 +15 277 207 0 247 279 0 17 247 0 277 74 276 52 70 236 0
 251 +17 278 0 277 276 74 71 238 235 0 234 -17 76 0 272 104 268 71 276 242 0 278
 -15 272 203 0 268 280 0 17 104 0 272 271 76 98 234 232 0 273 -17 268 0 272 76 2
71 68 51 231 0 276 +17 51 0 24 48 70 49 268 231 0 281 -15 24 513 0 25 12 282 17
 48 0 24 45 51 46 281 256 0 230 +17 70 0 24 51 54 68 247 236 0 268 -17 281 0 283
 273 230 49 48 256 0 271 -15 283 830 0 273 141 135 17 273 0 283 169 281 98 271 2
70 0 284 -17 230 0 283 281 169 46 84 228 0 220 +17 169 0 283 230 273 79 284 167
 0 0 +17 84 0 285 286 220 79 230 228 0 213 -17 220 0 285 84 224 46 45 210 0 0 +1
5 285 342 0 220 287 0 17 224 0 285 220 286 43 82 218 0 0 +17 45 0 24 31 48 43 22
0 210 0 222 -17 31 0 24 26 45 77 222 215 0 227 -17 222 0 288 82 227 43 31 215 0
 224 +15 288 354 0 222 289 0 17 82 0 288 107 222 72 224 218 0 286 -17 227 0 288
 222 107 77 290 225 0 0 +17 107 0 288 227 82 105 217 214 0 290 -17 290 0 291 170
 32 105 227 225 0 292 -15 291 828 0 290 293 294 17 170 0 291 186 290 93 292 155
 0 0 +17 32 0 291 290 186 77 26 33 0 31 -17 292 0 295 217 177 105 170 155 0 0 -1
5 295 721 0 234 296 297 17 217 0 295 213 292 72 107 214 0 0 +17 177 0 295 292 17
4 93 102 175 0 170 +17 174 0 295 177 298 97 110 172 0 0 +17 102 0 299 29 100 97
 177 175 0 300 -15 299 561 0 27 301 0 17 29 0 299 27 102 10 300 187 0 180 +17 10
0 0 299 102 27 93 186 184 0 177 -17 300 0 302 110 180 97 29 187 0 174 -15 302 55
7 0 180 303 0 17 110 0 302 183 300 108 174 172 0 304 -17 180 0 302 300 183 10 25
 163 0 0 +17 183 0 302 180 110 94 304 178 0 0 +17 25 0 24 42 22 94 180 163 0 183
 -17 42 0 24 34 25 40 96 305 0 201 +17 34 0 24 39 42 30 201 194 0 199 -17 96 0 3
06 304 203 94 42 305 0 25 -16 305 503 0 ?42 307 33 263 0 0 1 17 201 0 308 86 206
 40 34 194 0 203 +15 308 458 0 201 309 0 17 86 0 308 310 201 80 203 197 0 196 -1
7 206 0 308 201 310 30 89 204 0 0 +17 203 0 306 96 154 40 86 197 0 0 +15 306 78
 0 154 311 0 17 154 0 306 203 304 80 298 152 0 0 +17 304 0 306 154 96 108 183 17
8 0 298 -17 298 0 295 174 196 108 154 152 0 0 -17 196 0 295 298 192 80 310 193 0
 154 +17 192 0 295 196 312 87 92 190 0 0 +17 310 0 308 206 86 87 196 193 0 192 -
17 312 0 295 192 238 90 166 164 0 0 -17 92 0 313 209 89 90 192 190 0 314 -15 313
 454 0 199 315 0 17 209 0 313 199 92 35 314 207 0 0 +17 89 0 313 92 199 87 206 2
04 0 310 -17 314 0 129 166 316 90 209 207 0 312 -15 129 84 0 166 128 0 17 166 0
 129 251 314 67 312 164 0 0 +17 316 0 129 314 251 35 54 254 0 209 -17 251 0 129
 316 166 52 74 239 0 0 +17 54 0 24 70 39 52 316 254 0 247 +17 39 0 24 54 34 35 1
99 189 0 316 -17 199 0 313 89 209 30 39 189 0 206 +17 74 0 277 278 247 67 251 23
9 0 238 -17 238 0 295 312 234 67 278 235 0 166 +17 234 0 295 238 284 71 104 232
 0 0 +17 284 0 295 234 213 98 169 167 0 0 -17 213 0 295 284 217 79 286 211 0 169
 +17 286 0 285 224 84 72 213 211 0 217 -14 255 128 85 317 ?141 12 122 4 318 -0 0
 141 12 19 81 255 1 317 1161 319 128 320 0 0 321 322 14 141 83 321 ?293 128 283
 4 323 -0 0 293 128 19 14 12 515 324 ?128 0 325 4 326 -0 0 128 0 19 50 255 318 9
3 0 128 323 15 0 +0 .002 0 1 0 0 0 0 -1 13 19 29 0 0 0 0 0 0 8 12 50 323 92 0 14
1 327 318 0 +0 .002 0 0 0 -1 -1 0 0 51 15 956 0 328 318 5 0 -.015 .098 -.015 0 -
1 0 .001575 0 0 -1 14 328 955 329 ?14 330 331 4 15 -0 0 14 330 19 81 1 329 1164
 319 328 332 0 324 333 334 14 14 973 333 ?335 328 336 4 5 -0 0 335 328 19 14 330
 940 337 ?328 338 339 4 340 -0 0 328 338 19 15 331 958 0 341 328 342 17 341 0 33
1 341 341 0 343 344 0 0 -15 342 959 0 345 328 0 17 345 0 342 345 345 0 346 347 0
 0 +17 346 0 282 346 346 0 345 347 0 0 -16 347 963 0 ?345 21 344 348 0 0 1 16 21
 978 0 ?349 9 347 350 0 0 1 16 344 960 0 ?343 347 351 352 0 0 1 31 348 964 0 347
 352 350 0 -.015 .002 -.015 0 -1 0 0 0 -1 .001575 31 352 961 0 344 258 348 0 +.0
15 .098 -.015 0 1 0 0 0 1 .001575 31 350 979 0 21 348 17 0 +.085 .098 -.015 0 1
 0 0 0 1 .001575 31 17 982 0 9 350 6 0 -.085 .002 -.015 0 -1 0 0 0 -1 .001575 31
 258 928 0 351 255 352 0 -.085 .002 -.085 0 -1 0 0 0 -1 .001575 16 351 925 0 ?35
3 344 136 258 0 0 1 17 353 0 354 353 353 0 355 351 0 0 +16 136 874 0 ?356 351 12
6 255 0 0 1 17 356 0 357 356 356 0 358 136 0 0 +15 357 891 0 356 338 0 17 358 0
 359 358 358 0 356 136 0 0 -15 359 876 0 358 12 24 14 338 887 360 ?330 149 361 4
 362 -0 0 330 149 19 81 1 360 1167 319 338 363 0 337 364 365 14 149 747 364 ?338
 296 143 4 366 -0 0 338 296 19 15 361 890 0 367 338 357 51 362 900 0 338 340 366
 0 -.015 .098 -.085 0 -1 0 .001575 0 0 -1 51 340 948 0 330 368 362 0 -.085 .098
 -.085 0 -1 0 .001575 0 0 -1 50 366 760 0 149 362 369 0 +0 .1 0 0 -1 0 0 0 -1 50
 369 759 0 296 366 370 0 +0 .098 0 0 -1 0 0 0 -1 14 296 719 371 ?149 301 372 4 3
69 +0 0 149 301 19 50 370 579 0 301 369 373 0 +.0915 .098 -.0915 0 0 -1 -1 0 0 1
4 301 558 374 ?296 303 299 4 370 -0 0 296 303 19 50 373 578 0 303 370 375 0 +.09
15 .098 -.0915 1 0 0 0 0 -1 14 303 554 376 ?301 309 302 4 373 -0 0 301 309 19 50
 375 473 0 309 373 377 0 +.0085 .098 -.0915 -1 0 0 0 0 1 14 309 455 378 ?303 315
 308 4 375 -0 0 303 315 19 50 377 472 0 315 375 379 0 +0 .098 -.0915 0 0 -1 -1 0
 0 14 315 451 380 ?309 289 313 4 377 -0 0 309 289 19 50 379 366 0 289 377 381 0
 +.0915 .098 -.0085 0 0 1 1 0 0 14 289 351 382 ?315 287 288 4 379 -0 0 315 287 1
9 50 381 363 0 287 379 383 0 +.0915 .098 0 1 0 0 0 0 -1 14 287 339 384 ?289 279
 285 4 381 -0 0 289 279 19 50 383 219 0 279 381 385 0 +0 .098 -.0085 0 0 1 1 0 0
 14 279 204 386 ?287 280 277 4 383 -0 0 287 280 19 50 385 218 0 280 383 326 0 +.
0085 .098 0 -1 0 0 0 0 1 14 280 200 387 ?279 388 272 4 385 -0 0 279 388 19 50 32
6 2 0 12 385 389 0 +0 .002 0 0 -1 0 0 0 -1 50 389 65 0 388 326 390 0 +0 0 0 0 -1
 0 0 0 -1 14 388 43 391 ?280 311 392 4 389 +0 0 280 311 19 50 390 90 0 311 389 3
27 0 +0 .002 -.1 0 0 1 1 0 0 14 311 79 393 ?388 293 394 4 390 -0 0 388 293 19 50
 327 91 0 293 390 323 0 +.1 .002 0 -1 0 0 0 0 1 14 293 81 395 ?311 141 291 4 327
 -0 0 311 141 19 81 1 395 1180 319 293 396 0 393 397 398 80 255 1 319 399 400 90
00 1 1 1 1 1 1 1 1 0 FFFFTFTFFFFFFF1 81 1 396 1089 401 293 0 395 402 403 404 81
 1 393 1179 319 311 403 0 391 395 405 81 1 397 1181 319 335 406 0 395 0 407 82 2
55 1 398 49021090 14 335 1055 397 ?0 14 408 4 368 -0 0 0 14 19 81 1 406 1106 401
 335 0 397 409 0 410 82 1 407 85459128 80 1 401 0 411 8001 0 0 0 0 3 5 0 0 0 FFF
FTFTFFFFFFF2 81 1 409 1105 401 14 0 333 332 406 412 83 255 3 410 .79215686274509
8 .819607843137255 .933333333333333 81 1 333 1165 319 14 409 0 329 337 413 81 1
 332 1104 401 328 0 329 414 409 415 83 3 412 .792156862745098 .819607843137255 .
933333333333333 81 1 414 1103 401 330 0 337 363 332 416 83 3 415 .79215686274509
8 .819607843137255 .933333333333333 81 1 337 1166 319 330 414 0 333 360 417 81 1
 363 1102 401 338 0 360 418 414 419 83 3 416 .792156862745098 .819607843137255 .
933333333333333 81 1 418 1101 401 149 0 364 420 363 421 83 3 419 .79215686274509
8 .819607843137255 .933333333333333 81 1 364 1168 319 149 418 0 360 371 422 81 1
 420 1100 401 296 0 371 423 418 424 83 3 421 .792156862745098 .819607843137255 .
933333333333333 81 1 371 1169 319 296 420 0 364 374 425 81 1 423 1099 401 301 0
 374 426 420 427 83 3 424 .792156862745098 .819607843137255 .933333333333333 81
 1 374 1170 319 301 423 0 371 376 428 81 1 426 1098 401 303 0 376 429 423 430 83
 3 427 .792156862745098 .819607843137255 .933333333333333 81 1 376 1171 319 303
 426 0 374 378 431 81 1 429 1097 401 309 0 378 432 426 433 83 3 430 .79215686274
5098 .819607843137255 .933333333333333 81 1 378 1172 319 309 429 0 376 380 434 8
1 1 432 1096 401 315 0 380 435 429 436 83 3 433 .792156862745098 .81960784313725
5 .933333333333333 81 1 380 1173 319 315 432 0 378 382 437 81 1 435 1095 401 289
 0 382 438 432 439 83 3 436 .792156862745098 .819607843137255 .933333333333333 8
1 1 382 1174 319 289 435 0 380 384 440 81 1 438 1094 401 287 0 384 441 435 442 8
3 3 439 .792156862745098 .819607843137255 .933333333333333 81 1 384 1175 319 287
 438 0 382 386 443 81 1 441 1093 401 279 0 386 444 438 445 83 3 442 .79215686274
5098 .819607843137255 .933333333333333 81 1 386 1176 319 279 441 0 384 387 446 8
1 1 444 1092 401 280 0 387 447 441 448 83 3 445 .792156862745098 .81960784313725
5 .933333333333333 81 1 387 1177 319 280 444 0 386 391 449 81 1 447 1091 401 388
 0 391 403 444 450 83 3 448 .792156862745098 .819607843137255 .933333333333333 8
1 1 391 1178 319 388 447 0 387 393 451 81 1 403 1090 401 311 0 393 396 447 452 8
3 3 450 .792156862745098 .819607843137255 .933333333333333 83 3 452 .79215686274
5098 .819607843137255 .933333333333333 82 1 451 48758968 82 1 449 -1640628062 82
 1 446 -1640890206 82 1 443 -858652510 82 1 440 -859438942 82 1 437 -836829022 8
2 1 434 -837091166 82 1 431 -814546782 82 1 428 -814808926 82 1 425 -774373203 8
2 1 422 -791674718 82 1 417 1291452589 82 1 413 1295515821 79 255 15 411 SDL/TYS
A_COLOUR15 408 1058 0 453 335 454 51 368 1068 0 335 0 340 0 +.07 -.008 -.072 0 1
 0 .0075 0 0 1 17 453 0 408 453 453 0 455 16 0 0 +15 454 1059 0 456 335 0 17 456
 0 454 456 456 0 457 458 0 0 +17 457 0 325 457 457 0 456 458 0 0 -16 458 1047 0
 ?456 16 0 459 0 0 1 16 16 1046 0 ?453 460 458 6 0 0 1 31 459 1071 0 458 0 159 0
 +.07 .002 -.072 0 1 0 0 0 1 .0075 31 159 950 0 460 459 157 0 +.085 .098 -.085 0
 1 0 0 0 1 .001575 16 460 932 0 ?461 158 16 159 0 0 1 17 461 0 372 461 461 0 462
 460 0 0 +16 158 884 0 ?463 164 460 157 0 0 1 17 463 0 464 463 463 0 367 158 0 0
 +15 464 869 0 463 296 295 17 367 0 361 367 367 0 463 158 0 0 -15 372 920 0 461
 296 464 17 462 0 339 462 462 0 461 460 0 0 -15 339 942 0 462 330 354 15 354 943
 0 353 330 0 15 325 1036 0 457 12 465 15 465 927 0 355 12 359 17 355 0 465 355 3
55 0 353 351 0 0 -17 455 0 392 455 455 0 453 16 0 0 -15 392 1030 0 455 388 466 1
5 466 44 0 133 388 0 17 133 0 466 467 66 55 124 134 0 0 -17 467 0 466 468 133 58
 57 257 0 0 -17 66 0 466 133 468 64 63 274 0 125 -17 468 0 466 66 467 61 60 469
 0 0 -17 63 0 135 119 125 61 66 274 0 142 +16 274 53 0 ?63 469 134 470 0 0 1 16
 469 49 0 ?60 257 274 471 0 0 1 30 470 68 0 274 275 471 0 +0 0 0 1 0 0 30 275 69
 0 134 263 470 0 +0 0 0 0 0 1 30 471 67 0 469 470 472 0 +.1 0 0 0 0 -1 30 472 66
 0 257 471 473 0 +0 0 -.1 -1 0 0 16 257 45 0 ?57 254 469 472 0 0 1 30 473 86 0 3
07 472 474 0 +0 .002 -.1 0 -1 0 16 307 74 0 ?130 475 305 473 0 0 1 30 474 87 0 4
75 473 266 0 +.1 .002 -.1 0 -1 0 16 475 75 0 ?476 137 307 474 0 0 1 30 266 88 0
 137 474 138 0 +.1 .002 0 0 -1 0 16 137 76 0 ?142 126 475 266 0 0 1 17 142 0 294
 60 145 61 119 137 0 468 +15 294 80 0 60 293 0 17 60 0 294 116 142 58 468 469 0
 476 +17 145 0 294 142 116 117 144 146 0 0 -17 116 0 294 145 60 114 476 475 0 14
4 -17 144 0 143 148 139 114 145 146 0 150 +17 150 0 394 476 113 114 148 151 0 0
 -15 394 826 0 113 311 306 17 476 0 394 57 150 58 116 475 0 467 +17 113 0 394 15
0 57 111 130 307 0 148 -17 57 0 394 113 476 55 467 257 0 130 +17 130 0 122 124 1
23 55 113 307 0 133 +30 263 14 0 305 261 275 0 +0 .002 -.1 -1 0 0 82 1 405 48890
018 81 1 402 1088 401 141 0 321 320 396 477 83 3 404 .792156862745098 .819607843
137255 .933333333333333 81 1 321 1162 319 141 402 0 317 324 478 81 1 320 1087 40
1 128 0 317 479 402 480 83 3 477 .792156862745098 .819607843137255 .933333333333
333 81 1 479 1086 401 12 0 324 0 320 481 83 3 480 .792156862745098 .819607843137
255 .933333333333333 81 1 324 1163 319 12 479 0 321 329 482 83 3 481 .7921568627
45098 .819607843137255 .933333333333333 82 1 482 -805896008 82 1 478 45088930 79
 14 400 SWEntUnchanged82 1 365 -755892060 17 343 0 297 343 343 0 341 344 0 0 +15
 297 952 0 343 296 483 15 483 970 0 349 296 0 17 349 0 483 349 349 0 484 21 0 0
 +17 484 0 336 484 484 0 349 21 0 0 -15 336 976 0 484 14 485 15 485 977 0 20 14
 0 17 20 0 485 20 20 0 486 9 0 0 +17 486 0 487 486 486 0 20 9 0 0 -15 487 972 0
 486 12 0 15 282 954 0 346 12 487 82 1 334 1294074029 82 1 322 44957858 16 33 28
7 0 ?26 305 256 261 0 0 1 17 27 0 299 100 29 23 22 28 0 186 +17 186 0 291 32 170
 23 100 184 0 0 +141 249 248 249 249 245 19 13 95 0 1 0 8 4 S0 74 4 CI16 index_m
ap_offset0 0 1 dCCZ20 11 2 0 0 397 406 0 0 0 0 0 0 0 0 0 0 0 0 0 0 0 0 0 0 1 0 
