**ABCDEFGHIJKLMNOPQRSTUVWXYZabcdefghijklmnopqrstuvwxyz**************************
**PARASOLID !"#$%&'()*+,-./:;<=>?@[\]^_`{|}~0123456789**************************
**PART1;
MC=AMD64;
MC_MODEL=Intel64 Family 6 Model 58 Stepping 9, GenuineIntel;
MC_ID=unknown;
OS=Windows_NT;
OS_RELEASE=unknown;
FRU=Parasolid Version 27.0, build 199, 11-19-2014;
APPL=SOLIDWORKS 2015-2015063;
SITE=;
USER=unknown;
FORMAT=text;
GUISE=transmit;
KEY=IduinoBoardAngle;
FILE=IduinoBoardAngle.x_t;
DATE=Fri Sep 25 02:07:50 2015;
**PART2;
SCH=SCH_2700199_26105;
USFLD_SIZE=0;
**PART3;
**END_OF_HEADER*****************************************************************
T51 : TRANSMIT FILE created by modeller version 270019923 SCH_2700199_26105_1300
6196 0 12 30 CCCCCCCCCCCCCDI5 owner1040 0 CCCCCCCCCA13 boundary_mesh1006 0 A16 i
ndex_map_offset0 0 1 dA9 index_map82 0 A17 node_id_index_map82 0 A20 schema_embe
dding_map82 0 A5 child12 0 A14 lowest_node_id0 0 1 dZ1 621 0 2 0 0 0 0 1e3 1e-8
 0 3 0 1 0 1 1 4 5 6 7 8 9 10 0 0 0 0 0 0 0 70 11 CI9 list_type0 0 1 uI10 notran
smit0 0 1 lCCCDCCDI12 finger_index0 0 1 dI12 finger_block1012 0 CZ2 0 4 T1 0 0 2
 20 1 11 11 13 255 4 94 0 1 0 12 0 0 13 0 51 255 5 239 0 14 15 0 0 +.075 0 -.005
 0 1 0 .0018 0 0 1 31 255 6 247 0 16 17 0 0 +.075 .002 -.005 0 1 0 0 0 1 .0018 2
9 255 7 313 0 10 18 0 .0421992853742329 .002 -.08 19 8 CCCCCCCA5 owner12 0 Z8 28
 0 1 13 0 19 V0 16 255 9 329 0 ?20 0 21 22 23 24 1 18 255 10 311 0 25 0 26 7 ?1
 17 255 25 0 27 28 29 10 30 21 0 31 -18 26 308 0 32 10 33 18 ?1 17 32 0 34 35 31
 26 36 37 0 38 -18 33 305 0 39 26 40 41 ?1 29 18 310 0 26 41 7 .0618473450585651
 .002 -.08 29 41 307 0 33 42 18 .08 .002 -.0618473450585651 29 42 301 0 40 43 41
 .0375765348825744 .002 1734723475976805e-33 18 40 299 0 44 33 45 42 ?1 29 43 29
8 0 45 46 42 .01962991000282565 .002 0 18 45 296 0 47 40 48 43 ?1 29 46 295 0 48
 49 43 260208521396521e-32 .002 -.01974702107219585 18 48 293 0 50 45 51 46 ?1 2
9 49 292 0 51 52 46 -867361737988404e-33 .002 -.03780071462576695 18 51 290 0 53
 48 54 49 ?1 29 52 70 0 55 56 49 0 0 -.08 18 55 61 0 57 58 59 52 ?1 29 56 71 0 5
9 60 52 .08 0 -.08 18 59 62 0 61 55 62 56 ?1 29 60 72 0 62 63 56 .08 0 0 18 62 6
3 0 64 59 65 60 ?1 29 63 73 0 65 66 60 0 0 0 18 65 64 0 67 62 68 63 ?1 29 66 27
 0 54 69 63 0 .002 -.08 18 54 25 0 28 51 70 66 ?1 29 69 24 0 70 71 66 .08 .002 -
.08 18 70 22 0 72 54 73 69 ?1 29 71 21 0 73 74 69 .08 .002 0 18 73 19 0 75 70 58
 71 ?1 29 74 18 0 58 76 71 0 .002 0 18 58 16 0 77 73 55 74 ?1 29 76 461 0 68 78
 74 .08 .002 -.04242346511742565 18 68 405 0 79 65 80 76 ?1 29 78 469 0 81 82 76
 -.009 .002 -.0288007146257669 18 81 399 0 83 84 85 78 ?1 29 82 470 0 85 86 78 .
0520233152163989 .002 -.0898240298421661 18 85 398 0 87 81 88 82 ?1 29 86 471 0
 88 89 82 .0897119399705697 .002 -.0521354050879953 18 88 396 0 90 85 91 86 ?1 2
9 89 472 0 91 92 86 .0285765348825744 .002 .009 18 91 395 0 93 88 0 89 ?1 29 92
 473 0 80 94 89 -.009 .012 -.0288007146257669 18 80 402 0 95 68 96 92 ?1 29 94 4
74 0 96 97 92 .0520233152163989 .012 -.0898240298421661 18 96 401 0 98 80 99 94
 ?1 29 97 475 0 99 100 94 .0897119399705697 .012 -.0521354050879953 18 99 400 0
 101 96 84 97 ?1 29 100 476 0 84 0 97 .0285765348825744 .012 .009 18 84 397 0 10
2 99 81 100 ?1 17 102 0 103 104 105 84 101 106 0 107 -15 255 103 426 0 108 109 0
 17 104 0 103 108 102 91 110 111 0 0 +17 105 0 103 102 90 99 112 113 0 114 -17 1
01 0 115 98 107 99 102 106 0 105 +16 106 382 0 ?101 116 117 118 0 0 1 17 107 0 1
15 101 95 84 119 117 0 110 +15 115 437 0 107 120 0 17 95 0 115 107 98 80 121 122
 0 123 +17 119 0 124 125 110 80 107 117 0 0 -16 117 379 0 ?107 106 126 127 0 0 1
 17 110 0 124 119 93 84 104 111 0 0 -15 124 422 0 128 129 0 17 93 0 124 110 20 9
1 130 24 0 131 +16 111 358 0 ?104 132 113 133 0 0 1 16 132 199 0 ?134 135 111 13
6 0 0 1 16 113 368 0 ?112 111 137 138 0 0 1 30 255 133 449 0 111 138 136 0 +.028
5765348825744 .012 .009 0 -1 0 30 138 450 0 113 139 133 0 +.0897119399705697 .01
2 -.0521354050879953 0 -1 0 31 136 215 0 132 133 140 0 +.075 0 -.075 0 1 0 0 0 1
 .0018 31 140 214 0 135 136 141 0 +.075 .002 -.075 0 1 0 0 0 1 .0018 16 135 197
 0 ?142 143 132 140 0 0 1 31 141 172 0 144 140 145 0 +.005 0 -.075 0 1 0 0 0 1 .
0018 16 144 149 0 ?146 147 143 141 0 0 1 31 145 171 0 143 141 148 0 +.005 .002 -
.075 0 1 0 0 0 1 .0018 16 143 152 0 ?149 144 135 145 0 0 1 30 148 5 0 150 145 15
1 0 +0 .002 0 0 0 1 16 150 4 0 ?29 152 153 148 154 153 1 30 151 8 0 155 148 156
 0 +0 .002 0 1 0 0 16 155 7 0 ?157 158 159 151 152 159 1 30 156 11 0 160 151 161
 0 +.08 .002 0 0 0 -1 16 160 10 0 ?79 162 163 156 158 163 1 30 161 14 0 164 156
 165 0 +0 .002 -.08 -1 0 0 16 164 13 0 ?38 166 37 161 162 37 1 30 165 69 0 147 1
61 167 0 +0 0 0 0 0 1 16 147 57 0 ?168 169 144 165 0 0 1 30 167 68 0 169 165 170
 0 +0 0 0 1 0 0 16 169 53 0 ?64 171 147 167 0 0 1 30 170 67 0 171 167 172 0 +.08
 0 0 0 0 -1 16 171 49 0 ?61 173 169 170 0 0 1 30 172 66 0 173 170 174 0 +0 0 -.0
8 -1 0 0 16 173 45 0 ?57 154 171 172 0 0 1 30 174 86 0 166 172 175 0 +0 .002 -.0
8 0 -1 0 16 166 74 0 ?176 177 164 174 0 0 1 30 175 87 0 177 174 178 0 +.08 .002
 -.08 0 -1 0 16 177 75 0 ?179 180 166 175 0 0 1 30 178 88 0 180 175 181 0 +.08 .
002 0 0 -1 0 16 180 76 0 ?182 183 177 178 0 0 1 30 181 89 0 183 178 184 0 +0 .00
2 0 0 -1 0 16 183 77 0 ?185 186 180 181 0 0 1 31 184 226 0 186 181 187 0 +.005 0
 -.005 0 1 0 0 0 1 .0018 16 186 225 0 ?188 189 183 184 0 0 1 31 187 229 0 189 18
4 17 0 +.005 .002 -.005 0 1 0 0 0 1 .0018 16 189 228 0 ?190 191 186 187 0 0 1 31
 17 244 0 191 187 6 0 +.075 0 -.005 0 1 0 0 0 1 .0018 16 191 243 0 ?192 16 189 1
7 0 0 1 17 192 0 193 192 192 0 194 191 0 0 +16 16 246 0 ?195 196 191 6 0 0 1 17
 195 0 197 195 195 0 198 16 0 0 +16 196 314 0 ?199 200 16 201 202 203 1 17 199 0
 103 90 108 68 44 196 0 0 +16 200 319 0 ?204 21 196 205 206 207 1 30 201 455 0 2
02 22 205 0 +.0285765348825744 .002 .009 .707106781186548 0 -.707106781186548 16
 202 349 0 ?108 207 203 201 203 196 1 16 203 355 0 ?90 202 23 201 196 202 1 17 9
0 0 103 105 199 88 208 203 0 112 +16 23 339 0 ?128 203 24 22 24 9 1 17 128 0 124
 20 125 48 209 23 0 0 +16 24 345 0 ?93 23 0 22 9 23 1 30 22 456 0 23 210 201 0 +
-.009 .002 -.0288007146257669 .705000654457306 0 .7092066533915 30 210 457 0 122
 211 22 0 +-.009 .012 -.0288007146257669 -.707106781186546 0 .707106781186549 16
 122 388 0 ?95 212 116 210 0 0 1 30 211 458 0 116 118 210 0 +.0520233152163989 .
012 -.0898240298421661 -.707106781186547 0 -.707106781186548 16 116 385 0 ?98 12
2 106 211 0 0 1 30 118 459 0 106 127 211 0 +.0285765348825744 .012 .009 .7071067
81186548 0 -.707106781186548 30 127 460 0 117 0 118 0 +-.009 .012 -.028800714625
7669 .705000654457306 0 .7092066533915 17 98 0 115 95 101 96 114 116 0 213 +17 1
14 0 214 112 213 99 98 116 0 0 -17 213 0 214 114 87 96 215 137 0 121 -15 214 430
 0 216 217 0 17 87 0 214 213 204 85 218 207 0 215 +17 215 0 219 220 121 85 213 1
37 0 221 +16 137 378 0 ?215 113 212 139 0 0 1 17 121 0 219 215 123 96 95 122 0 0
 -15 219 434 0 220 222 0 17 123 0 219 121 83 80 125 212 0 119 -17 83 0 219 123 3
0 81 223 224 0 125 +17 125 0 124 128 119 81 123 212 0 209 +16 212 348 0 ?125 137
 122 225 0 0 1 30 225 452 0 212 226 139 0 +-.009 .012 -.0288007146257669 0 -1 0
 30 226 453 0 126 205 225 0 +-.009 .002 -.0288007146257669 -.707106781186546 0 .
707106781186549 30 139 451 0 137 225 138 0 +.0520233152163989 .012 -.08982402984
21661 0 -1 0 16 126 369 0 ?220 117 224 226 224 21 1 30 205 454 0 206 201 226 0 +
.0520233152163989 .002 -.0898240298421661 -.707106781186547 0 -.707106781186548
 16 206 359 0 ?216 224 207 205 207 200 1 17 216 0 214 204 112 33 227 206 0 0 +16
 224 375 0 ?83 126 206 226 21 126 1 16 207 365 0 ?87 206 202 205 200 206 1 16 21
 324 0 ?30 9 200 226 126 224 1 17 30 0 219 83 220 51 25 21 0 0 +17 220 0 219 30
 215 10 221 126 0 0 +17 221 0 228 218 36 85 220 126 0 0 -15 228 418 0 218 229 0
 17 218 0 228 36 221 26 87 207 0 204 -17 36 0 228 221 218 10 32 37 0 220 +16 37
 309 0 ?36 164 162 161 164 162 1 16 162 312 0 ?28 37 160 161 37 164 1 17 28 0 27
 29 25 54 31 162 0 230 +15 27 325 0 25 231 0 17 29 0 27 25 28 51 232 150 0 223 +
17 31 0 34 32 230 10 28 162 0 36 -17 230 0 34 31 57 54 176 166 0 232 -15 34 78 0
 57 233 0 17 57 0 34 230 179 55 234 173 0 176 +17 176 0 235 168 232 55 230 166 0
 236 +17 232 0 235 176 53 54 29 150 0 0 -15 235 84 0 168 237 0 17 53 0 235 232 2
38 51 239 153 0 29 -17 238 0 235 53 240 48 77 154 0 239 -17 239 0 241 209 223 48
 53 153 0 128 +16 153 291 0 ?239 150 154 148 150 154 1 16 154 294 0 ?77 153 173
 148 153 150 1 17 77 0 242 157 50 58 238 154 0 243 +15 242 330 0 50 12 0 17 157
 0 242 50 77 45 243 155 0 130 +17 50 0 242 77 157 48 20 9 0 238 -17 243 0 244 18
5 47 58 157 155 0 240 -15 244 82 0 64 245 0 17 185 0 244 64 243 65 240 183 0 168
 +17 47 0 244 243 246 45 247 159 0 157 -17 240 0 235 238 168 58 185 183 0 0 -17
 168 0 235 240 176 65 236 147 0 0 +17 236 0 248 234 67 55 168 147 0 0 -15 248 44
 0 236 249 250 17 234 0 248 251 236 59 57 173 0 0 -17 67 0 248 236 251 65 64 169
 0 185 -17 251 0 248 67 234 62 61 171 0 0 -17 64 0 244 252 185 62 67 169 0 182 +
17 252 0 244 246 64 73 182 180 0 253 -17 182 0 254 61 253 62 252 180 0 251 +15 2
54 80 0 61 255 0 17 61 0 254 256 182 59 251 171 0 179 +17 253 0 254 182 257 73 7
9 160 0 0 -17 257 0 254 253 258 68 259 163 0 208 -17 79 0 260 44 75 68 253 160 0
 257 +15 260 315 0 44 261 0 17 44 0 260 75 79 40 199 196 0 246 -17 75 0 260 79 4
4 73 246 152 0 252 +17 246 0 244 47 252 40 75 152 0 247 -16 152 300 0 ?75 159 15
0 151 159 155 1 16 159 297 0 ?247 155 152 151 155 152 1 17 247 0 262 131 130 40
 47 159 0 108 +15 262 412 0 130 263 0 17 131 0 262 130 247 91 108 202 0 104 -17
 130 0 262 247 131 45 93 24 0 20 -17 108 0 103 199 104 40 131 202 0 0 +17 20 0 1
24 93 128 45 50 9 0 0 +14 255 263 410 264 ?265 266 262 4 267 -265 266 265 266 19
 81 255 1 264 600 268 263 269 0 0 270 271 14 265 413 270 ?229 263 272 4 267 -229
 263 229 263 19 14 266 407 273 ?263 14 241 4 267 -263 229 263 14 19 50 255 267 4
47 0 266 274 275 0 +0 .002 0 0 1 0 0 0 1 13 19 29 0 0 0 0 0 0 8 12 14 12 331 276
 ?231 0 277 4 278 -231 261 231 0 19 81 1 276 603 268 12 279 0 273 280 281 14 231
 326 280 ?282 12 283 4 278 -282 12 282 12 19 15 277 219 0 284 12 242 50 278 2 0
 12 285 286 0 +0 .002 0 0 -1 0 0 0 -1 14 261 316 287 ?237 282 288 4 278 -12 282
 237 282 19 81 1 287 605 268 261 289 0 280 290 291 14 237 85 290 ?245 261 235 4
 292 -0 0 245 261 19 14 282 321 293 ?261 231 294 4 278 -261 231 261 231 19 15 28
8 237 0 198 261 260 17 198 0 288 198 198 0 195 16 0 0 -81 1 293 607 268 282 295
 0 290 296 297 15 294 191 0 298 282 299 17 298 0 294 298 298 0 142 135 0 0 -15 2
99 320 0 39 282 0 17 39 0 299 72 38 33 204 200 0 258 -17 72 0 299 38 39 70 258 1
58 0 256 +17 38 0 299 39 72 26 35 164 0 218 +17 204 0 214 87 216 26 39 200 0 0 +
17 258 0 254 257 256 33 72 158 0 259 -17 256 0 254 258 61 70 179 177 0 35 -16 15
8 306 0 ?72 163 155 156 163 160 1 17 259 0 272 227 208 33 257 163 0 216 +15 272
 415 0 208 265 0 17 227 0 272 208 259 88 216 206 0 0 -17 208 0 272 259 227 68 90
 203 0 199 -16 163 303 0 ?259 160 158 156 160 158 1 17 179 0 34 57 35 59 256 177
 0 234 +17 35 0 34 179 32 70 38 164 0 0 -17 142 0 300 142 142 0 298 135 0 0 +15
 300 208 0 142 301 0 14 301 205 296 ?302 303 304 4 305 -0 0 302 303 19 81 1 296
 608 268 301 306 0 293 307 308 14 302 220 307 ?14 301 309 4 15 -0 0 14 301 19 14
 303 155 310 ?301 249 311 4 285 -0 0 301 249 19 15 304 207 0 312 301 300 51 305
 213 0 301 313 285 0 +.075 0 -.075 0 1 0 .0018 0 0 1 50 313 443 0 129 314 305 0
 +-.009 .012 -.0288007146257669 .7092066533915 0 -.705000654457306 -.70500065445
7306 0 -.7092066533915 51 285 168 0 303 305 278 0 +.005 0 -.075 0 1 0 .0018 0 0
 1 14 129 419 315 ?109 229 124 4 313 -0 0 109 229 19 50 314 444 0 109 316 313 0
 +.0285765348825744 .012 .009 -.707106781186548 0 -.707106781186548 -.7071067811
86548 0 .707106781186548 14 109 423 317 ?217 129 103 4 314 -0 0 217 129 19 50 31
6 445 0 217 275 314 0 +.0520233152163989 .012 -.0898240298421661 -.7071067811865
48 0 .707106781186548 .707106781186548 0 .707106781186548 14 217 427 318 ?222 10
9 214 4 316 -0 0 222 109 19 50 275 446 0 222 267 316 0 +-.009 .012 -.02880071462
57669 .707106781186549 0 .707106781186546 .707106781186546 0 -.707106781186549 1
4 222 431 319 ?120 217 219 4 275 -0 0 120 217 19 81 1 319 614 268 222 320 0 318
 321 322 14 120 435 321 ?0 222 115 4 274 +0 0 0 222 19 81 1 321 615 268 120 323
 0 319 324 325 50 274 448 0 120 0 267 0 +0 .012 0 0 1 0 0 0 1 80 255 1 268 326 3
27 9000 1 1 1 1 1 1 1 1 0 FFFFTFTFFFFFFF1 81 1 323 553 328 120 0 321 320 0 329 8
1 1 324 616 268 229 330 0 321 331 332 82 255 1 325 -227999606 14 229 416 324 ?12
9 265 228 4 267 -266 265 129 265 19 81 1 330 548 328 229 0 324 333 334 335 81 1
 331 617 268 233 336 0 324 337 338 82 1 332 -209190774 14 233 79 331 ?249 255 34
 4 339 -0 0 249 255 19 81 1 336 539 328 233 0 331 340 341 342 81 1 337 618 268 2
55 340 0 331 343 344 82 1 338 90505354 14 255 81 337 ?233 245 254 4 345 -0 0 233
 245 19 81 1 340 538 328 255 0 337 346 336 347 81 1 343 619 268 245 346 0 337 34
8 349 82 1 344 90636426 14 245 83 343 ?255 237 244 4 350 -0 0 255 237 19 81 1 34
6 537 328 245 0 343 351 340 352 81 1 348 620 268 14 353 0 343 354 355 82 1 349 9
0767498 14 14 238 348 ?266 302 356 4 5 -0 0 266 302 19 81 1 353 544 328 14 0 348
 357 358 359 81 1 354 621 268 249 341 0 348 0 360 82 1 355 610861176 14 249 43 3
54 ?303 233 361 4 286 +0 0 303 233 19 81 1 341 540 328 249 0 354 336 362 363 82
 1 360 24772728 80 1 328 0 364 8001 0 0 0 0 3 5 0 0 0 FFFFTFTFFFFFFF2 81 1 362 5
41 328 303 0 310 341 306 365 83 255 3 363 .792156862745098 .819607843137255 .933
333333333333 81 1 310 610 268 303 362 0 307 315 366 81 1 306 542 328 301 0 296 3
62 357 367 83 3 365 .792156862745098 .819607843137255 .933333333333333 81 1 357
 543 328 302 0 307 306 353 368 83 3 367 .792156862745098 .819607843137255 .93333
3333333333 81 1 307 609 268 302 357 0 296 310 369 83 3 368 .792156862745098 .819
607843137255 .933333333333333 82 1 369 609419384 81 1 315 611 268 129 334 0 310
 317 370 82 1 366 597753975 81 1 334 549 328 129 0 315 330 371 372 81 1 317 612
 268 109 371 0 315 318 373 82 1 370 -220659574 81 1 371 550 328 109 0 317 334 37
4 375 81 1 318 613 268 217 374 0 317 319 376 82 1 373 -220921718 81 1 374 551 32
8 217 0 318 371 320 377 82 1 376 -221183862 81 1 320 552 328 222 0 319 374 323 3
78 83 3 377 .792156862745098 .819607843137255 .933333333333333 83 3 378 .7921568
62745098 .819607843137255 .933333333333333 83 3 375 .792156862745098 .8196078431
37255 .933333333333333 83 3 372 .792156862745098 .819607843137255 .9333333333333
33 79 255 15 364 SDL/TYSA_COLOUR15 361 186 0 134 249 379 50 286 65 0 249 278 339
 0 +0 0 0 0 -1 0 0 0 -1 50 339 90 0 233 286 345 0 +0 .002 -.08 0 0 1 1 0 0 50 34
5 91 0 255 339 350 0 +.08 .002 0 -1 0 0 0 0 1 50 350 92 0 245 345 292 0 +0 .002
 0 0 0 -1 -1 0 0 50 292 93 0 237 350 15 0 +0 .002 0 1 0 0 0 0 -1 51 15 221 0 302
 292 5 0 +.005 0 -.005 0 1 0 .0018 0 0 1 17 134 0 361 134 134 0 312 132 0 0 +15
 379 138 0 146 249 248 17 146 0 379 146 146 0 380 144 0 0 +17 380 0 311 380 380
 0 146 144 0 0 -15 311 158 0 380 303 381 15 381 159 0 149 303 0 17 149 0 381 149
 149 0 382 143 0 0 +17 382 0 283 382 382 0 149 143 0 0 -15 283 143 0 382 231 27
 17 312 0 304 312 312 0 134 132 0 0 -81 1 358 545 328 266 0 273 353 269 383 83 3
 359 .792156862745098 .819607843137255 .933333333333333 81 1 273 602 268 266 358
 0 270 276 384 81 1 269 546 328 263 0 264 358 333 385 83 3 383 .792156862745098
 .819607843137255 .933333333333333 81 1 333 547 328 265 0 270 269 330 386 83 3 3
85 .792156862745098 .819607843137255 .933333333333333 81 1 270 601 268 265 333 0
 264 273 387 83 3 386 .792156862745098 .819607843137255 .933333333333333 82 1 38
7 -208797558 82 1 384 -208011126 15 356 241 0 194 14 197 17 194 0 356 194 194 0
 192 191 0 0 -15 197 242 0 195 14 0 81 1 351 536 328 237 0 290 289 346 388 83 3
 352 .792156862745098 .819607843137255 .933333333333333 81 1 290 606 268 237 351
 0 287 293 389 81 1 289 535 328 261 0 287 295 351 390 83 3 388 .792156862745098
 .819607843137255 .933333333333333 81 1 295 534 328 282 0 293 391 289 392 83 3 3
90 .792156862745098 .819607843137255 .933333333333333 81 1 391 533 328 231 0 280
 279 295 393 83 3 392 .792156862745098 .819607843137255 .933333333333333 81 1 28
0 604 268 231 391 0 276 287 394 81 1 279 532 328 12 0 276 0 391 395 83 3 393 .79
2156862745098 .819607843137255 .933333333333333 83 3 395 .792156862745098 .81960
7843137255 .933333333333333 82 1 394 -213778294 82 1 389 90898570 83 3 347 .7921
56862745098 .819607843137255 .933333333333333 83 3 342 .792156862745098 .8196078
43137255 .933333333333333 83 3 335 .792156862745098 .819607843137255 .9333333333
33333 83 3 329 .792156862745098 .819607843137255 .933333333333333 79 14 327 SWEn
tUnchanged82 1 322 -221446006 15 309 223 0 396 302 397 17 396 0 309 396 396 0 18
8 186 0 0 -15 397 224 0 190 302 0 17 190 0 397 190 190 0 284 189 0 0 +17 284 0 2
77 284 284 0 190 189 0 0 -17 188 0 250 188 188 0 396 186 0 0 +15 250 217 0 188 2
49 193 15 193 235 0 192 249 0 82 1 308 607125624 82 1 297 -214237046 82 1 291 -2
14695798 82 1 281 -213319542 15 241 409 0 223 266 0 17 223 0 241 239 209 51 83 2
24 0 30 -17 209 0 241 223 239 81 128 23 0 0 -82 1 271 -208404342 17 112 0 214 21
6 114 88 105 113 0 227 +19 13 95 0 1 0 8 4 S0 74 4 CI16 index_map_offset0 0 1 dC
CZ20 11 2 0 0 354 323 0 0 0 0 0 0 0 0 0 0 0 0 0 0 0 0 0 0 1 0 
