**ABCDEFGHIJKLMNOPQRSTUVWXYZabcdefghijklmnopqrstuvwxyz**************************
**PARASOLID !"#$%&'()*+,-./:;<=>?@[\]^_`{|}~0123456789**************************
**PART1;
MC=AMD64;
MC_MODEL=Intel64 Family 6 Model 58 Stepping 9, GenuineIntel;
MC_ID=unknown;
OS=Windows_NT;
OS_RELEASE=unknown;
FRU=Parasolid Version 27.0, build 199, 11-19-2014;
APPL=SOLIDWORKS 2015-2015063;
SITE=;
USER=unknown;
FORMAT=text;
GUISE=transmit;
KEY=IduinoBoard;
FILE=IduinoBoard.x_t;
DATE=Fri Sep 25 02:08:00 2015;
**PART2;
SCH=SCH_2700199_26105;
USFLD_SIZE=0;
**PART3;
**END_OF_HEADER*****************************************************************
T51 : TRANSMIT FILE created by modeller version 270019923 SCH_2700199_26105_1300
6196 0 12 30 CCCCCCCCCCCCCDI5 owner1040 0 CCCCCCCCCA13 boundary_mesh1006 0 A16 i
ndex_map_offset0 0 1 dA9 index_map82 0 A17 node_id_index_map82 0 A20 schema_embe
dding_map82 0 A5 child12 0 A14 lowest_node_id0 0 1 dZ1 482 0 2 0 0 0 0 1e3 1e-8
 0 3 0 1 0 1 1 4 5 6 7 8 9 10 0 0 0 0 0 0 0 70 11 CI9 list_type0 0 1 uI10 notran
smit0 0 1 lCCCDCCDI12 finger_index0 0 1 dI12 finger_block1012 0 CZ2 0 4 T1 0 0 2
 20 1 11 11 13 255 4 94 0 1 0 12 0 0 13 0 51 255 5 239 0 14 15 0 0 +.079 0 -.005
 0 1 0 .0018 0 0 1 31 255 6 247 0 9 16 0 0 +.079 .002 -.005 0 1 0 0 0 1 .0018 29
 255 7 290 0 10 17 0 .000500000000000007 .002 -.0167 19 8 CCCCCCCA5 owner12 0 Z8
 28 0 1 13 0 18 V0 16 255 9 246 0 ?19 0 20 6 0 0 1 18 255 10 288 0 21 0 22 7 ?1
 17 255 21 0 23 24 25 10 26 27 0 28 -18 22 284 0 25 10 29 17 ?1 17 25 0 23 21 30
 22 31 32 0 26 -18 29 277 0 30 22 33 34 ?1 29 17 286 0 22 34 7 .0868 .002 -.0167
 29 34 279 0 29 35 17 .0868 .002 -.07 29 35 70 0 36 37 34 0 0 -.08 18 36 61 0 38
 39 40 35 ?1 29 37 71 0 40 41 35 .087 0 -.08 18 40 62 0 42 36 43 37 ?1 29 41 72
 0 43 44 37 .087 0 0 18 43 63 0 45 40 46 41 ?1 29 44 73 0 46 47 41 0 0 0 18 46 6
4 0 48 43 49 44 ?1 29 47 27 0 33 50 44 0 .002 -.08 18 33 25 0 51 29 52 47 ?1 29
 50 24 0 52 53 47 .087 .002 -.08 18 52 22 0 54 33 55 50 ?1 29 53 21 0 55 56 50 .
087 .002 0 18 55 19 0 57 52 39 53 ?1 29 56 18 0 39 58 53 0 .002 0 18 39 16 0 59
 55 36 56 ?1 29 58 376 0 60 61 56 5e-4 .002 -.07 18 60 329 0 24 62 0 58 ?1 29 61
 380 0 49 63 58 5e-4 .012 -.07 18 49 332 0 64 46 65 61 ?1 29 63 381 0 65 66 61 .
0868 .012 -.07 18 65 331 0 67 49 68 63 ?1 29 66 382 0 68 69 63 .0868 .012 -.0167
 18 68 330 0 70 65 62 66 ?1 29 69 383 0 62 0 66 .000500000000000007 .012 -.0167
 18 62 327 0 71 68 60 69 ?1 17 71 0 72 28 73 62 70 74 0 75 -15 255 72 341 0 26 7
6 0 17 28 0 72 26 71 10 77 78 0 79 +17 73 0 72 71 26 68 80 81 0 82 -17 70 0 83 6
7 75 68 71 74 0 73 +16 74 317 0 ?70 84 85 86 0 0 1 17 75 0 83 70 64 62 87 85 0 7
7 +15 83 352 0 75 88 0 17 64 0 83 75 67 49 89 90 0 91 +17 87 0 92 93 77 49 75 85
 0 0 -16 85 314 0 ?75 74 94 95 0 0 1 17 77 0 92 87 79 62 28 78 0 0 -15 92 337 0
 79 96 0 17 79 0 92 77 93 10 24 97 0 0 +16 78 305 0 ?28 98 81 99 0 0 1 16 98 199
 0 ?100 101 78 102 0 0 1 16 81 309 0 ?80 78 103 104 0 0 1 30 255 99 364 0 78 104
 102 0 +.000500000000000007 .012 -.0167 0 -1 0 30 104 365 0 81 105 99 0 +.0868 .
012 -.0167 0 -1 0 31 102 215 0 98 99 106 0 +.079 0 -.075 0 1 0 0 0 1 .0018 31 10
6 214 0 101 102 107 0 +.079 .002 -.075 0 1 0 0 0 1 .0018 16 101 197 0 ?108 109 9
8 106 0 0 1 31 107 172 0 110 106 111 0 +.009 0 -.075 0 1 0 0 0 1 .0018 16 110 14
9 0 ?112 113 109 107 0 0 1 31 111 171 0 109 107 114 0 +.009 .002 -.075 0 1 0 0 0
 1 .0018 16 109 152 0 ?115 110 101 111 0 0 1 30 114 5 0 116 111 117 0 +0 .002 0
 0 0 1 16 116 4 0 ?118 119 120 114 0 0 1 30 117 8 0 119 114 121 0 +0 .002 0 1 0
 0 16 119 7 0 ?57 122 116 117 0 0 1 30 121 11 0 122 117 123 0 +.087 .002 0 0 0 -
1 16 122 10 0 ?54 124 119 121 0 0 1 30 123 14 0 124 121 125 0 +0 .002 -.08 -1 0
 0 16 124 13 0 ?51 126 122 123 0 0 1 30 125 69 0 113 123 127 0 +0 0 0 0 0 1 16 1
13 57 0 ?128 129 110 125 0 0 1 30 127 68 0 129 125 130 0 +0 0 0 1 0 0 16 129 53
 0 ?45 131 113 127 0 0 1 30 130 67 0 131 127 132 0 +.087 0 0 0 0 -1 16 131 49 0
 ?42 120 129 130 0 0 1 30 132 66 0 120 130 133 0 +0 0 -.08 -1 0 0 16 120 45 0 ?3
8 116 131 132 0 0 1 30 133 86 0 126 132 134 0 +0 .002 -.08 0 -1 0 16 126 74 0 ?1
35 136 124 133 0 0 1 30 134 87 0 136 133 137 0 +.087 .002 -.08 0 -1 0 16 136 75
 0 ?138 139 126 134 0 0 1 30 137 88 0 139 134 140 0 +.087 .002 0 0 -1 0 16 139 7
6 0 ?141 142 136 137 0 0 1 30 140 89 0 142 137 143 0 +0 .002 0 0 -1 0 16 142 77
 0 ?144 145 139 140 0 0 1 31 143 226 0 145 140 146 0 +.009 0 -.005 0 1 0 0 0 1 .
0018 16 145 225 0 ?147 148 142 143 0 0 1 31 146 229 0 148 143 16 0 +.009 .002 -.
005 0 1 0 0 0 1 .0018 16 148 228 0 ?149 20 145 146 0 0 1 31 16 244 0 20 146 6 0
 +.079 0 -.005 0 1 0 0 0 1 .0018 16 20 243 0 ?150 9 148 16 0 0 1 17 150 0 151 15
0 150 0 152 20 0 0 +15 151 235 0 150 153 0 17 152 0 154 152 152 0 150 20 0 0 -15
 154 241 0 152 14 155 14 255 14 238 156 ?96 157 154 4 5 -0 0 96 157 18 15 155 24
2 0 19 14 0 17 19 0 155 19 19 0 158 9 0 0 +17 158 0 159 158 158 0 19 9 0 0 -15 1
59 237 0 158 12 160 14 12 295 161 ?162 0 159 4 163 -0 0 162 0 18 15 160 219 0 16
4 12 165 17 164 0 160 164 164 0 149 148 0 0 -15 165 3 0 118 12 166 17 118 0 165
 57 51 39 167 116 0 168 +15 166 143 0 169 12 170 17 169 0 166 169 169 0 115 109
 0 0 -15 170 191 0 171 12 23 17 171 0 170 171 171 0 108 101 0 0 -15 23 293 0 24
 12 0 17 24 0 23 30 21 60 79 97 0 172 -17 30 0 23 25 24 29 172 94 0 31 -16 97 29
8 0 ?79 27 0 173 0 0 1 17 172 0 174 91 175 60 30 94 0 93 +15 174 349 0 172 176 0
 17 91 0 174 89 172 49 93 177 0 87 -17 175 0 174 172 89 29 178 103 0 0 +16 94 31
0 0 ?172 85 32 179 0 0 1 17 93 0 92 79 87 60 91 177 0 0 +16 177 301 0 ?93 103 90
 180 0 0 1 16 103 313 0 ?175 81 177 105 0 0 1 16 90 323 0 ?64 177 84 181 0 0 1 3
0 180 367 0 177 179 105 0 +5e-4 .012 -.07 0 -1 0 30 179 368 0 94 182 180 0 +5e-4
 .002 -.07 -1 0 0 30 105 366 0 103 180 104 0 +.0868 .012 -.07 0 -1 0 30 182 369
 0 32 183 179 0 +.0868 .002 -.07 0 0 -1 16 32 306 0 ?31 94 27 182 0 0 1 30 183 3
70 0 27 173 182 0 +.000500000000000007 .002 -.0167 1 0 0 16 27 302 0 ?26 32 97 1
83 0 0 1 30 173 371 0 97 181 183 0 +5e-4 .002 -.07 1240831754626938e-31 0 1 30 1
81 372 0 90 184 173 0 +5e-4 .012 -.07 -1 0 0 30 184 373 0 84 86 181 0 +.0868 .01
2 -.07 0 0 -1 16 84 320 0 ?67 90 74 184 0 0 1 30 86 374 0 74 95 184 0 +.00050000
0000000007 .012 -.0167 1 0 0 30 95 375 0 85 0 86 0 +5e-4 .012 -.07 1240831754626
938e-31 0 1 17 67 0 83 64 70 65 82 84 0 178 +17 82 0 185 80 178 68 67 84 0 0 -17
 178 0 185 82 31 65 175 103 0 89 -15 185 345 0 31 186 0 17 31 0 185 178 80 29 25
 32 0 175 +17 89 0 174 175 91 65 64 90 0 0 -17 80 0 185 31 82 22 73 81 0 0 +14 1
86 342 187 ?176 76 185 4 188 -0 0 176 76 18 81 255 1 187 470 189 186 190 0 161 1
91 192 14 176 346 191 ?88 186 174 4 193 -0 0 88 186 18 14 76 338 194 ?186 96 72
 4 195 -0 0 186 96 18 50 255 188 360 0 186 193 195 0 +.0868 .012 -.07 -1 0 0 0 0
 1 13 18 29 0 0 0 0 0 0 8 12 50 193 361 0 176 196 188 0 +5e-4 .012 -.07 0 0 1 1
 0 0 50 195 359 0 76 188 197 0 +.000500000000000007 .012 -.0167 0 0 -1 -1 0 0 50
 197 358 0 96 195 198 0 +5e-4 .012 -.07 1 0 -1240831754626938e-31 -1240831754626
938e-31 0 -1 14 96 334 199 ?76 14 92 4 197 -0 0 76 14 18 51 198 213 0 200 197 20
1 0 +.079 0 -.075 0 1 0 .0018 0 0 1 14 200 205 202 ?157 203 204 4 198 -0 0 157 2
03 18 51 201 168 0 203 198 163 0 +.009 0 -.075 0 1 0 .0018 0 0 1 14 203 155 205
 ?200 153 206 4 201 -0 0 200 153 18 50 163 2 0 12 201 207 0 +0 .002 0 0 -1 0 0 0
 -1 50 207 65 0 153 163 208 0 +0 0 0 0 -1 0 0 0 -1 14 153 43 209 ?203 210 211 4
 207 +0 0 203 210 18 50 208 90 0 210 207 212 0 +0 .002 -.08 0 0 1 1 0 0 14 210 7
9 213 ?153 214 215 4 208 -0 0 153 214 18 50 212 91 0 214 208 216 0 +.087 .002 0
 -1 0 0 0 0 1 14 214 81 217 ?210 218 219 4 212 -0 0 210 218 18 50 216 92 0 218 2
12 220 0 +0 .002 0 0 0 -1 -1 0 0 14 218 83 221 ?214 162 222 4 216 -0 0 214 162 1
8 50 220 93 0 162 216 15 0 +0 .002 0 1 0 0 0 0 -1 14 162 85 223 ?218 12 224 4 22
0 -0 0 218 12 18 51 15 221 0 157 220 5 0 +.009 0 -.005 0 1 0 .0018 0 0 1 14 157
 220 225 ?14 200 226 4 15 -0 0 14 200 18 81 1 225 481 189 157 227 0 223 228 229
 15 226 223 0 230 157 231 17 230 0 226 230 230 0 147 145 0 0 -15 231 224 0 149 1
57 0 17 149 0 231 149 149 0 164 148 0 0 +17 147 0 232 147 147 0 230 145 0 0 +15
 232 217 0 147 153 151 80 255 1 189 233 234 9000 1 1 1 1 1 1 1 1 0 FFFFTFTFFFFFF
F1 81 1 227 429 235 157 0 225 236 237 238 81 1 223 480 189 162 239 0 221 225 240
 81 1 228 482 189 88 241 0 225 0 242 82 255 1 229 1247019184 14 88 350 228 ?0 17
6 83 4 196 +0 0 0 176 18 81 1 241 435 235 88 0 228 243 0 244 82 1 242 -916062022
 80 1 235 0 245 8001 0 0 0 0 3 5 0 0 0 FFFFTFTFFFFFFF2 81 1 243 434 235 176 0 19
1 190 241 246 83 255 3 244 .792156862745098 .819607843137255 .933333333333333 81
 1 191 471 189 176 243 0 187 194 247 81 1 190 433 235 186 0 187 248 243 249 83 3
 246 .792156862745098 .819607843137255 .933333333333333 81 1 248 432 235 76 0 19
4 250 190 251 83 3 249 .792156862745098 .819607843137255 .933333333333333 81 1 1
94 472 189 76 248 0 191 199 252 81 1 250 431 235 96 0 199 237 248 253 83 3 251 .
792156862745098 .819607843137255 .933333333333333 81 1 199 473 189 96 250 0 194
 202 254 81 1 237 430 235 14 0 156 227 250 255 83 3 253 .792156862745098 .819607
843137255 .933333333333333 81 1 156 468 189 14 237 0 0 161 256 83 3 255 .7921568
62745098 .819607843137255 .933333333333333 81 1 161 469 189 12 257 0 156 187 258
 82 1 256 1248460976 81 1 257 421 235 12 0 161 0 239 259 82 1 258 -903937862 81
 1 239 422 235 162 0 223 257 260 261 83 3 259 .792156862745098 .819607843137255
 .933333333333333 81 1 260 423 235 218 0 221 239 262 263 83 3 261 .7921568627450
98 .819607843137255 .933333333333333 81 1 221 479 189 218 260 0 217 223 264 81 1
 262 424 235 214 0 217 260 265 266 83 3 263 .792156862745098 .819607843137255 .9
33333333333333 81 1 217 478 189 214 262 0 213 221 267 81 1 265 425 235 210 0 213
 262 268 269 83 3 266 .792156862745098 .819607843137255 .933333333333333 81 1 21
3 477 189 210 265 0 209 217 270 81 1 268 426 235 153 0 209 265 271 272 83 3 269
 .792156862745098 .819607843137255 .933333333333333 81 1 209 476 189 153 268 0 2
05 213 273 81 1 271 427 235 203 0 205 268 236 274 83 3 272 .792156862745098 .819
607843137255 .933333333333333 81 1 205 475 189 203 271 0 202 209 275 81 1 236 42
8 235 200 0 202 271 227 276 83 3 274 .792156862745098 .819607843137255 .93333333
3333333 81 1 202 474 189 200 236 0 199 205 277 83 3 276 .792156862745098 .819607
843137255 .933333333333333 82 1 277 1244725424 82 1 275 1235353775 82 1 273 -155
8576976 82 1 270 -1557659496 82 1 267 -1557397352 82 1 264 -1557135208 82 1 254
 -908721990 82 1 252 -908984134 82 1 247 -909508422 79 255 15 245 SDL/TYSA_COLOU
R50 196 363 0 88 0 193 0 +0 .012 0 0 1 0 0 0 1 82 1 240 -1556873064 83 3 238 .79
2156862745098 .819607843137255 .933333333333333 79 14 234 SWEntUnchanged15 224 8
4 0 128 162 0 17 128 0 224 168 135 46 278 113 0 0 +17 168 0 224 167 128 39 144 1
42 0 0 -17 135 0 224 128 167 36 279 126 0 278 +17 278 0 280 281 48 36 128 113 0
 0 -15 280 44 0 278 153 232 17 281 0 280 282 278 40 38 120 0 0 -17 48 0 280 278
 282 46 45 129 0 144 -17 282 0 280 48 281 43 42 131 0 0 -17 45 0 222 283 144 43
 48 129 0 141 +17 144 0 222 45 59 46 168 142 0 128 +15 222 82 0 45 218 0 17 59 0
 222 144 283 39 57 119 0 118 -17 283 0 222 59 45 55 141 139 0 284 -17 57 0 165 5
4 118 55 59 119 0 283 +17 54 0 165 51 57 52 284 122 0 285 +17 51 0 165 118 54 33
 286 124 0 279 +17 284 0 219 141 285 55 54 122 0 0 -17 285 0 219 284 42 52 138 1
36 0 286 -15 219 80 0 42 214 0 17 42 0 219 285 141 40 282 131 0 138 +17 138 0 21
5 38 286 40 285 136 0 281 +17 286 0 215 138 279 52 51 124 0 0 -15 215 78 0 38 21
0 0 17 279 0 215 286 38 33 135 126 0 167 -17 38 0 215 279 138 36 281 120 0 135 +
17 167 0 224 135 168 33 118 116 0 0 -17 141 0 219 42 284 43 283 139 0 282 +15 21
1 186 0 100 153 287 17 100 0 211 100 100 0 288 98 0 0 +15 287 138 0 112 153 280
 17 112 0 287 112 112 0 289 110 0 0 +17 289 0 206 289 289 0 112 110 0 0 -15 206
 158 0 289 203 290 15 290 159 0 115 203 0 17 115 0 290 115 115 0 169 109 0 0 +17
 288 0 204 288 288 0 100 98 0 0 -15 204 207 0 288 200 291 15 291 208 0 108 200 0
 17 108 0 291 108 108 0 171 101 0 0 +82 1 192 -909246278 17 26 0 72 73 28 22 21
 27 0 80 +19 13 95 0 1 0 8 4 S0 74 4 CI16 index_map_offset0 0 1 dCCZ20 11 2 0 0
 228 241 0 0 0 0 0 0 0 0 0 0 0 0 0 0 0 0 0 0 1 0 
