**ABCDEFGHIJKLMNOPQRSTUVWXYZabcdefghijklmnopqrstuvwxyz**************************
**PARASOLID !"#$%&'()*+,-./:;<=>?@[\]^_`{|}~0123456789**************************
**PART1;
MC=AMD64;
MC_MODEL=Intel64 Family 6 Model 58 Stepping 9, GenuineIntel;
MC_ID=unknown;
OS=Windows_NT;
OS_RELEASE=unknown;
FRU=Parasolid Version 27.0, build 199, 11-19-2014;
APPL=SOLIDWORKS 2015-2015063;
SITE=;
USER=unknown;
FORMAT=text;
GUISE=transmit;
KEY=LocBoard;
FILE=LocBoard.x_t;
DATE=Fri Sep 25 02:07:37 2015;
**PART2;
SCH=SCH_2700199_26105;
USFLD_SIZE=0;
**PART3;
**END_OF_HEADER*****************************************************************
T51 : TRANSMIT FILE created by modeller version 270019923 SCH_2700199_26105_1300
6196 0 12 30 CCCCCCCCCCCCCDI5 owner1040 0 CCCCCCCCCA13 boundary_mesh1006 0 A16 i
ndex_map_offset0 0 1 dA9 index_map82 0 A17 node_id_index_map82 0 A20 schema_embe
dding_map82 0 A5 child12 0 A14 lowest_node_id0 0 1 dZ1 628 0 2 0 0 0 0 1e3 1e-8
 0 3 0 1 0 1 1 4 5 6 7 8 9 10 0 0 0 0 0 0 0 70 11 CI9 list_type0 0 1 uI10 notran
smit0 0 1 lCCCDCCDI12 finger_index0 0 1 dI12 finger_block1012 0 CZ2 0 4 T1 0 0 2
 20 1 11 11 13 255 4 94 0 1 0 12 0 0 13 0 51 255 5 239 0 14 15 0 0 +.075 0 -.005
 0 1 0 .0018 0 0 1 31 255 6 247 0 9 16 0 0 +.075 .002 -.005 0 1 0 0 0 1 .0018 29
 255 7 420 0 10 17 0 .008 .002 -.008 19 8 CCCCCCCA5 owner12 0 Z8 28 0 1 13 0 18
 V0 16 255 9 246 0 ?19 0 20 6 0 0 1 18 255 10 418 0 21 0 22 7 ?1 17 255 21 0 23
 24 25 10 26 27 0 28 -18 22 414 0 25 10 29 17 ?1 17 25 0 23 21 30 22 31 32 0 26
 -18 29 407 0 30 22 33 34 ?1 29 17 416 0 22 34 7 .046 .002 -.008 29 34 409 0 29
 35 17 .046 .002 -.031 29 35 295 0 33 36 34 .008 .002 -.042 18 33 293 0 37 29 38
 35 ?1 29 36 291 0 38 39 35 .028 .002 -.042 18 38 289 0 40 33 41 36 ?1 29 39 284
 0 41 42 36 .028 .002 -.072 18 41 282 0 43 38 44 39 ?1 29 42 70 0 45 46 39 0 0 -
.08 18 45 61 0 47 48 49 42 ?1 29 46 71 0 49 50 42 .08 0 -.08 18 49 62 0 51 45 52
 46 ?1 29 50 72 0 52 53 46 .08 0 0 18 52 63 0 54 49 55 50 ?1 29 53 73 0 55 56 50
 0 0 0 18 55 64 0 57 52 58 53 ?1 29 56 27 0 44 59 53 0 .002 -.08 18 44 25 0 60 4
1 61 56 ?1 29 59 24 0 61 62 56 .08 .002 -.08 18 61 22 0 63 44 64 59 ?1 29 62 21
 0 64 65 59 .08 .002 0 18 64 19 0 66 61 48 62 ?1 29 65 18 0 48 67 62 0 .002 0 18
 48 16 0 68 64 45 65 ?1 29 67 382 0 69 70 65 .008 .002 -.072 18 69 335 0 71 72 7
3 67 ?1 29 70 386 0 58 74 67 .008 .007 -.072 18 58 338 0 75 55 76 70 ?1 29 74 38
7 0 76 77 70 .028 .007 -.072 18 76 337 0 78 58 79 74 ?1 29 77 388 0 79 80 74 .02
8 .007 -.042 18 79 336 0 81 76 72 77 ?1 29 80 389 0 72 82 77 .008 .007 -.042 18
 72 333 0 83 79 69 80 ?1 29 82 507 0 84 85 80 .008 .002 -.031 18 84 460 0 24 86
 0 82 ?1 29 85 511 0 73 87 82 .008 .007 -.031 18 73 463 0 88 69 89 85 ?1 29 87 5
12 0 89 90 85 .046 .007 -.031 18 89 462 0 91 73 92 87 ?1 29 90 513 0 92 93 87 .0
46 .007 -.008 18 92 461 0 94 89 86 90 ?1 29 93 514 0 86 0 90 .008 .007 -.008 18
 86 458 0 95 92 84 93 ?1 17 95 0 96 28 97 86 94 98 0 99 -15 255 96 472 0 26 100
 0 17 28 0 96 26 95 10 101 102 0 103 +17 97 0 96 95 26 92 104 105 0 106 -17 94 0
 107 91 99 92 95 98 0 97 +16 98 448 0 ?94 108 109 110 0 0 1 17 99 0 107 94 88 86
 111 109 0 101 +15 107 483 0 99 112 0 17 88 0 107 99 91 73 113 114 0 115 +17 111
 0 116 117 101 73 99 109 0 0 -16 109 445 0 ?99 98 118 119 0 0 1 17 101 0 116 111
 103 86 28 102 0 0 -15 116 468 0 103 120 0 17 103 0 116 101 117 10 24 121 0 0 +1
6 102 436 0 ?28 122 105 123 0 0 1 16 122 304 0 ?124 125 102 126 0 0 1 16 105 440
 0 ?104 102 127 128 0 0 1 30 255 123 495 0 102 128 129 0 +.008 .007 -.008 0 -1 0
 30 128 496 0 105 130 123 0 +.046 .007 -.008 0 -1 0 30 129 381 0 131 123 132 0 +
.008 .007 -.072 1734723475976805e-31 0 1 16 131 320 0 ?133 134 135 129 0 0 1 30
 132 380 0 134 129 136 0 +.008 .007 -.042 1 0 0 16 134 323 0 ?81 137 131 132 0 0
 1 30 136 379 0 137 132 138 0 +.028 .007 -.072 -1156482317317872e-31 0 -1 16 137
 326 0 ?78 139 134 136 0 0 1 30 138 378 0 139 136 126 0 +.008 .007 -.072 -1 0 0
 16 139 329 0 ?75 140 137 138 0 0 1 30 126 377 0 122 138 141 0 +.008 .002 -.072
 1734723475976805e-31 0 1 30 141 376 0 125 126 142 0 +.008 .002 -.042 1 0 0 16 1
25 308 0 ?143 144 122 141 0 0 1 30 142 375 0 144 141 145 0 +.028 .002 -.072 -115
6482317317872e-31 0 -1 16 144 312 0 ?146 135 125 142 0 0 1 30 145 374 0 135 142
 147 0 +.008 .002 -.072 -1 0 0 16 135 316 0 ?148 131 144 145 0 0 1 30 147 373 0
 140 145 149 0 +.008 .007 -.072 0 -1 0 16 140 307 0 ?150 151 139 147 0 0 1 30 14
9 372 0 151 147 152 0 +.028 .007 -.072 0 -1 0 16 151 319 0 ?153 154 140 149 0 0
 1 30 152 371 0 154 149 155 0 +.028 .007 -.042 0 -1 0 16 154 315 0 ?156 157 151
 152 0 0 1 30 155 370 0 157 152 158 0 +.008 .007 -.042 0 -1 0 16 157 311 0 ?159
 160 154 155 0 0 1 31 158 215 0 160 155 161 0 +.075 0 -.075 0 1 0 0 0 1 .0018 16
 160 199 0 ?162 163 157 158 0 0 1 31 161 214 0 163 158 164 0 +.075 .002 -.075 0
 1 0 0 0 1 .0018 16 163 197 0 ?165 166 160 161 0 0 1 31 164 172 0 167 161 168 0
 +.005 0 -.075 0 1 0 0 0 1 .0018 16 167 149 0 ?169 170 166 164 0 0 1 31 168 171
 0 166 164 171 0 +.005 .002 -.075 0 1 0 0 0 1 .0018 16 166 152 0 ?172 167 163 16
8 0 0 1 30 171 5 0 173 168 174 0 +0 .002 0 0 0 1 16 173 4 0 ?175 176 177 171 0 0
 1 30 174 8 0 176 171 178 0 +0 .002 0 1 0 0 16 176 7 0 ?66 179 173 174 0 0 1 30
 178 11 0 179 174 180 0 +.08 .002 0 0 0 -1 16 179 10 0 ?63 181 176 178 0 0 1 30
 180 14 0 181 178 182 0 +0 .002 -.08 -1 0 0 16 181 13 0 ?60 183 179 180 0 0 1 30
 182 69 0 170 180 184 0 +0 0 0 0 0 1 16 170 57 0 ?185 186 167 182 0 0 1 30 184 6
8 0 186 182 187 0 +0 0 0 1 0 0 16 186 53 0 ?54 188 170 184 0 0 1 30 187 67 0 188
 184 189 0 +.08 0 0 0 0 -1 16 188 49 0 ?51 177 186 187 0 0 1 30 189 66 0 177 187
 190 0 +0 0 -.08 -1 0 0 16 177 45 0 ?47 173 188 189 0 0 1 30 190 86 0 183 189 19
1 0 +0 .002 -.08 0 -1 0 16 183 74 0 ?192 193 181 190 0 0 1 30 191 87 0 193 190 1
94 0 +.08 .002 -.08 0 -1 0 16 193 75 0 ?195 196 183 191 0 0 1 30 194 88 0 196 19
1 197 0 +.08 .002 0 0 -1 0 16 196 76 0 ?198 199 193 194 0 0 1 30 197 89 0 199 19
4 200 0 +0 .002 0 0 -1 0 16 199 77 0 ?201 202 196 197 0 0 1 31 200 226 0 202 197
 203 0 +.005 0 -.005 0 1 0 0 0 1 .0018 16 202 225 0 ?204 205 199 200 0 0 1 31 20
3 229 0 205 200 16 0 +.005 .002 -.005 0 1 0 0 0 1 .0018 16 205 228 0 ?206 20 202
 203 0 0 1 31 16 244 0 20 203 6 0 +.075 0 -.005 0 1 0 0 0 1 .0018 16 20 243 0 ?2
07 9 205 16 0 0 1 17 207 0 208 207 207 0 209 20 0 0 +15 208 235 0 207 210 0 17 2
09 0 211 209 209 0 207 20 0 0 -15 211 241 0 209 14 212 14 255 14 238 213 ?214 21
5 211 4 5 -0 0 214 215 18 15 212 242 0 19 14 0 17 19 0 212 19 19 0 216 9 0 0 +17
 216 0 217 216 216 0 19 9 0 0 -15 217 237 0 216 12 23 14 12 425 218 ?219 0 220 4
 221 -0 0 219 0 18 15 23 423 0 24 12 0 17 24 0 23 30 21 84 103 121 0 222 -17 30
 0 23 25 24 29 222 118 0 31 -16 121 429 0 ?103 27 0 223 0 0 1 17 222 0 224 115 2
25 84 30 118 0 117 +15 224 480 0 222 226 0 17 115 0 224 113 222 73 117 227 0 111
 -17 225 0 224 222 113 29 228 127 0 0 +16 118 441 0 ?222 109 32 229 0 0 1 17 117
 0 116 103 111 84 115 227 0 0 +16 227 432 0 ?117 127 114 230 0 0 1 16 127 444 0
 ?225 105 227 130 0 0 1 16 114 454 0 ?88 227 108 231 0 0 1 30 230 498 0 227 229
 130 0 +.008 .007 -.031 0 -1 0 30 229 499 0 118 232 230 0 +.008 .002 -.031 -1 0
 0 30 130 497 0 127 230 128 0 +.046 .007 -.031 0 -1 0 30 232 500 0 32 233 229 0
 +.046 .002 -.031 -603382078600629e-30 0 -1 16 32 437 0 ?31 118 27 232 0 0 1 30
 233 501 0 27 223 232 0 +.008 .002 -.008 1 0 0 16 27 433 0 ?26 32 121 233 0 0 1
 30 223 502 0 121 231 233 0 +.008 .002 -.031 452536558950471e-30 0 1 30 231 503
 0 114 234 223 0 +.008 .007 -.031 -1 0 0 30 234 504 0 108 110 231 0 +.046 .007 -
.031 -603382078600629e-30 0 -1 16 108 451 0 ?91 114 98 234 0 0 1 30 110 505 0 98
 119 234 0 +.008 .007 -.008 1 0 0 30 119 506 0 109 0 110 0 +.008 .007 -.031 4525
36558950471e-30 0 1 17 91 0 107 88 94 89 106 108 0 228 +17 106 0 235 104 228 92
 91 108 0 0 -17 228 0 235 106 31 89 225 127 0 113 -15 235 476 0 31 236 0 17 31 0
 235 228 104 29 25 32 0 225 +17 113 0 224 225 115 89 88 114 0 0 -17 104 0 235 31
 106 22 97 105 0 0 +14 236 473 237 ?226 100 235 4 238 -0 0 226 100 18 81 255 1 2
37 611 239 236 240 0 218 241 242 14 226 477 241 ?112 236 224 4 243 -0 0 112 236
 18 14 100 469 244 ?236 120 96 4 245 -0 0 236 120 18 50 255 238 491 0 236 243 24
5 0 +.046 .007 -.031 -1 0 603382078600629e-30 603382078600629e-30 0 1 13 18 29 0
 0 0 0 0 0 8 12 50 243 492 0 226 246 238 0 +.008 .007 -.031 0 0 1 1 0 0 50 245 4
90 0 100 238 247 0 +.008 .007 -.008 0 0 -1 -1 0 0 50 247 489 0 120 245 248 0 +.0
08 .007 -.031 1 0 -452536558950471e-30 -452536558950471e-30 0 -1 14 120 465 249
 ?100 250 116 4 247 -0 0 100 250 18 50 248 369 0 250 247 251 0 +0 .007 0 0 1 0 0
 0 1 14 250 356 252 ?120 253 254 4 248 +0 0 120 253 18 50 251 367 0 253 248 255
 0 +.008 .007 -.072 0 0 1 1 0 0 14 253 352 256 ?250 257 258 4 251 -0 0 250 257 1
8 50 255 366 0 257 251 259 0 +.028 .007 -.072 -1 0 1156482317317872e-31 11564823
17317872e-31 0 1 14 257 348 260 ?253 261 262 4 255 -0 0 253 261 18 50 259 365 0
 261 255 263 0 +.008 .007 -.042 0 0 -1 -1 0 0 14 261 344 264 ?257 214 265 4 259
 -0 0 257 214 18 50 263 364 0 214 259 266 0 +.008 .007 -.072 1 0 -17347234759768
05e-31 -1734723475976805e-31 0 -1 14 214 340 267 ?261 14 268 4 263 -0 0 261 14 1
8 51 266 213 0 269 263 270 0 +.075 0 -.075 0 1 0 .0018 0 0 1 14 269 205 271 ?215
 272 273 4 266 -0 0 215 272 18 51 270 168 0 272 266 221 0 +.005 0 -.075 0 1 0 .0
018 0 0 1 14 272 155 274 ?269 210 275 4 270 -0 0 269 210 18 50 221 2 0 12 270 27
6 0 +0 .002 0 0 -1 0 0 0 -1 50 276 65 0 210 221 277 0 +0 0 0 0 -1 0 0 0 -1 14 21
0 43 278 ?272 279 280 4 276 +0 0 272 279 18 50 277 90 0 279 276 281 0 +0 .002 -.
08 0 0 1 1 0 0 14 279 79 282 ?210 283 284 4 277 -0 0 210 283 18 50 281 91 0 283
 277 285 0 +.08 .002 0 -1 0 0 0 0 1 14 283 81 286 ?279 287 288 4 281 -0 0 279 28
7 18 50 285 92 0 287 281 289 0 +0 .002 0 0 0 -1 -1 0 0 14 287 83 290 ?283 219 29
1 4 285 -0 0 283 219 18 50 289 93 0 219 285 15 0 +0 .002 0 1 0 0 0 0 -1 14 219 8
5 292 ?287 12 293 4 289 -0 0 287 12 18 51 15 221 0 215 289 5 0 +.005 0 -.005 0 1
 0 .0018 0 0 1 14 215 220 294 ?14 269 295 4 15 -0 0 14 269 18 81 1 294 627 239 2
15 296 0 292 297 298 15 295 223 0 299 215 300 17 299 0 295 299 299 0 204 202 0 0
 -15 300 224 0 206 215 0 17 206 0 300 206 206 0 301 205 0 0 +17 301 0 302 301 30
1 0 206 205 0 0 -15 302 219 0 301 12 217 17 204 0 303 204 204 0 299 202 0 0 +15
 303 217 0 204 210 208 80 255 1 239 304 305 9000 1 1 1 1 1 1 1 1 0 FFFFTFTFFFFFF
F1 81 1 296 555 306 215 0 294 307 308 309 81 1 292 626 239 219 310 0 290 294 311
 81 1 297 628 239 112 312 0 294 0 313 82 255 1 298 609419384 14 112 481 297 ?0 2
26 107 4 246 +0 0 0 226 18 81 1 312 566 306 112 0 297 314 0 315 82 1 313 -138379
2512 80 1 306 0 316 8001 0 0 0 0 3 5 0 0 0 FFFFTFTFFFFFFF2 81 1 314 565 306 226
 0 241 240 312 317 83 255 3 315 .792156862745098 .819607843137255 .9333333333333
33 81 1 241 612 239 226 314 0 237 244 318 81 1 240 564 306 236 0 237 319 314 320
 83 3 317 .792156862745098 .819607843137255 .933333333333333 81 1 319 563 306 10
0 0 244 321 240 322 83 3 320 .792156862745098 .819607843137255 .933333333333333
 81 1 244 613 239 100 319 0 241 249 323 81 1 321 562 306 120 0 249 324 319 325 8
3 3 322 .792156862745098 .819607843137255 .933333333333333 81 1 249 614 239 120
 321 0 244 252 326 81 1 324 561 306 250 0 252 327 321 328 83 3 325 .792156862745
098 .819607843137255 .933333333333333 81 1 252 615 239 250 324 0 249 256 329 81
 1 327 560 306 253 0 256 330 324 331 83 3 328 .792156862745098 .819607843137255
 .933333333333333 81 1 256 616 239 253 327 0 252 260 332 81 1 330 559 306 257 0
 260 333 327 334 83 3 331 .792156862745098 .819607843137255 .933333333333333 81
 1 260 617 239 257 330 0 256 264 335 81 1 333 558 306 261 0 264 336 330 337 83 3
 334 .792156862745098 .819607843137255 .933333333333333 81 1 264 618 239 261 333
 0 260 267 338 81 1 336 557 306 214 0 267 308 333 339 83 3 337 .792156862745098
 .819607843137255 .933333333333333 81 1 267 619 239 214 336 0 264 271 340 81 1 3
08 556 306 14 0 213 296 336 341 83 3 339 .792156862745098 .819607843137255 .9333
33333333333 81 1 213 609 239 14 308 0 0 218 342 83 3 341 .792156862745098 .81960
7843137255 .933333333333333 81 1 218 610 239 12 343 0 213 237 344 82 1 342 61086
1176 81 1 343 547 306 12 0 218 0 310 345 82 1 344 -1371602816 81 1 310 548 306 2
19 0 292 343 346 347 83 3 345 .792156862745098 .819607843137255 .933333333333333
 81 1 346 549 306 287 0 290 310 348 349 83 3 347 .792156862745098 .8196078431372
55 .933333333333333 81 1 290 625 239 287 346 0 286 292 350 81 1 348 550 306 283
 0 286 346 351 352 83 3 349 .792156862745098 .819607843137255 .933333333333333 8
1 1 286 624 239 283 348 0 282 290 353 81 1 351 551 306 279 0 282 348 354 355 83
 3 352 .792156862745098 .819607843137255 .933333333333333 81 1 282 623 239 279 3
51 0 278 286 356 81 1 354 552 306 210 0 278 351 357 358 83 3 355 .79215686274509
8 .819607843137255 .933333333333333 81 1 278 622 239 210 354 0 274 282 359 81 1
 357 553 306 272 0 274 354 307 360 83 3 358 .792156862745098 .819607843137255 .9
33333333333333 81 1 274 621 239 272 357 0 271 278 361 81 1 307 554 306 269 0 271
 357 296 362 83 3 360 .792156862745098 .819607843137255 .933333333333333 81 1 27
1 620 239 269 307 0 267 274 363 83 3 362 .792156862745098 .819607843137255 .9333
33333333333 82 1 363 607125624 82 1 361 597753975 82 1 359 24772728 82 1 356 -52
6581656 82 1 353 -526319512 82 1 350 -526057368 82 1 340 239992956 82 1 338 2397
30812 82 1 335 239468668 82 1 332 239206524 82 1 329 232652924 82 1 326 -1376452
480 82 1 323 -1376714624 82 1 318 -1377238912 79 255 15 316 SDL/TYSA_COLOUR50 24
6 494 0 112 0 243 0 +0 .007 0 0 1 0 0 0 1 82 1 311 -525795224 83 3 309 .79215686
2745098 .819607843137255 .933333333333333 79 14 305 SWEntUnchanged15 293 84 0 18
5 219 0 17 185 0 293 364 192 55 365 170 0 0 +17 364 0 293 366 185 48 201 199 0 0
 -17 192 0 293 185 366 45 367 183 0 365 +17 365 0 368 369 57 45 185 170 0 0 -15
 368 44 0 365 210 303 17 369 0 368 370 365 49 47 177 0 0 -17 57 0 368 365 370 55
 54 186 0 201 -17 370 0 368 57 369 52 51 188 0 0 -17 54 0 291 371 201 52 57 186
 0 198 +17 201 0 291 54 68 55 364 199 0 185 +15 291 82 0 54 287 0 17 68 0 291 20
1 371 48 66 176 0 175 -17 371 0 291 68 54 64 198 196 0 372 -17 66 0 373 63 175 6
4 68 176 0 371 +17 175 0 373 66 60 48 366 173 0 364 +15 373 3 0 175 12 302 17 60
 0 373 175 63 44 374 181 0 367 +17 366 0 293 192 364 44 175 173 0 0 -17 63 0 373
 60 66 61 372 179 0 375 +17 374 0 284 195 367 61 60 181 0 0 -17 367 0 284 374 47
 44 192 183 0 366 -15 284 78 0 47 279 0 17 47 0 284 367 195 45 369 177 0 192 +17
 195 0 284 47 374 49 375 193 0 369 +17 375 0 288 372 51 61 195 193 0 374 -15 288
 80 0 51 283 0 17 372 0 288 198 375 64 63 179 0 0 -17 51 0 288 375 198 49 370 18
8 0 195 +17 198 0 288 51 372 52 371 196 0 370 +15 280 186 0 162 210 376 17 162 0
 280 162 162 0 377 160 0 0 +15 376 138 0 169 210 368 17 169 0 376 169 169 0 378
 167 0 0 +17 378 0 275 378 378 0 169 167 0 0 -15 275 158 0 378 272 379 15 379 15
9 0 172 272 0 17 172 0 379 172 172 0 380 166 0 0 +17 380 0 381 380 380 0 172 166
 0 0 -15 381 143 0 380 12 373 17 377 0 273 377 377 0 162 160 0 0 -15 273 207 0 3
77 269 382 15 382 208 0 165 269 0 17 165 0 382 165 165 0 383 163 0 0 +17 383 0 3
84 383 383 0 165 163 0 0 -15 384 191 0 383 12 381 15 268 343 0 124 214 0 17 124
 0 268 385 150 33 71 122 0 0 +17 385 0 268 386 124 72 159 157 0 0 -17 150 0 268
 124 386 69 387 140 0 0 +17 71 0 220 43 37 69 124 122 0 148 -15 220 298 0 71 12
 384 17 43 0 220 40 71 41 148 135 0 146 -17 37 0 220 71 40 33 143 125 0 159 -17
 148 0 258 387 153 69 43 135 0 150 +15 258 355 0 148 253 0 17 387 0 258 388 148
 58 150 140 0 386 -17 153 0 258 148 388 41 389 151 0 0 +17 388 0 258 153 387 76
 75 139 0 0 -17 389 0 262 390 146 76 153 151 0 388 -15 262 351 0 146 257 0 17 39
0 0 262 156 389 79 78 137 0 0 -17 146 0 262 389 156 41 40 144 0 153 +17 156 0 26
2 146 390 38 391 154 0 0 +17 40 0 220 37 43 38 146 144 0 143 -17 143 0 265 391 1
59 38 37 125 0 156 +15 265 347 0 143 261 0 17 391 0 265 83 143 79 156 154 0 390
 -17 159 0 265 143 83 33 385 157 0 124 +17 83 0 265 159 391 72 81 134 0 133 -17
 81 0 254 78 133 79 83 134 0 391 +17 133 0 254 81 75 72 386 131 0 385 +15 254 35
8 0 133 250 0 17 75 0 254 133 78 58 388 139 0 387 +17 386 0 268 150 385 58 133 1
31 0 0 -17 78 0 254 75 81 76 390 137 0 389 +82 1 242 -1376976768 17 26 0 96 97 2
8 22 21 27 0 104 +19 13 95 0 1 0 8 4 S0 74 4 CI16 index_map_offset0 0 1 dCCZ20 1
1 2 0 0 297 312 0 0 0 0 0 0 0 0 0 0 0 0 0 0 0 0 0 0 1 0 
