**ABCDEFGHIJKLMNOPQRSTUVWXYZabcdefghijklmnopqrstuvwxyz**************************
**PARASOLID !"#$%&'()*+,-./:;<=>?@[\]^_`{|}~0123456789**************************
**PART1;
MC=AMD64;
MC_MODEL=Intel64 Family 6 Model 58 Stepping 9, GenuineIntel;
MC_ID=unknown;
OS=Windows_NT;
OS_RELEASE=unknown;
FRU=Parasolid Version 27.0, build 199, 11-19-2014;
APPL=SOLIDWORKS 2015-2015063;
SITE=;
USER=unknown;
FORMAT=text;
GUISE=transmit;
KEY=PMUBoard;
FILE=PMUBoard.x_t;
DATE=Fri Sep 25 02:07:25 2015;
**PART2;
SCH=SCH_2700199_26105;
USFLD_SIZE=0;
**PART3;
**END_OF_HEADER*****************************************************************
T51 : TRANSMIT FILE created by modeller version 270019923 SCH_2700199_26105_1300
6196 0 12 30 CCCCCCCCCCCCCDI5 owner1040 0 CCCCCCCCCA13 boundary_mesh1006 0 A16 i
ndex_map_offset0 0 1 dA9 index_map82 0 A17 node_id_index_map82 0 A20 schema_embe
dding_map82 0 A5 child12 0 A14 lowest_node_id0 0 1 dZ1 1222 0 2 0 0 0 0 1e3 1e-8
 0 3 0 1 0 1 1 4 5 6 7 8 9 10 0 0 0 0 0 0 0 70 11 CI9 list_type0 0 1 uI10 notran
smit0 0 1 lCCCDCCDI12 finger_index0 0 1 dI12 finger_block1012 0 CZ2 0 4 T1 0 0 2
 20 1 11 11 13 255 4 94 0 1 0 12 0 0 13 0 50 255 5 93 0 14 15 0 0 +0 .002 0 1 0
 0 0 0 -1 31 255 6 785 0 16 17 0 0 +.005 .007 -.005 0 1 0 0 0 1 .0018 29 255 7 5
09 0 10 18 0 .033 .002 -.045 19 8 CCCCCCCA5 owner12 0 Z8 28 0 1 13 0 19 V0 16 25
5 9 77 0 ?20 0 21 22 0 0 1 18 255 10 507 0 23 0 24 7 ?1 17 255 23 0 25 26 27 10
 28 29 0 30 -18 24 504 0 26 10 31 18 ?1 17 26 0 25 32 23 24 30 33 0 34 -18 31 50
1 0 27 24 35 36 ?1 29 18 506 0 24 36 7 0 .002 -.045 29 36 503 0 31 37 18 .033 .0
02 -.08 29 37 402 0 35 38 36 .033 .002 -.035 18 35 400 0 39 31 40 37 ?1 29 38 39
9 0 40 41 37 0 .002 -.035 18 40 397 0 32 35 42 38 ?1 29 41 294 0 42 43 38 .047 .
002 -.045 18 42 292 0 44 40 45 41 ?1 29 43 291 0 45 46 41 .08 .002 -.045 18 45 2
88 0 47 42 48 43 ?1 29 46 143 0 48 49 43 .08 .002 -.035 18 48 141 0 50 45 51 46
 1e-8 1 29 49 138 0 51 52 46 .047 .002 0 18 51 136 0 53 48 54 49 1e-8 1 29 52 70
 0 54 55 49 0 0 -.08 18 54 61 0 56 51 57 52 ?1 29 55 71 0 57 58 52 .08 0 -.08 18
 57 62 0 59 54 60 55 ?1 29 58 72 0 60 61 55 .08 0 0 18 60 63 0 62 57 63 58 ?1 29
 61 73 0 63 64 58 0 0 0 18 63 64 0 65 60 66 61 ?1 29 64 236 0 67 68 61 .047 .002
 -.035 18 67 184 0 69 70 71 64 ?1 29 68 238 0 66 72 64 .08 .007 -433680868994202
e-33 18 66 190 0 73 63 74 68 ?1 29 72 239 0 74 75 68 .047 .007 3469446951953615e
-33 18 74 189 0 76 66 77 72 ?1 29 75 240 0 77 78 72 .047 .007 -.035 18 77 188 0
 79 74 70 75 ?1 29 78 241 0 70 80 75 .08 .007 -.035 18 70 185 0 81 77 67 78 ?1 2
9 80 382 0 82 83 78 .047 .002 -.08 18 82 330 0 84 85 86 80 ?1 29 83 384 0 71 87
 80 .08 .007 -.045 18 71 336 0 88 67 89 83 ?1 29 87 385 0 89 90 83 .047 .007 -.0
45 18 89 335 0 91 71 92 87 ?1 29 90 386 0 92 93 87 .047 .007 -.08 18 92 334 0 94
 89 85 90 ?1 29 93 387 0 85 95 90 .08 .007 -.08 18 85 331 0 96 92 82 93 ?1 29 95
 488 0 97 98 93 .033 .002 -433680868994202e-33 18 97 441 0 99 100 101 95 ?1 29 9
8 492 0 86 102 95 .033 .007 -433680868994202e-33 18 86 444 0 103 82 104 98 ?1 29
 102 493 0 104 105 98 0 .007 3469446951953615e-33 18 104 443 0 106 86 107 102 ?1
 29 105 494 0 107 108 102 0 .007 -.035 18 107 442 0 109 104 100 105 ?1 29 108 49
5 0 100 110 105 .033 .007 -.035 18 100 439 0 111 107 97 108 ?1 29 110 599 0 101
 112 108 .033 .007 -.045 18 101 551 0 113 97 114 110 ?1 29 112 600 0 114 115 110
 0 .007 -.045 18 114 550 0 116 101 117 112 ?1 29 115 601 0 117 118 112 0 .007 -.
08 18 117 549 0 119 114 120 115 ?1 29 118 602 0 120 0 115 .033 .007 -.08 18 120
 546 0 121 117 0 118 ?1 17 121 0 122 123 119 120 124 125 0 126 -15 255 122 78 0
 56 127 0 17 123 0 122 84 121 31 128 129 0 28 +17 119 0 122 121 56 117 130 131 0
 124 -17 124 0 132 116 126 117 121 125 0 133 +16 125 536 0 ?124 134 135 136 0 0
 1 17 126 0 132 124 113 120 137 135 0 128 +15 132 571 0 126 138 0 17 113 0 132 1
26 116 101 139 140 0 141 +17 137 0 142 143 128 101 126 135 0 0 -16 135 533 0 ?12
6 125 33 144 0 0 1 17 128 0 142 137 28 120 123 129 0 0 -15 142 556 0 28 145 0 17
 28 0 142 128 143 31 23 29 0 0 +16 129 524 0 ?123 146 147 148 0 0 1 16 146 410 0
 ?149 150 129 151 0 0 1 16 147 532 0 ?152 129 153 154 0 0 1 30 255 148 583 0 129
 154 155 0 +.033 .007 -.08 0 -1 0 30 154 585 0 147 156 148 0 +0 .007 -.045 0 -1
 0 30 155 487 0 157 148 158 0 +.033 .007 -433680868994202e-33 -396508223080413e-
30 0 -1 16 157 426 0 ?159 160 150 155 0 0 1 30 158 486 0 160 155 161 0 +.033 .00
7 -.035 -1 0 210269512239613e-30 16 160 429 0 ?109 162 157 158 0 0 1 30 161 485
 0 162 158 163 0 +0 .007 3469446951953615e-33 0 0 1 16 162 432 0 ?164 165 160 16
1 0 0 1 30 163 484 0 165 161 151 0 +.033 .007 -433680868994202e-33 1 0 -11827660
06347822e-31 16 165 435 0 ?103 166 162 163 0 0 1 30 151 483 0 146 163 167 0 +.03
3 .002 -433680868994202e-33 -396508223080413e-30 0 -1 30 167 482 0 150 151 168 0
 +.033 .002 -.035 -1 0 210269512239613e-30 16 150 414 0 ?169 157 146 167 0 0 1 3
0 168 479 0 166 167 170 0 +.033 .007 -433680868994202e-33 0 -1 0 16 166 413 0 ?1
71 172 165 168 0 0 1 30 170 477 0 172 168 173 0 +0 .007 -.035 0 -1 0 16 172 421
 0 ?174 175 166 170 0 0 1 30 173 476 0 175 170 176 0 +.033 .007 -.035 0 -1 0 16
 175 417 0 ?177 178 172 173 0 0 1 30 176 379 0 179 173 180 0 +.08 .007 -.045 -39
6508223080413e-30 0 -1 16 179 318 0 ?181 182 183 176 0 0 1 30 180 378 0 182 176
 184 0 +.08 .007 -.08 -1 0 210269512239613e-30 16 182 321 0 ?94 185 179 180 0 0
 1 30 184 377 0 185 180 186 0 +.047 .007 -.045 0 0 1 16 185 324 0 ?91 187 182 18
4 0 0 1 30 186 376 0 187 184 188 0 +.08 .007 -.045 1 0 -1182766006347822e-31 16
 187 327 0 ?88 189 185 186 0 0 1 30 188 373 0 178 186 190 0 +.047 .002 -.045 0 0
 1 16 178 310 0 ?191 183 175 188 0 0 1 30 190 372 0 183 188 192 0 +.08 .002 -.04
5 1 0 -1182766006347822e-31 16 183 314 0 ?193 179 178 190 0 0 1 30 192 371 0 189
 190 194 0 +.08 .007 -.045 0 -1 0 16 189 305 0 ?195 196 187 192 0 0 1 30 194 370
 0 196 192 197 0 +.047 .007 -.045 0 -1 0 16 196 317 0 ?198 199 189 194 0 0 1 30
 197 369 0 199 194 200 0 +.047 .007 -.08 0 -1 0 16 199 313 0 ?201 202 196 197 0
 0 1 30 200 233 0 203 197 204 0 +.08 .007 -433680868994202e-33 -396508223080413e
-30 0 -1 16 203 172 0 ?205 206 207 200 0 0 1 30 204 232 0 206 200 208 0 +.08 .00
7 -.035 -1 0 210269512239613e-30 16 206 175 0 ?79 209 203 204 0 0 1 30 208 231 0
 209 204 210 0 +.047 .007 3469446951953615e-33 0 0 1 16 209 178 0 ?76 211 206 20
8 0 0 1 30 210 230 0 211 208 212 0 +.08 .007 -433680868994202e-33 1 0 -118276600
6347822e-31 16 211 181 0 ?213 214 209 210 0 0 1 30 212 227 0 1 210 215 216 +.047
 .002 3469446951953615e-33 0 0 1 30 215 223 0 217 212 218 0 +.047 .007 -.035 0 -
1 0 141 255 216 219 216 216 212 133 255 219 253 0 207 220 221 0 +212 .047 .002 -
.035 .047 .002 0 -.035 -3469446951953615e-33 16 207 164 0 ?222 203 202 219 0 0 1
 30 220 246 0 1 223 219 224 +.08 .007 -.035 0 -1 0 133 221 254 0 214 219 225 0 +
225 .047 .007 3469446951953615e-33 .047 .002 3469446951953615e-33 0 .005 16 214
 171 0 ?226 217 211 221 0 0 1 30 225 255 0 1 221 227 228 +.047 .007 346944695195
3615e-33 0 -1 0 133 227 395 0 229 225 230 0 +231 .033 .002 0 .047 .002 0 .033 .0
47 141 228 221 228 228 225 16 229 394 0 ?53 232 233 227 0 0 1 31 230 653 0 234 2
27 235 0 +.005 .007 -.075 0 1 0 0 0 1 .0018 30 231 8 0 1 218 236 237 +0 .002 0 1
 0 0 30 218 5 0 233 215 231 0 +0 .002 0 0 0 1 30 236 11 0 1 231 238 239 +.08 .00
2 0 0 0 -1 141 237 227 237 237 231 30 238 14 0 240 236 241 0 +0 .002 -.08 -1 0 0
 141 239 242 239 239 236 133 242 144 0 232 22 243 0 +236 .08 .002 -.035 .08 .002
 -.045 .035 .045 16 232 142 0 ?47 240 229 242 0 0 1 30 22 89 0 9 244 242 0 +0 .0
02 0 0 -1 0 133 243 243 0 202 242 245 0 +245 .08 .002 -.035 .047 .002 -.035 -138
7778780781446e-32 .033 16 202 160 0 ?246 207 199 243 0 0 1 30 245 244 0 1 243 22
3 247 +.08 .002 -.035 -1 0 210269512239613e-30 133 223 245 0 248 245 220 0 +220
 .08 .007 -.035 .08 .002 -.035 0 .005 141 247 243 247 247 245 16 248 163 0 ?249
 250 217 223 0 0 1 17 249 0 251 246 81 48 252 248 0 0 +16 250 57 0 ?253 254 248
 241 0 0 1 16 217 167 0 ?255 248 214 215 0 0 1 17 255 0 256 222 257 67 258 217 0
 0 +15 256 203 0 222 259 0 17 222 0 256 260 255 51 69 207 0 226 +17 257 0 256 25
5 260 77 76 209 0 0 -17 258 0 251 81 246 77 255 217 0 257 -15 251 199 0 246 261
 0 17 81 0 251 249 258 70 79 206 0 205 -17 246 0 251 258 249 67 50 202 0 255 +17
 50 0 25 47 69 48 246 202 0 262 -15 25 512 0 23 12 0 17 47 0 25 44 50 45 262 232
 0 193 +17 69 0 25 50 53 67 222 207 0 246 -17 262 0 263 252 195 48 47 232 0 249
 -15 263 80 0 59 264 0 17 252 0 263 265 262 70 249 248 0 0 -17 195 0 263 262 266
 45 267 189 0 0 +17 266 0 263 195 96 71 181 179 0 0 -17 267 0 268 269 193 71 195
 189 0 266 -15 268 353 0 193 270 0 17 269 0 268 198 267 89 88 187 0 0 -17 193 0
 268 267 198 45 44 183 0 195 +17 198 0 268 193 269 42 271 196 0 0 +17 44 0 25 27
2 47 42 193 183 0 191 -17 272 0 25 27 44 82 191 178 0 201 -17 191 0 273 271 201
 42 272 178 0 198 +15 273 349 0 191 274 0 17 271 0 273 275 191 89 198 196 0 269
 -17 201 0 273 191 275 82 276 199 0 0 +17 275 0 273 201 271 92 91 185 0 0 -17 27
6 0 122 277 84 92 201 199 0 275 -17 277 0 122 278 276 85 94 182 0 181 -17 84 0 1
22 276 123 82 27 240 0 272 -17 27 0 25 23 272 31 84 240 0 123 +16 240 286 0 ?27
 131 232 238 0 0 1 16 131 74 0 ?130 279 240 280 0 0 1 17 130 0 281 253 133 54 11
9 131 0 282 +16 279 75 0 ?278 21 131 283 0 0 1 30 280 86 0 131 284 283 0 +0 .002
 -.08 0 -1 0 30 284 66 0 285 286 280 0 +0 0 -.08 -1 0 0 30 283 87 0 279 280 244
 0 +.08 .002 -.08 0 -1 0 30 244 88 0 21 283 22 0 +.08 .002 0 0 -1 0 16 21 76 0 ?
287 9 279 244 0 0 1 17 287 0 263 59 265 60 73 21 0 288 +17 59 0 263 96 287 57 28
8 289 0 278 +17 265 0 263 287 252 66 205 203 0 0 -17 73 0 290 291 62 66 287 21 0
 213 -17 288 0 292 65 293 60 59 289 0 0 -15 292 44 0 282 294 0 17 65 0 292 282 2
88 63 62 254 0 20 -17 293 0 292 288 282 57 56 285 0 0 -16 289 49 0 ?59 285 254 2
86 0 0 1 16 285 45 0 ?56 233 289 284 0 0 1 16 254 53 0 ?62 289 250 295 0 0 1 30
 286 67 0 289 295 284 0 +.08 0 0 0 0 -1 30 295 68 0 254 241 286 0 +0 0 0 1 0 0 3
0 241 69 0 250 238 295 0 +0 0 0 0 0 1 17 62 0 290 73 20 60 65 254 0 287 +15 290
 82 0 62 296 0 17 20 0 290 62 297 63 106 9 0 253 +17 297 0 290 20 298 104 103 16
5 0 0 -17 106 0 281 299 253 104 20 9 0 164 -17 253 0 281 106 130 63 282 250 0 0
 +15 281 84 0 253 14 0 17 282 0 292 293 65 54 253 250 0 0 -14 255 14 85 300 ?296
 12 281 4 5 -0 0 296 12 19 81 255 1 300 1196 301 14 302 0 0 303 304 14 296 83 30
3 ?264 14 290 4 15 -0 0 264 14 19 14 12 514 305 ?14 0 25 4 306 -0 0 14 0 19 13 1
9 29 0 0 0 0 0 0 8 12 81 1 305 1198 301 12 307 0 303 308 309 50 306 2 0 12 310 3
11 0 +0 .002 0 0 -1 0 0 0 -1 50 310 217 0 261 312 306 0 +.08 .007 -.035 21026951
2239613e-30 0 1 1 0 -210269512239613e-30 50 311 65 0 294 306 313 0 +0 0 0 0 -1 0
 0 0 -1 14 294 43 308 ?261 127 314 4 311 +0 0 261 127 19 50 313 90 0 127 311 315
 0 +0 .002 -.08 0 0 1 1 0 0 14 127 79 316 ?294 264 122 4 313 -0 0 294 264 19 50
 315 91 0 264 313 15 0 +.08 .002 0 -1 0 0 0 0 1 14 264 81 317 ?127 296 263 4 315
 -0 0 127 296 19 50 15 92 0 296 315 5 0 +0 .002 0 0 0 -1 -1 0 0 81 1 317 1201 30
1 264 318 0 316 319 320 80 255 1 301 321 322 9000 1 1 1 1 1 1 1 1 0 FFFFTFTFFFFF
FF1 81 1 318 1110 323 264 0 317 324 325 326 81 1 316 1200 301 127 325 0 308 317
 327 81 1 319 1202 301 261 328 0 317 329 330 82 255 1 320 191693104 14 261 196 3
19 ?259 294 251 4 310 -0 0 259 294 19 81 1 328 1113 323 261 0 319 331 332 333 81
 1 329 1203 301 259 332 0 319 334 335 82 1 330 1057489199 14 259 200 329 ?336 26
1 256 4 312 -0 0 336 261 19 81 1 332 1114 323 259 0 329 328 337 338 81 1 334 120
4 301 336 337 0 329 339 340 82 1 335 1057227055 14 336 208 334 ?274 259 341 4 34
2 +0 0 274 259 19 81 1 337 1115 323 336 0 334 332 343 344 81 1 339 1205 301 274
 343 0 334 345 346 82 1 340 -1975975599 14 274 346 339 ?270 336 273 4 347 -0 0 2
70 336 19 81 1 343 1116 323 274 0 339 337 348 349 81 1 345 1206 301 270 348 0 33
9 350 351 82 1 346 1097466160 14 270 350 345 ?352 274 268 4 353 -0 0 352 274 19
 81 1 348 1117 323 270 0 345 343 354 355 81 1 350 1207 301 352 354 0 345 356 357
 82 1 351 1097204016 14 352 354 350 ?358 270 359 4 360 +0 0 358 270 19 81 1 354
 1118 323 352 0 350 348 361 362 81 1 356 1208 301 358 361 0 350 363 364 82 1 357
 -1975385775 14 358 446 356 ?365 352 366 4 367 -0 0 365 352 19 81 1 361 1119 323
 358 0 356 354 368 369 81 1 363 1209 301 365 368 0 356 370 371 82 1 364 11200760
80 14 365 450 363 ?372 358 373 4 374 -0 0 372 358 19 81 1 368 1120 323 365 0 363
 361 375 376 81 1 370 1210 301 372 375 0 363 377 378 82 1 371 1119813936 14 372
 462 370 ?145 365 379 4 380 +0 0 145 365 19 81 1 375 1121 323 372 0 370 368 381
 382 81 1 377 1211 301 145 381 0 370 383 384 82 1 378 -1974795949 14 145 553 377
 ?385 372 142 4 386 -0 0 385 372 19 81 1 381 1122 323 145 0 377 375 387 388 81 1
 383 1212 301 385 387 0 377 389 390 82 1 384 1142096176 14 385 565 383 ?138 145
 391 4 392 -0 0 138 145 19 81 1 387 1123 323 385 0 383 381 393 394 81 1 389 1213
 301 138 393 0 383 395 396 82 1 390 1141309744 14 138 569 389 ?397 385 398 4 399
 +0 0 397 385 19 81 1 393 1124 323 138 0 389 387 400 401 81 1 395 1214 301 397 4
00 0 389 402 403 82 1 396 -1974206127 14 397 675 395 ?404 138 405 4 406 -0 0 404
 138 19 81 1 400 1125 323 397 0 395 393 407 408 81 1 402 1215 301 404 407 0 395
 409 410 82 1 403 -1285029554 14 404 719 402 ?411 397 412 4 413 -0 0 411 397 19
 81 1 407 1126 323 404 0 402 400 414 415 81 1 409 1216 301 411 414 0 402 416 417
 82 1 410 -1281031858 14 411 763 409 ?418 404 419 4 420 -0 0 418 404 19 81 1 414
 1127 323 411 0 409 407 421 422 81 1 416 1217 301 418 421 0 409 423 424 82 1 417
 -1277099698 14 418 807 416 ?425 411 426 4 427 -0 0 425 411 19 81 1 421 1128 323
 418 0 416 414 428 429 81 1 423 1218 301 425 428 0 416 430 431 82 1 424 -1273167
538 14 425 870 423 ?432 418 433 4 434 -0 0 432 418 19 81 1 428 1129 323 425 0 42
3 421 435 436 81 1 430 1219 301 432 435 0 423 437 438 82 1 431 -1225588400 14 43
2 916 430 ?439 425 440 4 441 -0 0 439 425 19 81 1 435 1130 323 432 0 430 428 442
 443 81 1 437 1220 301 439 442 0 430 444 445 82 1 438 -1215364783 14 439 954 437
 ?446 432 447 4 448 -0 0 446 432 19 81 1 442 1131 323 439 0 437 435 449 450 81 1
 444 1221 301 446 449 0 437 451 452 82 1 445 -1207893679 14 446 992 444 ?453 439
 454 4 455 -0 0 453 439 19 81 1 449 1132 323 446 0 444 442 456 457 81 1 451 1222
 301 453 456 0 444 0 458 82 1 452 -1200488111 14 453 1047 451 ?0 446 459 4 460 -
0 0 0 446 19 81 1 456 1133 323 453 0 451 449 0 461 82 1 458 -1183776429 80 1 323
 0 462 8001 0 0 0 0 3 5 0 0 0 FFFFTFTFFFFFFF2 83 255 3 461 .792156862745098 .819
607843137255 .933333333333333 79 255 15 462 SDL/TYSA_COLOUR15 459 1050 0 463 453
 464 51 255 460 1060 0 453 0 455 0 +.028 0 -.005 0 1 0 .0015875 0 0 1 51 455 100
5 0 446 460 448 0 +.075 0 -.05 0 1 0 .0015875 0 0 1 51 448 967 0 439 455 441 0 +
.075 0 -.03 0 1 0 .0015875 0 0 1 51 441 929 0 432 448 434 0 +.005 0 -.05 0 1 0 .
0015875 0 0 1 51 434 883 0 425 441 427 0 +.005 0 -.03 0 1 0 .0015875 0 0 1 51 42
7 820 0 418 434 420 0 +.005 0 -.005 0 1 0 .0018 0 0 1 51 420 776 0 411 427 413 0
 +.075 0 -.005 0 1 0 .0018 0 0 1 51 413 732 0 404 420 406 0 +.075 0 -.075 0 1 0
 .0018 0 0 1 51 406 688 0 397 413 399 0 +.005 0 -.075 0 1 0 .0018 0 0 1 50 399 5
82 0 138 406 392 0 +-.047 .007 -.045 0 1 0 0 0 1 50 392 580 0 385 399 386 0 +.03
3 .007 -.045 -1182766006347822e-31 0 -1 -1 0 1182766006347822e-31 50 386 577 0 1
45 392 380 0 +.033 .007 -.045 -1 0 396508223080413e-30 396508223080413e-30 0 1 5
0 380 475 0 372 386 374 0 +-.047 .007 0 0 1 0 0 0 1 50 374 471 0 365 380 367 0 +
.033 .007 -.035 210269512239613e-30 0 1 1 0 -210269512239613e-30 50 367 470 0 35
8 374 360 0 +.033 .007 -433680868994202e-33 -1 0 396508223080413e-30 39650822308
0413e-30 0 1 50 360 367 0 352 367 353 0 +0 .007 -.045 0 1 0 0 0 1 50 353 365 0 2
70 360 347 0 +.08 .007 -.045 -1182766006347822e-31 0 -1 -1 0 1182766006347822e-3
1 50 347 364 0 274 353 342 0 +.047 .007 -.045 1 0 0 0 0 -1 50 342 221 0 336 347
 312 0 +0 .007 0 0 1 0 0 0 1 50 312 218 0 259 342 310 0 +.047 .007 3469446951953
615e-33 1 0 0 0 0 -1 17 463 0 459 463 463 0 465 466 0 0 -15 464 1051 0 467 453 0
 17 467 0 464 467 467 0 468 469 0 0 +17 468 0 379 468 468 0 467 469 0 0 -16 469
 1044 0 ?467 466 0 470 0 0 1 16 466 1041 0 ?465 471 469 472 0 0 1 31 470 1063 0
 469 472 473 0 +.028 .007 -.005 0 1 0 0 0 1 .0015875 31 472 1064 0 466 0 470 0 +
.028 0 -.005 0 1 0 0 0 1 .0015875 31 473 1009 0 474 470 475 0 +.075 0 -.05 0 1 0
 0 0 1 .0015875 16 474 986 0 ?476 477 471 473 0 0 1 31 475 1008 0 471 473 478 0
 +.075 .007 -.05 0 1 0 0 0 1 .0015875 16 471 989 0 ?479 474 466 475 0 0 1 31 478
 971 0 480 475 481 0 +.075 0 -.03 0 1 0 0 0 1 .0015875 16 480 948 0 ?482 483 477
 478 0 0 1 31 481 970 0 477 478 484 0 +.075 .007 -.03 0 1 0 0 0 1 .0015875 16 47
7 951 0 ?485 480 474 481 0 0 1 31 484 933 0 486 481 487 0 +.005 0 -.05 0 1 0 0 0
 1 .0015875 16 486 910 0 ?488 489 483 484 0 0 1 31 487 932 0 483 484 490 0 +.005
 .007 -.05 0 1 0 0 0 1 .0015875 16 483 913 0 ?491 486 480 487 0 0 1 31 490 887 0
 492 487 493 0 +.005 0 -.03 0 1 0 0 0 1 .0015875 16 492 864 0 ?494 495 489 490 0
 0 1 31 493 886 0 489 490 496 0 +.005 .007 -.03 0 1 0 0 0 1 .0015875 16 489 867
 0 ?497 492 486 493 0 0 1 31 496 823 0 495 493 498 0 +.005 0 -.005 0 1 0 0 0 1 .
0018 16 495 796 0 ?499 16 492 496 0 0 1 31 498 779 0 500 496 501 0 +.075 0 -.005
 0 1 0 0 0 1 .0018 16 500 752 0 ?502 503 16 498 0 0 1 31 501 735 0 504 498 505 0
 +.075 0 -.075 0 1 0 0 0 1 .0018 16 504 708 0 ?506 507 503 501 0 0 1 31 505 691
 0 508 501 144 0 +.005 0 -.075 0 1 0 0 0 1 .0018 16 508 664 0 ?509 234 507 505 0
 0 1 30 144 594 0 135 505 136 0 +.033 .007 -.045 -396508223080413e-30 0 -1 30 13
6 593 0 125 144 510 0 +.033 .007 -.08 -1 0 210269512239613e-30 30 510 592 0 134
 136 511 0 +0 .007 -.045 0 0 1 16 134 539 0 ?116 140 125 510 0 0 1 30 511 591 0
 140 510 512 0 +.033 .007 -.045 1 0 -1182766006347822e-31 16 140 542 0 ?113 153
 134 511 0 0 1 30 512 590 0 29 511 513 0 +.033 .002 -.045 -396508223080413e-30 0
 -1 16 29 517 0 ?28 33 234 512 0 0 1 30 513 587 0 33 512 156 0 +.033 .002 -.045
 1 0 -1182766006347822e-31 16 33 529 0 ?30 135 29 513 0 0 1 30 156 586 0 153 513
 154 0 +.033 .007 -.045 0 -1 0 16 153 520 0 ?143 147 140 156 0 0 1 17 143 0 142
 28 137 10 141 153 0 0 +17 141 0 391 139 30 101 143 153 0 137 -15 391 568 0 30 3
85 0 17 139 0 391 152 141 114 113 140 0 0 -17 30 0 391 141 152 10 26 33 0 143 +1
7 152 0 391 30 139 24 514 147 0 0 +17 514 0 281 133 34 114 152 147 0 139 -17 133
 0 281 130 514 117 116 134 0 0 -17 34 0 281 514 174 24 32 233 0 152 -17 174 0 28
1 34 299 40 515 172 0 0 +17 32 0 25 39 26 40 34 233 0 169 +16 233 505 0 ?32 229
 285 218 0 0 1 17 39 0 25 516 32 35 169 150 0 177 -17 169 0 373 515 177 40 39 15
0 0 174 +15 373 453 0 169 365 0 17 515 0 373 111 169 107 174 172 0 299 -17 177 0
 373 169 111 35 517 175 0 149 +17 111 0 373 177 515 100 109 160 0 159 -17 517 0
 366 518 149 100 177 175 0 0 -17 149 0 366 517 171 35 516 146 0 0 +15 366 449 0
 149 358 0 17 171 0 366 149 518 97 298 166 0 0 +17 516 0 25 53 39 97 149 146 0 1
71 -17 53 0 25 69 516 51 99 229 0 222 +17 99 0 290 298 226 97 53 229 0 516 -17 2
98 0 290 297 99 86 171 166 0 518 -17 226 0 290 99 291 51 260 214 0 0 +17 291 0 2
90 226 73 74 213 211 0 0 -17 260 0 256 257 222 74 226 214 0 291 -17 213 0 519 20
5 76 66 291 211 0 265 +15 519 210 0 205 336 0 17 205 0 519 79 213 70 265 203 0 2
52 +17 76 0 519 213 79 74 257 209 0 260 +17 79 0 519 76 205 77 81 206 0 258 +17
 518 0 366 171 517 86 159 157 0 0 -17 159 0 520 109 103 100 518 157 0 517 +15 52
0 464 0 159 372 0 17 109 0 520 164 159 107 111 160 0 515 +17 103 0 520 159 164 8
6 297 165 0 298 +17 164 0 520 103 109 104 299 162 0 297 +17 299 0 281 174 106 10
7 164 162 0 0 -17 116 0 132 113 124 114 133 134 0 514 +16 234 663 0 ?521 29 508
 230 0 0 1 17 521 0 405 521 521 0 522 234 0 0 +15 405 678 0 521 397 523 17 522 0
 524 522 522 0 521 234 0 0 -15 524 652 0 522 138 132 15 523 679 0 525 397 0 17 5
25 0 523 525 525 0 509 508 0 0 -17 509 0 526 509 509 0 525 508 0 0 +15 526 658 0
 509 294 292 16 507 707 0 ?527 508 504 235 0 0 1 17 527 0 412 527 527 0 528 507
 0 0 +31 235 697 0 507 230 17 0 +.075 .007 -.075 0 1 0 0 0 1 .0018 31 17 741 0 5
03 235 6 0 +.075 .007 -.005 0 1 0 0 0 1 .0018 16 503 751 0 ?529 504 500 17 0 0 1
 17 529 0 419 529 529 0 530 503 0 0 +15 419 766 0 529 411 531 17 530 0 532 530 5
30 0 529 503 0 0 -15 532 740 0 530 336 519 15 531 767 0 533 411 0 17 533 0 531 5
33 533 0 502 500 0 0 -17 502 0 534 502 502 0 533 500 0 0 +15 534 746 0 502 294 5
35 15 535 702 0 506 294 526 17 506 0 535 506 506 0 536 504 0 0 +17 536 0 537 536
 536 0 506 504 0 0 -15 537 723 0 536 404 0 15 412 722 0 527 404 537 17 528 0 538
 528 528 0 527 507 0 0 -15 538 696 0 528 352 539 15 539 356 0 181 352 0 17 181 0
 539 94 88 85 266 179 0 0 +17 94 0 539 91 181 92 277 182 0 276 +17 88 0 539 181
 91 71 269 187 0 267 +17 91 0 539 88 94 89 275 185 0 271 +16 16 795 0 ?540 500 4
95 6 0 0 1 17 540 0 426 540 540 0 541 16 0 0 +15 426 810 0 540 418 542 17 541 0
 543 541 541 0 540 16 0 0 -15 543 784 0 541 372 520 15 542 811 0 544 418 0 17 54
4 0 542 544 544 0 499 495 0 0 -17 499 0 545 499 499 0 544 495 0 0 +15 545 790 0
 499 294 534 17 497 0 546 497 497 0 547 489 0 0 +15 546 874 0 497 425 0 17 547 0
 548 547 547 0 497 489 0 0 -15 548 853 0 547 372 543 17 494 0 549 494 494 0 550
 492 0 0 +15 549 859 0 494 294 545 17 550 0 433 550 550 0 494 492 0 0 -15 433 87
3 0 550 425 546 17 491 0 551 491 491 0 552 483 0 0 +15 551 920 0 491 432 0 17 55
2 0 398 552 552 0 491 483 0 0 -15 398 899 0 552 138 524 17 488 0 553 488 488 0 5
54 486 0 0 +15 553 905 0 488 294 549 17 554 0 440 554 554 0 488 486 0 0 -15 440
 919 0 554 432 551 17 485 0 555 485 485 0 556 477 0 0 +15 555 958 0 485 439 0 17
 556 0 341 556 556 0 485 477 0 0 -15 341 937 0 556 336 532 17 482 0 557 482 482
 0 558 480 0 0 +15 557 943 0 482 294 553 17 558 0 447 558 558 0 482 480 0 0 -15
 447 957 0 558 439 555 17 479 0 559 479 479 0 560 471 0 0 +15 559 996 0 479 446
 0 17 560 0 359 560 560 0 479 471 0 0 -15 359 975 0 560 352 538 17 476 0 561 476
 476 0 562 474 0 0 +15 561 981 0 476 294 557 17 562 0 454 562 562 0 476 474 0 0
 -15 454 995 0 562 446 559 17 465 0 314 465 465 0 463 466 0 0 +15 314 1036 0 465
 294 561 15 379 1030 0 468 372 548 83 3 457 .792156862745098 .819607843137255 .9
33333333333333 83 3 450 .792156862745098 .819607843137255 .933333333333333 83 3
 443 .792156862745098 .819607843137255 .933333333333333 83 3 436 .79215686274509
8 .819607843137255 .933333333333333 83 3 429 .792156862745098 .819607843137255 .
933333333333333 83 3 422 .792156862745098 .819607843137255 .933333333333333 83 3
 415 .792156862745098 .819607843137255 .933333333333333 83 3 408 .79215686274509
8 .819607843137255 .933333333333333 83 3 401 .792156862745098 .819607843137255 .
933333333333333 83 3 394 .792156862745098 .819607843137255 .933333333333333 83 3
 388 .792156862745098 .819607843137255 .933333333333333 83 3 382 .79215686274509
8 .819607843137255 .933333333333333 83 3 376 .792156862745098 .819607843137255 .
933333333333333 83 3 369 .792156862745098 .819607843137255 .933333333333333 83 3
 362 .792156862745098 .819607843137255 .933333333333333 83 3 355 .79215686274509
8 .819607843137255 .933333333333333 83 3 349 .792156862745098 .819607843137255 .
933333333333333 83 3 344 .792156862745098 .819607843137255 .933333333333333 83 3
 338 .792156862745098 .819607843137255 .933333333333333 81 1 331 1112 323 294 0
 308 325 328 563 83 3 333 .792156862745098 .819607843137255 .933333333333333 81
 1 308 1199 301 294 331 0 305 316 564 81 1 325 1111 323 127 0 316 318 331 565 83
 3 563 .792156862745098 .819607843137255 .933333333333333 83 3 565 .792156862745
098 .819607843137255 .933333333333333 82 1 564 -1977286317 82 1 327 191430960 81
 1 324 1109 323 296 0 303 302 318 566 83 3 326 .792156862745098 .819607843137255
 .933333333333333 81 1 303 1197 301 296 324 0 300 305 567 81 1 302 1108 323 14 0
 300 307 324 568 83 3 566 .792156862745098 .819607843137255 .933333333333333 81
 1 307 1107 323 12 0 305 0 302 569 83 3 568 .792156862745098 .819607843137255 .9
33333333333333 83 3 569 .792156862745098 .819607843137255 .933333333333333 82 1
 567 191955248 79 14 322 SWEntUnchanged82 1 309 1150746928 82 1 304 192217392 17
 56 0 122 119 278 54 293 285 0 130 +17 278 0 122 56 277 57 96 279 0 293 +17 96 0
 263 266 59 85 278 279 0 277 -141 224 223 224 224 220 19 13 95 0 1 0 8 4 S0 74 4
 CI16 index_map_offset0 0 1 dCCZ20 11 2 0 0 451 456 0 0 0 0 0 0 0 0 0 0 0 0 0 0
 0 0 0 0 1 0 
